<ttFont>
    <TTGlyph name=".notdef" xMin="120" yMin="0" xMax="678" yMax="531">
      <contour>
        <pt x="664" y="506" on="1"/>
        <pt x="412" y="266" on="1"/>
        <pt x="664" y="25" on="1"/>
      </contour>
      <contour>
        <pt x="147" y="13" on="1"/>
        <pt x="654" y="13" on="1"/>
        <pt x="401" y="256" on="1"/>
      </contour>
      <contour>
        <pt x="134" y="22" on="1"/>
        <pt x="390" y="266" on="1"/>
        <pt x="134" y="507" on="1"/>
      </contour>
      <contour>
        <pt x="655" y="518" on="1"/>
        <pt x="144" y="518" on="1"/>
        <pt x="401" y="276" on="1"/>
      </contour>
      <contour>
        <pt x="120" y="0" on="1"/>
        <pt x="120" y="531" on="1"/>
        <pt x="678" y="531" on="1"/>
        <pt x="678" y="0" on="1"/>
      </contour>
    </TTGlyph>
    <TTGlyph name="A" xMin="61" yMin="0" xMax="631" yMax="732">
      <contour>
        <pt x="61" y="0" on="1"/>
        <pt x="335" y="732" on="1"/>
        <pt x="369" y="732" on="1"/>
        <pt x="631" y="0" on="1"/>
        <pt x="605" y="0" on="1"/>
        <pt x="514" y="253" on="1"/>
        <pt x="181" y="253" on="1"/>
        <pt x="87" y="0" on="1"/>
      </contour>
      <contour>
        <pt x="190" y="277" on="1"/>
        <pt x="505" y="277" on="1"/>
        <pt x="352" y="708" on="1"/>
      </contour>
    </TTGlyph>
    <TTGlyph name="AE" xMin="40" yMin="-4" xMax="882" yMax="733">
      <contour>
        <pt x="602" y="732" on="1"/>
        <pt x="608" y="732" on="0"/>
        <pt x="614" y="732" on="1"/>
        <pt x="882" y="722" on="1"/>
        <pt x="882" y="708" on="1"/>
        <pt x="614" y="708" on="1"/>
        <pt x="570" y="708" on="0"/>
        <pt x="544" y="698" on="0"/>
        <pt x="528" y="692" on="0"/>
        <pt x="519" y="676" on="0"/>
        <pt x="514" y="667" on="0"/>
        <pt x="513" y="655" on="1"/>
        <pt x="512" y="637" on="1"/>
        <pt x="511" y="631" on="0"/>
        <pt x="512" y="600" on="0"/>
        <pt x="512" y="592" on="1"/>
        <pt x="512" y="375" on="1"/>
        <pt x="842" y="370" on="1"/>
        <pt x="842" y="356" on="1"/>
        <pt x="512" y="351" on="1"/>
        <pt x="512" y="123" on="1"/>
        <pt x="512" y="61" on="0"/>
        <pt x="572" y="21" on="0"/>
        <pt x="624" y="21" on="1"/>
        <pt x="882" y="21" on="1"/>
        <pt x="882" y="7" on="1"/>
        <pt x="624" y="-3" on="1"/>
        <pt x="620" y="-3" on="0"/>
        <pt x="615" y="-3" on="1"/>
        <pt x="561" y="-3" on="0"/>
        <pt x="488" y="45" on="0"/>
        <pt x="488" y="121" on="1"/>
        <pt x="488" y="252" on="1"/>
        <pt x="230" y="252" on="1"/>
        <pt x="70" y="0" on="1"/>
        <pt x="40" y="0" on="1"/>
        <pt x="416" y="590" on="1"/>
        <pt x="468" y="672" on="0"/>
        <pt x="490" y="693" on="1"/>
        <pt x="530" y="732" on="0"/>
      </contour>
      <contour>
        <pt x="488" y="276" on="1"/>
        <pt x="488" y="657" on="1"/>
        <pt x="246" y="276" on="1"/>
      </contour>
    </TTGlyph>
    <TTGlyph name="Aacute" xMin="61" yMin="0" xMax="631" yMax="930">
      <contour>
        <pt x="345" y="797" on="1"/>
        <pt x="466" y="930" on="1"/>
        <pt x="492" y="930" on="1"/>
        <pt x="359" y="797" on="1"/>
      </contour>
      <contour>
        <pt x="61" y="0" on="1"/>
        <pt x="335" y="732" on="1"/>
        <pt x="369" y="732" on="1"/>
        <pt x="631" y="0" on="1"/>
        <pt x="605" y="0" on="1"/>
        <pt x="514" y="253" on="1"/>
        <pt x="181" y="253" on="1"/>
        <pt x="87" y="0" on="1"/>
      </contour>
      <contour>
        <pt x="190" y="277" on="1"/>
        <pt x="505" y="277" on="1"/>
        <pt x="352" y="708" on="1"/>
      </contour>
    </TTGlyph>
    <TTGlyph name="Abreve" xMin="61" yMin="0" xMax="631" yMax="911">
      <contour>
        <pt x="245" y="911" on="1"/>
        <pt x="259" y="911" on="1"/>
        <pt x="259" y="869" on="0"/>
        <pt x="317" y="811" on="0"/>
        <pt x="356" y="811" on="1"/>
        <pt x="402" y="811" on="0"/>
        <pt x="461" y="868" on="0"/>
        <pt x="461" y="911" on="1"/>
        <pt x="475" y="911" on="1"/>
        <pt x="475" y="858" on="0"/>
        <pt x="404" y="797" on="0"/>
        <pt x="315" y="797" on="0"/>
        <pt x="245" y="860" on="0"/>
      </contour>
      <contour>
        <pt x="61" y="0" on="1"/>
        <pt x="335" y="732" on="1"/>
        <pt x="369" y="732" on="1"/>
        <pt x="631" y="0" on="1"/>
        <pt x="605" y="0" on="1"/>
        <pt x="514" y="253" on="1"/>
        <pt x="181" y="253" on="1"/>
        <pt x="87" y="0" on="1"/>
      </contour>
      <contour>
        <pt x="190" y="277" on="1"/>
        <pt x="505" y="277" on="1"/>
        <pt x="352" y="708" on="1"/>
      </contour>
    </TTGlyph>
    <TTGlyph name="Acircumflex" xMin="61" yMin="0" xMax="631" yMax="927">
      <contour>
        <pt x="216" y="797" on="1"/>
        <pt x="348" y="927" on="1"/>
        <pt x="368" y="927" on="1"/>
        <pt x="488" y="797" on="1"/>
        <pt x="470" y="797" on="1"/>
        <pt x="358" y="912" on="1"/>
        <pt x="234" y="797" on="1"/>
      </contour>
      <contour>
        <pt x="61" y="0" on="1"/>
        <pt x="335" y="732" on="1"/>
        <pt x="369" y="732" on="1"/>
        <pt x="631" y="0" on="1"/>
        <pt x="605" y="0" on="1"/>
        <pt x="514" y="253" on="1"/>
        <pt x="181" y="253" on="1"/>
        <pt x="87" y="0" on="1"/>
      </contour>
      <contour>
        <pt x="190" y="277" on="1"/>
        <pt x="505" y="277" on="1"/>
        <pt x="352" y="708" on="1"/>
      </contour>
    </TTGlyph>
    <TTGlyph name="Adieresis" xMin="61" yMin="0" xMax="631" yMax="832">
      <contour>
        <pt x="208" y="807" on="0"/>
        <pt x="208" y="822" on="0"/>
        <pt x="217" y="832" on="0"/>
        <pt x="232" y="832" on="0"/>
        <pt x="242" y="822" on="0"/>
        <pt x="242" y="810" on="0"/>
        <pt x="239" y="806" on="1"/>
        <pt x="235" y="797" on="0"/>
        <pt x="217" y="797" on="0"/>
      </contour>
      <contour>
        <pt x="462" y="808" on="0"/>
        <pt x="462" y="822" on="0"/>
        <pt x="472" y="832" on="0"/>
        <pt x="487" y="832" on="0"/>
        <pt x="496" y="822" on="0"/>
        <pt x="496" y="811" on="0"/>
        <pt x="494" y="805" on="0"/>
        <pt x="492" y="802" on="1"/>
        <pt x="487" y="797" on="0"/>
        <pt x="472" y="797" on="0"/>
      </contour>
      <contour>
        <pt x="61" y="0" on="1"/>
        <pt x="335" y="732" on="1"/>
        <pt x="369" y="732" on="1"/>
        <pt x="631" y="0" on="1"/>
        <pt x="605" y="0" on="1"/>
        <pt x="514" y="253" on="1"/>
        <pt x="181" y="253" on="1"/>
        <pt x="87" y="0" on="1"/>
      </contour>
      <contour>
        <pt x="190" y="277" on="1"/>
        <pt x="505" y="277" on="1"/>
        <pt x="352" y="708" on="1"/>
      </contour>
    </TTGlyph>
    <TTGlyph name="Agrave" xMin="61" yMin="0" xMax="631" yMax="930">
      <contour>
        <pt x="212" y="930" on="1"/>
        <pt x="238" y="930" on="1"/>
        <pt x="359" y="797" on="1"/>
        <pt x="345" y="797" on="1"/>
      </contour>
      <contour>
        <pt x="61" y="0" on="1"/>
        <pt x="335" y="732" on="1"/>
        <pt x="369" y="732" on="1"/>
        <pt x="631" y="0" on="1"/>
        <pt x="605" y="0" on="1"/>
        <pt x="514" y="253" on="1"/>
        <pt x="181" y="253" on="1"/>
        <pt x="87" y="0" on="1"/>
      </contour>
      <contour>
        <pt x="190" y="277" on="1"/>
        <pt x="505" y="277" on="1"/>
        <pt x="352" y="708" on="1"/>
      </contour>
    </TTGlyph>
    <TTGlyph name="Amacron" xMin="61" yMin="0" xMax="631" yMax="812">
      <contour>
        <pt x="226" y="797" on="1"/>
        <pt x="226" y="812" on="1"/>
        <pt x="478" y="812" on="1"/>
        <pt x="478" y="797" on="1"/>
      </contour>
      <contour>
        <pt x="61" y="0" on="1"/>
        <pt x="335" y="732" on="1"/>
        <pt x="369" y="732" on="1"/>
        <pt x="631" y="0" on="1"/>
        <pt x="605" y="0" on="1"/>
        <pt x="514" y="253" on="1"/>
        <pt x="181" y="253" on="1"/>
        <pt x="87" y="0" on="1"/>
      </contour>
      <contour>
        <pt x="190" y="277" on="1"/>
        <pt x="505" y="277" on="1"/>
        <pt x="352" y="708" on="1"/>
      </contour>
    </TTGlyph>
    <TTGlyph name="Aogonek" xMin="61" yMin="-183" xMax="657" yMax="732">
      <contour>
        <pt x="625" y="0" on="1"/>
        <pt x="593" y="-13" on="0"/>
        <pt x="550" y="-60" on="0"/>
        <pt x="550" y="-95" on="1"/>
        <pt x="550" y="-106" on="0"/>
        <pt x="566" y="-143" on="0"/>
        <pt x="618" y="-167" on="0"/>
        <pt x="652" y="-167" on="1"/>
        <pt x="655" y="-167" on="0"/>
        <pt x="657" y="-167" on="1"/>
        <pt x="657" y="-181" on="1"/>
        <pt x="647" y="-182" on="0"/>
        <pt x="615" y="-182" on="0"/>
        <pt x="564" y="-164" on="0"/>
        <pt x="549" y="-143" on="1"/>
        <pt x="531" y="-118" on="0"/>
        <pt x="531" y="-69" on="0"/>
        <pt x="570" y="-19" on="0"/>
        <pt x="613" y="0" on="1"/>
      </contour>
      <contour>
        <pt x="61" y="0" on="1"/>
        <pt x="335" y="732" on="1"/>
        <pt x="369" y="732" on="1"/>
        <pt x="631" y="0" on="1"/>
        <pt x="605" y="0" on="1"/>
        <pt x="514" y="253" on="1"/>
        <pt x="181" y="253" on="1"/>
        <pt x="87" y="0" on="1"/>
      </contour>
      <contour>
        <pt x="190" y="277" on="1"/>
        <pt x="505" y="277" on="1"/>
        <pt x="352" y="708" on="1"/>
      </contour>
    </TTGlyph>
    <TTGlyph name="Aring" xMin="61" yMin="0" xMax="631" yMax="936">
      <contour>
        <pt x="251" y="804" on="0"/>
        <pt x="278" y="757" on="0"/>
        <pt x="325" y="730" on="0"/>
        <pt x="395" y="730" on="0"/>
        <pt x="453" y="789" on="0"/>
        <pt x="453" y="875" on="0"/>
        <pt x="395" y="935" on="0"/>
        <pt x="311" y="935" on="0"/>
        <pt x="251" y="875" on="0"/>
      </contour>
      <contour>
        <pt x="265" y="796" on="0"/>
        <pt x="265" y="868" on="0"/>
        <pt x="317" y="920" on="0"/>
        <pt x="389" y="920" on="0"/>
        <pt x="439" y="868" on="0"/>
        <pt x="439" y="796" on="0"/>
        <pt x="389" y="745" on="0"/>
        <pt x="317" y="745" on="0"/>
      </contour>
      <contour>
        <pt x="61" y="0" on="1"/>
        <pt x="335" y="732" on="1"/>
        <pt x="369" y="732" on="1"/>
        <pt x="631" y="0" on="1"/>
        <pt x="605" y="0" on="1"/>
        <pt x="514" y="253" on="1"/>
        <pt x="181" y="253" on="1"/>
        <pt x="87" y="0" on="1"/>
      </contour>
      <contour>
        <pt x="190" y="277" on="1"/>
        <pt x="505" y="277" on="1"/>
        <pt x="352" y="708" on="1"/>
      </contour>
    </TTGlyph>
    <TTGlyph name="Atilde" xMin="61" yMin="0" xMax="631" yMax="886">
      <contour>
        <pt x="271" y="886" on="0"/>
        <pt x="309" y="886" on="0"/>
        <pt x="400" y="813" on="0"/>
        <pt x="415" y="813" on="1"/>
        <pt x="451" y="813" on="0"/>
        <pt x="515" y="866" on="1"/>
        <pt x="521" y="859" on="1"/>
        <pt x="501" y="839" on="0"/>
        <pt x="488" y="828" on="1"/>
        <pt x="452" y="797" on="0"/>
        <pt x="415" y="797" on="1"/>
        <pt x="393" y="797" on="0"/>
        <pt x="304" y="870" on="0"/>
        <pt x="281" y="870" on="0"/>
        <pt x="266" y="868" on="0"/>
        <pt x="250" y="861" on="0"/>
        <pt x="240" y="857" on="0"/>
        <pt x="220" y="844" on="0"/>
        <pt x="213" y="839" on="0"/>
        <pt x="190" y="822" on="0"/>
        <pt x="187" y="820" on="1"/>
        <pt x="183" y="828" on="1"/>
        <pt x="225" y="864" on="0"/>
      </contour>
      <contour>
        <pt x="61" y="0" on="1"/>
        <pt x="335" y="732" on="1"/>
        <pt x="369" y="732" on="1"/>
        <pt x="631" y="0" on="1"/>
        <pt x="605" y="0" on="1"/>
        <pt x="514" y="253" on="1"/>
        <pt x="181" y="253" on="1"/>
        <pt x="87" y="0" on="1"/>
      </contour>
      <contour>
        <pt x="190" y="277" on="1"/>
        <pt x="505" y="277" on="1"/>
        <pt x="352" y="708" on="1"/>
      </contour>
    </TTGlyph>
    <TTGlyph name="B" xMin="108" yMin="0" xMax="554" yMax="732">
      <contour>
        <pt x="108" y="0" on="1"/>
        <pt x="108" y="732" on="1"/>
        <pt x="361" y="732" on="1"/>
        <pt x="465" y="732" on="0"/>
        <pt x="551" y="637" on="0"/>
        <pt x="551" y="481" on="0"/>
        <pt x="473" y="390" on="0"/>
        <pt x="422" y="384" on="1"/>
        <pt x="466" y="374" on="0"/>
        <pt x="554" y="280" on="0"/>
        <pt x="554" y="204" on="1"/>
        <pt x="554" y="0" on="0"/>
        <pt x="361" y="0" on="1"/>
      </contour>
      <contour>
        <pt x="132" y="25" on="1"/>
        <pt x="361" y="25" on="1"/>
        <pt x="530" y="25" on="0"/>
        <pt x="530" y="206" on="1"/>
        <pt x="530" y="275" on="0"/>
        <pt x="432" y="371" on="0"/>
        <pt x="366" y="371" on="1"/>
        <pt x="364" y="371" on="0"/>
        <pt x="361" y="371" on="1"/>
        <pt x="132" y="371" on="1"/>
      </contour>
      <contour>
        <pt x="132" y="395" on="1"/>
        <pt x="361" y="395" on="1"/>
        <pt x="433" y="395" on="0"/>
        <pt x="479" y="436" on="1"/>
        <pt x="527" y="479" on="0"/>
        <pt x="527" y="636" on="0"/>
        <pt x="445" y="708" on="0"/>
        <pt x="361" y="708" on="1"/>
        <pt x="132" y="708" on="1"/>
      </contour>
    </TTGlyph>
    <TTGlyph name="C" xMin="74" yMin="-6" xMax="531" yMax="740">
      <contour>
        <pt x="74" y="368" on="1"/>
        <pt x="74" y="461" on="0"/>
        <pt x="93" y="588" on="0"/>
        <pt x="119" y="640" on="1"/>
        <pt x="170" y="740" on="0"/>
        <pt x="317" y="740" on="1"/>
        <pt x="402" y="740" on="0"/>
        <pt x="531" y="716" on="1"/>
        <pt x="531" y="702" on="1"/>
        <pt x="517" y="704" on="0"/>
        <pt x="492" y="706" on="0"/>
        <pt x="459" y="709" on="0"/>
        <pt x="420" y="712" on="0"/>
        <pt x="400" y="713" on="1"/>
        <pt x="340" y="716" on="0"/>
        <pt x="317" y="716" on="1"/>
        <pt x="239" y="716" on="0"/>
        <pt x="194" y="688" on="1"/>
        <pt x="98" y="628" on="0"/>
        <pt x="98" y="366" on="1"/>
        <pt x="98" y="18" on="0"/>
        <pt x="318" y="18" on="1"/>
        <pt x="411" y="18" on="0"/>
        <pt x="501" y="27" on="1"/>
        <pt x="531" y="30" on="1"/>
        <pt x="531" y="16" on="1"/>
        <pt x="413" y="-6" on="0"/>
        <pt x="317" y="-6" on="1"/>
        <pt x="74" y="-6" on="0"/>
      </contour>
    </TTGlyph>
    <TTGlyph name="Cacute" xMin="74" yMin="-6" xMax="531" yMax="933">
      <contour>
        <pt x="317" y="800" on="1"/>
        <pt x="438" y="933" on="1"/>
        <pt x="464" y="933" on="1"/>
        <pt x="331" y="800" on="1"/>
      </contour>
      <contour>
        <pt x="74" y="368" on="1"/>
        <pt x="74" y="461" on="0"/>
        <pt x="93" y="588" on="0"/>
        <pt x="119" y="640" on="1"/>
        <pt x="170" y="740" on="0"/>
        <pt x="317" y="740" on="1"/>
        <pt x="402" y="740" on="0"/>
        <pt x="531" y="716" on="1"/>
        <pt x="531" y="702" on="1"/>
        <pt x="517" y="704" on="0"/>
        <pt x="492" y="706" on="0"/>
        <pt x="459" y="709" on="0"/>
        <pt x="420" y="712" on="0"/>
        <pt x="400" y="713" on="1"/>
        <pt x="340" y="716" on="0"/>
        <pt x="317" y="716" on="1"/>
        <pt x="239" y="716" on="0"/>
        <pt x="194" y="688" on="1"/>
        <pt x="98" y="628" on="0"/>
        <pt x="98" y="366" on="1"/>
        <pt x="98" y="18" on="0"/>
        <pt x="318" y="18" on="1"/>
        <pt x="411" y="18" on="0"/>
        <pt x="501" y="27" on="1"/>
        <pt x="531" y="30" on="1"/>
        <pt x="531" y="16" on="1"/>
        <pt x="413" y="-6" on="0"/>
        <pt x="317" y="-6" on="1"/>
        <pt x="74" y="-6" on="0"/>
      </contour>
    </TTGlyph>
    <TTGlyph name="Ccaron" xMin="74" yMin="-6" xMax="531" yMax="930">
      <contour>
        <pt x="203" y="930" on="1"/>
        <pt x="219" y="930" on="1"/>
        <pt x="332" y="815" on="1"/>
        <pt x="457" y="930" on="1"/>
        <pt x="475" y="930" on="1"/>
        <pt x="343" y="800" on="1"/>
        <pt x="321" y="800" on="1"/>
      </contour>
      <contour>
        <pt x="74" y="368" on="1"/>
        <pt x="74" y="461" on="0"/>
        <pt x="93" y="588" on="0"/>
        <pt x="119" y="640" on="1"/>
        <pt x="170" y="740" on="0"/>
        <pt x="317" y="740" on="1"/>
        <pt x="402" y="740" on="0"/>
        <pt x="531" y="716" on="1"/>
        <pt x="531" y="702" on="1"/>
        <pt x="517" y="704" on="0"/>
        <pt x="492" y="706" on="0"/>
        <pt x="459" y="709" on="0"/>
        <pt x="420" y="712" on="0"/>
        <pt x="400" y="713" on="1"/>
        <pt x="340" y="716" on="0"/>
        <pt x="317" y="716" on="1"/>
        <pt x="239" y="716" on="0"/>
        <pt x="194" y="688" on="1"/>
        <pt x="98" y="628" on="0"/>
        <pt x="98" y="366" on="1"/>
        <pt x="98" y="18" on="0"/>
        <pt x="318" y="18" on="1"/>
        <pt x="411" y="18" on="0"/>
        <pt x="501" y="27" on="1"/>
        <pt x="531" y="30" on="1"/>
        <pt x="531" y="16" on="1"/>
        <pt x="413" y="-6" on="0"/>
        <pt x="317" y="-6" on="1"/>
        <pt x="74" y="-6" on="0"/>
      </contour>
    </TTGlyph>
    <TTGlyph name="Ccedilla" xMin="74" yMin="-172" xMax="531" yMax="740">
      <contour>
        <pt x="293" y="-148" on="0"/>
        <pt x="319" y="-124" on="0"/>
        <pt x="327" y="-79" on="0"/>
        <pt x="327" y="-43" on="0"/>
        <pt x="327" y="-36" on="1"/>
        <pt x="344" y="-36" on="1"/>
        <pt x="344" y="-113" on="0"/>
        <pt x="304" y="-172" on="0"/>
        <pt x="243" y="-172" on="1"/>
        <pt x="213" y="-172" on="1"/>
        <pt x="213" y="-165" on="1"/>
        <pt x="245" y="-160" on="1"/>
        <pt x="269" y="-156" on="0"/>
      </contour>
      <contour>
        <pt x="74" y="368" on="1"/>
        <pt x="74" y="461" on="0"/>
        <pt x="93" y="588" on="0"/>
        <pt x="119" y="640" on="1"/>
        <pt x="170" y="740" on="0"/>
        <pt x="317" y="740" on="1"/>
        <pt x="402" y="740" on="0"/>
        <pt x="531" y="716" on="1"/>
        <pt x="531" y="702" on="1"/>
        <pt x="517" y="704" on="0"/>
        <pt x="492" y="706" on="0"/>
        <pt x="459" y="709" on="0"/>
        <pt x="420" y="712" on="0"/>
        <pt x="400" y="713" on="1"/>
        <pt x="340" y="716" on="0"/>
        <pt x="317" y="716" on="1"/>
        <pt x="239" y="716" on="0"/>
        <pt x="194" y="688" on="1"/>
        <pt x="98" y="628" on="0"/>
        <pt x="98" y="366" on="1"/>
        <pt x="98" y="18" on="0"/>
        <pt x="318" y="18" on="1"/>
        <pt x="411" y="18" on="0"/>
        <pt x="501" y="27" on="1"/>
        <pt x="531" y="30" on="1"/>
        <pt x="531" y="16" on="1"/>
        <pt x="413" y="-6" on="0"/>
        <pt x="317" y="-6" on="1"/>
        <pt x="74" y="-6" on="0"/>
      </contour>
    </TTGlyph>
    <TTGlyph name="Ccircumflex" xMin="74" yMin="-6" xMax="531" yMax="930">
      <contour>
        <pt x="198" y="800" on="1"/>
        <pt x="330" y="930" on="1"/>
        <pt x="350" y="930" on="1"/>
        <pt x="470" y="800" on="1"/>
        <pt x="452" y="800" on="1"/>
        <pt x="340" y="915" on="1"/>
        <pt x="216" y="800" on="1"/>
      </contour>
      <contour>
        <pt x="74" y="368" on="1"/>
        <pt x="74" y="461" on="0"/>
        <pt x="93" y="588" on="0"/>
        <pt x="119" y="640" on="1"/>
        <pt x="170" y="740" on="0"/>
        <pt x="317" y="740" on="1"/>
        <pt x="402" y="740" on="0"/>
        <pt x="531" y="716" on="1"/>
        <pt x="531" y="702" on="1"/>
        <pt x="517" y="704" on="0"/>
        <pt x="492" y="706" on="0"/>
        <pt x="459" y="709" on="0"/>
        <pt x="420" y="712" on="0"/>
        <pt x="400" y="713" on="1"/>
        <pt x="340" y="716" on="0"/>
        <pt x="317" y="716" on="1"/>
        <pt x="239" y="716" on="0"/>
        <pt x="194" y="688" on="1"/>
        <pt x="98" y="628" on="0"/>
        <pt x="98" y="366" on="1"/>
        <pt x="98" y="18" on="0"/>
        <pt x="318" y="18" on="1"/>
        <pt x="411" y="18" on="0"/>
        <pt x="501" y="27" on="1"/>
        <pt x="531" y="30" on="1"/>
        <pt x="531" y="16" on="1"/>
        <pt x="413" y="-6" on="0"/>
        <pt x="317" y="-6" on="1"/>
        <pt x="74" y="-6" on="0"/>
      </contour>
    </TTGlyph>
    <TTGlyph name="Cdotaccent" xMin="74" yMin="-6" xMax="531" yMax="886">
      <contour>
        <pt x="330" y="812" on="1"/>
        <pt x="330" y="874" on="1"/>
        <pt x="330" y="886" on="0"/>
        <pt x="342" y="886" on="1"/>
        <pt x="352" y="886" on="1"/>
        <pt x="364" y="886" on="0"/>
        <pt x="364" y="874" on="1"/>
        <pt x="364" y="812" on="1"/>
        <pt x="364" y="800" on="0"/>
        <pt x="352" y="800" on="1"/>
        <pt x="342" y="800" on="1"/>
        <pt x="330" y="800" on="0"/>
      </contour>
      <contour>
        <pt x="74" y="368" on="1"/>
        <pt x="74" y="461" on="0"/>
        <pt x="93" y="588" on="0"/>
        <pt x="119" y="640" on="1"/>
        <pt x="170" y="740" on="0"/>
        <pt x="317" y="740" on="1"/>
        <pt x="402" y="740" on="0"/>
        <pt x="531" y="716" on="1"/>
        <pt x="531" y="702" on="1"/>
        <pt x="517" y="704" on="0"/>
        <pt x="492" y="706" on="0"/>
        <pt x="459" y="709" on="0"/>
        <pt x="420" y="712" on="0"/>
        <pt x="400" y="713" on="1"/>
        <pt x="340" y="716" on="0"/>
        <pt x="317" y="716" on="1"/>
        <pt x="239" y="716" on="0"/>
        <pt x="194" y="688" on="1"/>
        <pt x="98" y="628" on="0"/>
        <pt x="98" y="366" on="1"/>
        <pt x="98" y="18" on="0"/>
        <pt x="318" y="18" on="1"/>
        <pt x="411" y="18" on="0"/>
        <pt x="501" y="27" on="1"/>
        <pt x="531" y="30" on="1"/>
        <pt x="531" y="16" on="1"/>
        <pt x="413" y="-6" on="0"/>
        <pt x="317" y="-6" on="1"/>
        <pt x="74" y="-6" on="0"/>
      </contour>
    </TTGlyph>
    <TTGlyph name="D" xMin="108" yMin="0" xMax="620" yMax="732">
      <contour>
        <pt x="108" y="0" on="1"/>
        <pt x="108" y="732" on="1"/>
        <pt x="361" y="732" on="1"/>
        <pt x="426" y="732" on="0"/>
        <pt x="523" y="683" on="0"/>
        <pt x="577" y="609" on="0"/>
        <pt x="594" y="557" on="1"/>
        <pt x="620" y="473" on="0"/>
        <pt x="620" y="298" on="0"/>
        <pt x="590" y="174" on="0"/>
        <pt x="531" y="66" on="0"/>
        <pt x="427" y="0" on="0"/>
        <pt x="361" y="0" on="1"/>
      </contour>
      <contour>
        <pt x="132" y="24" on="1"/>
        <pt x="361" y="24" on="1"/>
        <pt x="421" y="24" on="0"/>
        <pt x="515" y="88" on="0"/>
        <pt x="542" y="139" on="1"/>
        <pt x="596" y="241" on="0"/>
        <pt x="596" y="364" on="1"/>
        <pt x="596" y="537" on="0"/>
        <pt x="475" y="708" on="0"/>
        <pt x="361" y="708" on="1"/>
        <pt x="132" y="708" on="1"/>
      </contour>
    </TTGlyph>
    <TTGlyph name="Dcaron" xMin="108" yMin="0" xMax="620" yMax="922">
      <contour>
        <pt x="221" y="922" on="1"/>
        <pt x="237" y="922" on="1"/>
        <pt x="350" y="807" on="1"/>
        <pt x="475" y="922" on="1"/>
        <pt x="493" y="922" on="1"/>
        <pt x="361" y="792" on="1"/>
        <pt x="339" y="792" on="1"/>
      </contour>
      <contour>
        <pt x="108" y="0" on="1"/>
        <pt x="108" y="732" on="1"/>
        <pt x="361" y="732" on="1"/>
        <pt x="426" y="732" on="0"/>
        <pt x="523" y="683" on="0"/>
        <pt x="577" y="609" on="0"/>
        <pt x="594" y="557" on="1"/>
        <pt x="620" y="473" on="0"/>
        <pt x="620" y="298" on="0"/>
        <pt x="590" y="174" on="0"/>
        <pt x="531" y="66" on="0"/>
        <pt x="427" y="0" on="0"/>
        <pt x="361" y="0" on="1"/>
      </contour>
      <contour>
        <pt x="132" y="24" on="1"/>
        <pt x="361" y="24" on="1"/>
        <pt x="421" y="24" on="0"/>
        <pt x="515" y="88" on="0"/>
        <pt x="542" y="139" on="1"/>
        <pt x="596" y="241" on="0"/>
        <pt x="596" y="364" on="1"/>
        <pt x="596" y="537" on="0"/>
        <pt x="475" y="708" on="0"/>
        <pt x="361" y="708" on="1"/>
        <pt x="132" y="708" on="1"/>
      </contour>
    </TTGlyph>
    <TTGlyph name="Dcroat" xMin="43" yMin="0" xMax="610" yMax="732">
      <contour>
        <pt x="43" y="366" on="1"/>
        <pt x="43" y="380" on="1"/>
        <pt x="108" y="380" on="1"/>
        <pt x="108" y="732" on="1"/>
        <pt x="351" y="732" on="1"/>
        <pt x="416" y="732" on="0"/>
        <pt x="513" y="683" on="0"/>
        <pt x="567" y="609" on="0"/>
        <pt x="584" y="557" on="1"/>
        <pt x="610" y="473" on="0"/>
        <pt x="610" y="298" on="0"/>
        <pt x="580" y="174" on="0"/>
        <pt x="521" y="66" on="0"/>
        <pt x="417" y="0" on="0"/>
        <pt x="351" y="0" on="1"/>
        <pt x="108" y="0" on="1"/>
        <pt x="108" y="366" on="1"/>
      </contour>
      <contour>
        <pt x="132" y="24" on="1"/>
        <pt x="351" y="24" on="1"/>
        <pt x="411" y="24" on="0"/>
        <pt x="505" y="88" on="0"/>
        <pt x="532" y="139" on="1"/>
        <pt x="586" y="241" on="0"/>
        <pt x="586" y="364" on="1"/>
        <pt x="586" y="537" on="0"/>
        <pt x="465" y="708" on="0"/>
        <pt x="351" y="708" on="1"/>
        <pt x="132" y="708" on="1"/>
        <pt x="132" y="380" on="1"/>
        <pt x="291" y="380" on="1"/>
        <pt x="291" y="366" on="1"/>
        <pt x="132" y="366" on="1"/>
      </contour>
    </TTGlyph>
    <TTGlyph name="E" xMin="108" yMin="-4" xMax="531" yMax="733">
      <contour>
        <pt x="108" y="123" on="1"/>
        <pt x="108" y="602" on="1"/>
        <pt x="108" y="671" on="0"/>
        <pt x="178" y="732" on="0"/>
        <pt x="228" y="732" on="1"/>
        <pt x="231" y="732" on="0"/>
        <pt x="234" y="732" on="1"/>
        <pt x="531" y="722" on="1"/>
        <pt x="531" y="708" on="1"/>
        <pt x="234" y="708" on="1"/>
        <pt x="132" y="708" on="0"/>
        <pt x="132" y="602" on="1"/>
        <pt x="132" y="375" on="1"/>
        <pt x="491" y="370" on="1"/>
        <pt x="491" y="356" on="1"/>
        <pt x="132" y="351" on="1"/>
        <pt x="132" y="123" on="1"/>
        <pt x="132" y="61" on="0"/>
        <pt x="192" y="21" on="0"/>
        <pt x="244" y="21" on="1"/>
        <pt x="531" y="21" on="1"/>
        <pt x="531" y="7" on="1"/>
        <pt x="245" y="-3" on="1"/>
        <pt x="239" y="-3" on="0"/>
        <pt x="213" y="-3" on="0"/>
        <pt x="174" y="4" on="0"/>
        <pt x="152" y="16" on="1"/>
        <pt x="108" y="42" on="0"/>
      </contour>
    </TTGlyph>
    <TTGlyph name="Eacute" xMin="108" yMin="-4" xMax="531" yMax="925">
      <contour>
        <pt x="332" y="792" on="1"/>
        <pt x="453" y="925" on="1"/>
        <pt x="479" y="925" on="1"/>
        <pt x="346" y="792" on="1"/>
      </contour>
      <contour>
        <pt x="108" y="123" on="1"/>
        <pt x="108" y="602" on="1"/>
        <pt x="108" y="671" on="0"/>
        <pt x="178" y="732" on="0"/>
        <pt x="228" y="732" on="1"/>
        <pt x="231" y="732" on="0"/>
        <pt x="234" y="732" on="1"/>
        <pt x="531" y="722" on="1"/>
        <pt x="531" y="708" on="1"/>
        <pt x="234" y="708" on="1"/>
        <pt x="132" y="708" on="0"/>
        <pt x="132" y="602" on="1"/>
        <pt x="132" y="375" on="1"/>
        <pt x="491" y="370" on="1"/>
        <pt x="491" y="356" on="1"/>
        <pt x="132" y="351" on="1"/>
        <pt x="132" y="123" on="1"/>
        <pt x="132" y="61" on="0"/>
        <pt x="192" y="21" on="0"/>
        <pt x="244" y="21" on="1"/>
        <pt x="531" y="21" on="1"/>
        <pt x="531" y="7" on="1"/>
        <pt x="245" y="-3" on="1"/>
        <pt x="239" y="-3" on="0"/>
        <pt x="213" y="-3" on="0"/>
        <pt x="174" y="4" on="0"/>
        <pt x="152" y="16" on="1"/>
        <pt x="108" y="42" on="0"/>
      </contour>
    </TTGlyph>
    <TTGlyph name="Ecaron" xMin="108" yMin="-4" xMax="531" yMax="922">
      <contour>
        <pt x="205" y="922" on="1"/>
        <pt x="221" y="922" on="1"/>
        <pt x="334" y="807" on="1"/>
        <pt x="459" y="922" on="1"/>
        <pt x="477" y="922" on="1"/>
        <pt x="345" y="792" on="1"/>
        <pt x="323" y="792" on="1"/>
      </contour>
      <contour>
        <pt x="108" y="123" on="1"/>
        <pt x="108" y="602" on="1"/>
        <pt x="108" y="671" on="0"/>
        <pt x="178" y="732" on="0"/>
        <pt x="228" y="732" on="1"/>
        <pt x="231" y="732" on="0"/>
        <pt x="234" y="732" on="1"/>
        <pt x="531" y="722" on="1"/>
        <pt x="531" y="708" on="1"/>
        <pt x="234" y="708" on="1"/>
        <pt x="132" y="708" on="0"/>
        <pt x="132" y="602" on="1"/>
        <pt x="132" y="375" on="1"/>
        <pt x="491" y="370" on="1"/>
        <pt x="491" y="356" on="1"/>
        <pt x="132" y="351" on="1"/>
        <pt x="132" y="123" on="1"/>
        <pt x="132" y="61" on="0"/>
        <pt x="192" y="21" on="0"/>
        <pt x="244" y="21" on="1"/>
        <pt x="531" y="21" on="1"/>
        <pt x="531" y="7" on="1"/>
        <pt x="245" y="-3" on="1"/>
        <pt x="239" y="-3" on="0"/>
        <pt x="213" y="-3" on="0"/>
        <pt x="174" y="4" on="0"/>
        <pt x="152" y="16" on="1"/>
        <pt x="108" y="42" on="0"/>
      </contour>
    </TTGlyph>
    <TTGlyph name="Ecircumflex" xMin="108" yMin="-4" xMax="531" yMax="927">
      <contour>
        <pt x="200" y="797" on="1"/>
        <pt x="332" y="927" on="1"/>
        <pt x="352" y="927" on="1"/>
        <pt x="472" y="797" on="1"/>
        <pt x="454" y="797" on="1"/>
        <pt x="342" y="912" on="1"/>
        <pt x="218" y="797" on="1"/>
      </contour>
      <contour>
        <pt x="108" y="123" on="1"/>
        <pt x="108" y="602" on="1"/>
        <pt x="108" y="671" on="0"/>
        <pt x="178" y="732" on="0"/>
        <pt x="228" y="732" on="1"/>
        <pt x="231" y="732" on="0"/>
        <pt x="234" y="732" on="1"/>
        <pt x="531" y="722" on="1"/>
        <pt x="531" y="708" on="1"/>
        <pt x="234" y="708" on="1"/>
        <pt x="132" y="708" on="0"/>
        <pt x="132" y="602" on="1"/>
        <pt x="132" y="375" on="1"/>
        <pt x="491" y="370" on="1"/>
        <pt x="491" y="356" on="1"/>
        <pt x="132" y="351" on="1"/>
        <pt x="132" y="123" on="1"/>
        <pt x="132" y="61" on="0"/>
        <pt x="192" y="21" on="0"/>
        <pt x="244" y="21" on="1"/>
        <pt x="531" y="21" on="1"/>
        <pt x="531" y="7" on="1"/>
        <pt x="245" y="-3" on="1"/>
        <pt x="239" y="-3" on="0"/>
        <pt x="213" y="-3" on="0"/>
        <pt x="174" y="4" on="0"/>
        <pt x="152" y="16" on="1"/>
        <pt x="108" y="42" on="0"/>
      </contour>
    </TTGlyph>
    <TTGlyph name="Edieresis" xMin="108" yMin="-4" xMax="531" yMax="860">
      <contour>
        <pt x="213" y="825" on="0"/>
        <pt x="179" y="825" on="0"/>
        <pt x="179" y="860" on="0"/>
        <pt x="213" y="860" on="0"/>
      </contour>
      <contour>
        <pt x="433" y="843" on="1"/>
        <pt x="433" y="860" on="0"/>
        <pt x="468" y="860" on="0"/>
        <pt x="468" y="825" on="0"/>
        <pt x="451" y="825" on="1"/>
        <pt x="444" y="825" on="0"/>
        <pt x="433" y="836" on="0"/>
      </contour>
      <contour>
        <pt x="108" y="123" on="1"/>
        <pt x="108" y="602" on="1"/>
        <pt x="108" y="671" on="0"/>
        <pt x="178" y="732" on="0"/>
        <pt x="228" y="732" on="1"/>
        <pt x="231" y="732" on="0"/>
        <pt x="234" y="732" on="1"/>
        <pt x="531" y="722" on="1"/>
        <pt x="531" y="708" on="1"/>
        <pt x="234" y="708" on="1"/>
        <pt x="132" y="708" on="0"/>
        <pt x="132" y="602" on="1"/>
        <pt x="132" y="375" on="1"/>
        <pt x="491" y="370" on="1"/>
        <pt x="491" y="356" on="1"/>
        <pt x="132" y="351" on="1"/>
        <pt x="132" y="123" on="1"/>
        <pt x="132" y="61" on="0"/>
        <pt x="192" y="21" on="0"/>
        <pt x="244" y="21" on="1"/>
        <pt x="531" y="21" on="1"/>
        <pt x="531" y="7" on="1"/>
        <pt x="245" y="-3" on="1"/>
        <pt x="239" y="-3" on="0"/>
        <pt x="213" y="-3" on="0"/>
        <pt x="174" y="4" on="0"/>
        <pt x="152" y="16" on="1"/>
        <pt x="108" y="42" on="0"/>
      </contour>
    </TTGlyph>
    <TTGlyph name="Edotaccent" xMin="108" yMin="-4" xMax="531" yMax="883">
      <contour>
        <pt x="317" y="809" on="1"/>
        <pt x="317" y="871" on="1"/>
        <pt x="317" y="883" on="0"/>
        <pt x="329" y="883" on="1"/>
        <pt x="340" y="883" on="1"/>
        <pt x="352" y="883" on="0"/>
        <pt x="352" y="871" on="1"/>
        <pt x="352" y="809" on="1"/>
        <pt x="352" y="797" on="0"/>
        <pt x="340" y="797" on="1"/>
        <pt x="329" y="797" on="1"/>
        <pt x="317" y="797" on="0"/>
      </contour>
      <contour>
        <pt x="108" y="123" on="1"/>
        <pt x="108" y="602" on="1"/>
        <pt x="108" y="671" on="0"/>
        <pt x="178" y="732" on="0"/>
        <pt x="228" y="732" on="1"/>
        <pt x="231" y="732" on="0"/>
        <pt x="234" y="732" on="1"/>
        <pt x="531" y="722" on="1"/>
        <pt x="531" y="708" on="1"/>
        <pt x="234" y="708" on="1"/>
        <pt x="132" y="708" on="0"/>
        <pt x="132" y="602" on="1"/>
        <pt x="132" y="375" on="1"/>
        <pt x="491" y="370" on="1"/>
        <pt x="491" y="356" on="1"/>
        <pt x="132" y="351" on="1"/>
        <pt x="132" y="123" on="1"/>
        <pt x="132" y="61" on="0"/>
        <pt x="192" y="21" on="0"/>
        <pt x="244" y="21" on="1"/>
        <pt x="531" y="21" on="1"/>
        <pt x="531" y="7" on="1"/>
        <pt x="245" y="-3" on="1"/>
        <pt x="239" y="-3" on="0"/>
        <pt x="213" y="-3" on="0"/>
        <pt x="174" y="4" on="0"/>
        <pt x="152" y="16" on="1"/>
        <pt x="108" y="42" on="0"/>
      </contour>
    </TTGlyph>
    <TTGlyph name="Egrave" xMin="108" yMin="-4" xMax="531" yMax="925">
      <contour>
        <pt x="200" y="925" on="1"/>
        <pt x="226" y="925" on="1"/>
        <pt x="347" y="792" on="1"/>
        <pt x="333" y="792" on="1"/>
      </contour>
      <contour>
        <pt x="108" y="123" on="1"/>
        <pt x="108" y="602" on="1"/>
        <pt x="108" y="671" on="0"/>
        <pt x="178" y="732" on="0"/>
        <pt x="228" y="732" on="1"/>
        <pt x="231" y="732" on="0"/>
        <pt x="234" y="732" on="1"/>
        <pt x="531" y="722" on="1"/>
        <pt x="531" y="708" on="1"/>
        <pt x="234" y="708" on="1"/>
        <pt x="132" y="708" on="0"/>
        <pt x="132" y="602" on="1"/>
        <pt x="132" y="375" on="1"/>
        <pt x="491" y="370" on="1"/>
        <pt x="491" y="356" on="1"/>
        <pt x="132" y="351" on="1"/>
        <pt x="132" y="123" on="1"/>
        <pt x="132" y="61" on="0"/>
        <pt x="192" y="21" on="0"/>
        <pt x="244" y="21" on="1"/>
        <pt x="531" y="21" on="1"/>
        <pt x="531" y="7" on="1"/>
        <pt x="245" y="-3" on="1"/>
        <pt x="239" y="-3" on="0"/>
        <pt x="213" y="-3" on="0"/>
        <pt x="174" y="4" on="0"/>
        <pt x="152" y="16" on="1"/>
        <pt x="108" y="42" on="0"/>
      </contour>
    </TTGlyph>
    <TTGlyph name="Emacron" xMin="108" yMin="-4" xMax="531" yMax="810">
      <contour>
        <pt x="208" y="795" on="1"/>
        <pt x="208" y="810" on="1"/>
        <pt x="460" y="810" on="1"/>
        <pt x="460" y="795" on="1"/>
      </contour>
      <contour>
        <pt x="108" y="123" on="1"/>
        <pt x="108" y="602" on="1"/>
        <pt x="108" y="671" on="0"/>
        <pt x="178" y="732" on="0"/>
        <pt x="228" y="732" on="1"/>
        <pt x="231" y="732" on="0"/>
        <pt x="234" y="732" on="1"/>
        <pt x="531" y="722" on="1"/>
        <pt x="531" y="708" on="1"/>
        <pt x="234" y="708" on="1"/>
        <pt x="132" y="708" on="0"/>
        <pt x="132" y="602" on="1"/>
        <pt x="132" y="375" on="1"/>
        <pt x="491" y="370" on="1"/>
        <pt x="491" y="356" on="1"/>
        <pt x="132" y="351" on="1"/>
        <pt x="132" y="123" on="1"/>
        <pt x="132" y="61" on="0"/>
        <pt x="192" y="21" on="0"/>
        <pt x="244" y="21" on="1"/>
        <pt x="531" y="21" on="1"/>
        <pt x="531" y="7" on="1"/>
        <pt x="245" y="-3" on="1"/>
        <pt x="239" y="-3" on="0"/>
        <pt x="213" y="-3" on="0"/>
        <pt x="174" y="4" on="0"/>
        <pt x="152" y="16" on="1"/>
        <pt x="108" y="42" on="0"/>
      </contour>
    </TTGlyph>
    <TTGlyph name="Eng" xMin="108" yMin="-257" xMax="597" yMax="732">
      <contour>
        <pt x="108" y="0" on="1"/>
        <pt x="108" y="732" on="1"/>
        <pt x="133" y="732" on="1"/>
        <pt x="573" y="48" on="1"/>
        <pt x="573" y="732" on="1"/>
        <pt x="597" y="732" on="1"/>
        <pt x="597" y="-84" on="1"/>
        <pt x="597" y="-141" on="0"/>
        <pt x="580" y="-209" on="0"/>
        <pt x="537" y="-246" on="0"/>
        <pt x="481" y="-257" on="0"/>
        <pt x="433" y="-257" on="1"/>
        <pt x="433" y="-239" on="1"/>
        <pt x="440" y="-238" on="0"/>
        <pt x="481" y="-234" on="0"/>
        <pt x="508" y="-229" on="0"/>
        <pt x="545" y="-211" on="0"/>
        <pt x="553" y="-196" on="1"/>
        <pt x="573" y="-158" on="0"/>
        <pt x="573" y="-85" on="1"/>
        <pt x="573" y="0" on="1"/>
        <pt x="133" y="684" on="1"/>
        <pt x="133" y="0" on="1"/>
      </contour>
    </TTGlyph>
    <TTGlyph name="Eogonek" xMin="108" yMin="-175" xMax="563" yMax="733">
      <contour>
        <pt x="531" y="8" on="1"/>
        <pt x="499" y="-5" on="0"/>
        <pt x="456" y="-52" on="0"/>
        <pt x="456" y="-88" on="1"/>
        <pt x="456" y="-99" on="0"/>
        <pt x="472" y="-135" on="0"/>
        <pt x="524" y="-159" on="0"/>
        <pt x="558" y="-159" on="1"/>
        <pt x="561" y="-159" on="0"/>
        <pt x="563" y="-159" on="1"/>
        <pt x="563" y="-173" on="1"/>
        <pt x="553" y="-175" on="0"/>
        <pt x="521" y="-175" on="0"/>
        <pt x="470" y="-156" on="0"/>
        <pt x="455" y="-135" on="1"/>
        <pt x="437" y="-110" on="0"/>
        <pt x="437" y="-61" on="0"/>
        <pt x="476" y="-11" on="0"/>
        <pt x="519" y="8" on="1"/>
      </contour>
      <contour>
        <pt x="108" y="123" on="1"/>
        <pt x="108" y="602" on="1"/>
        <pt x="108" y="671" on="0"/>
        <pt x="178" y="732" on="0"/>
        <pt x="228" y="732" on="1"/>
        <pt x="231" y="732" on="0"/>
        <pt x="234" y="732" on="1"/>
        <pt x="531" y="722" on="1"/>
        <pt x="531" y="708" on="1"/>
        <pt x="234" y="708" on="1"/>
        <pt x="132" y="708" on="0"/>
        <pt x="132" y="602" on="1"/>
        <pt x="132" y="375" on="1"/>
        <pt x="491" y="370" on="1"/>
        <pt x="491" y="356" on="1"/>
        <pt x="132" y="351" on="1"/>
        <pt x="132" y="123" on="1"/>
        <pt x="132" y="61" on="0"/>
        <pt x="192" y="21" on="0"/>
        <pt x="244" y="21" on="1"/>
        <pt x="531" y="21" on="1"/>
        <pt x="531" y="7" on="1"/>
        <pt x="245" y="-3" on="1"/>
        <pt x="239" y="-3" on="0"/>
        <pt x="213" y="-3" on="0"/>
        <pt x="174" y="4" on="0"/>
        <pt x="152" y="16" on="1"/>
        <pt x="108" y="42" on="0"/>
      </contour>
    </TTGlyph>
    <TTGlyph name="Eth" xMin="43" yMin="0" xMax="610" yMax="732">
      <contour>
        <pt x="43" y="366" on="1"/>
        <pt x="43" y="380" on="1"/>
        <pt x="108" y="380" on="1"/>
        <pt x="108" y="732" on="1"/>
        <pt x="351" y="732" on="1"/>
        <pt x="416" y="732" on="0"/>
        <pt x="513" y="683" on="0"/>
        <pt x="567" y="609" on="0"/>
        <pt x="584" y="557" on="1"/>
        <pt x="610" y="473" on="0"/>
        <pt x="610" y="298" on="0"/>
        <pt x="580" y="174" on="0"/>
        <pt x="521" y="66" on="0"/>
        <pt x="417" y="0" on="0"/>
        <pt x="351" y="0" on="1"/>
        <pt x="108" y="0" on="1"/>
        <pt x="108" y="366" on="1"/>
      </contour>
      <contour>
        <pt x="132" y="24" on="1"/>
        <pt x="351" y="24" on="1"/>
        <pt x="411" y="24" on="0"/>
        <pt x="505" y="88" on="0"/>
        <pt x="532" y="139" on="1"/>
        <pt x="586" y="241" on="0"/>
        <pt x="586" y="364" on="1"/>
        <pt x="586" y="537" on="0"/>
        <pt x="465" y="708" on="0"/>
        <pt x="351" y="708" on="1"/>
        <pt x="132" y="708" on="1"/>
        <pt x="132" y="380" on="1"/>
        <pt x="291" y="380" on="1"/>
        <pt x="291" y="366" on="1"/>
        <pt x="132" y="366" on="1"/>
      </contour>
    </TTGlyph>
    <TTGlyph name="Euro" xMin="27" yMin="-6" xMax="568" yMax="740">
      <contour>
        <pt x="423" y="271" on="1"/>
        <pt x="270" y="271" on="1"/>
        <pt x="136" y="271" on="0"/>
        <pt x="139" y="264" on="0"/>
        <pt x="139" y="261" on="1"/>
        <pt x="139" y="161" on="0"/>
        <pt x="251" y="20" on="0"/>
        <pt x="349" y="18" on="1"/>
        <pt x="361" y="18" on="0"/>
        <pt x="386" y="18" on="1"/>
        <pt x="461" y="18" on="0"/>
        <pt x="538" y="26" on="1"/>
        <pt x="568" y="30" on="1"/>
        <pt x="568" y="15" on="1"/>
        <pt x="478" y="-6" on="0"/>
        <pt x="349" y="-6" on="1"/>
        <pt x="290" y="-6" on="0"/>
        <pt x="234" y="26" on="1"/>
        <pt x="200" y="45" on="0"/>
        <pt x="149" y="103" on="0"/>
        <pt x="115" y="204" on="0"/>
        <pt x="115" y="268" on="1"/>
        <pt x="27" y="272" on="1"/>
        <pt x="27" y="286" on="1"/>
        <pt x="115" y="289" on="1"/>
        <pt x="115" y="430" on="1"/>
        <pt x="27" y="433" on="1"/>
        <pt x="27" y="446" on="1"/>
        <pt x="115" y="450" on="1"/>
        <pt x="115" y="453" on="0"/>
        <pt x="115" y="483" on="0"/>
        <pt x="116" y="515" on="0"/>
        <pt x="125" y="581" on="0"/>
        <pt x="141" y="625" on="0"/>
        <pt x="175" y="681" on="0"/>
        <pt x="200" y="698" on="1"/>
        <pt x="258" y="740" on="0"/>
        <pt x="456" y="740" on="0"/>
        <pt x="564" y="720" on="1"/>
        <pt x="564" y="706" on="1"/>
        <pt x="414" y="716" on="0"/>
        <pt x="295" y="716" on="0"/>
        <pt x="216" y="685" on="0"/>
        <pt x="172" y="639" on="0"/>
        <pt x="159" y="602" on="1"/>
        <pt x="139" y="545" on="0"/>
        <pt x="139" y="450" on="1"/>
        <pt x="423" y="447" on="1"/>
        <pt x="423" y="433" on="1"/>
        <pt x="139" y="430" on="1"/>
        <pt x="139" y="289" on="1"/>
        <pt x="423" y="285" on="1"/>
      </contour>
    </TTGlyph>
    <TTGlyph name="Euro.smcp" xMin="22" yMin="-5" xMax="467" yMax="577">
      <contour>
        <pt x="283" y="577" on="1"/>
        <pt x="337" y="577" on="0"/>
        <pt x="464" y="554" on="1"/>
        <pt x="464" y="542" on="1"/>
        <pt x="347" y="553" on="0"/>
        <pt x="283" y="553" on="1"/>
        <pt x="114" y="553" on="0"/>
        <pt x="114" y="349" on="1"/>
        <pt x="300" y="343" on="1"/>
        <pt x="300" y="332" on="1"/>
        <pt x="114" y="327" on="1"/>
        <pt x="114" y="233" on="1"/>
        <pt x="300" y="228" on="1"/>
        <pt x="300" y="216" on="1"/>
        <pt x="288" y="216" on="0"/>
        <pt x="249" y="215" on="0"/>
        <pt x="208" y="214" on="1"/>
        <pt x="112" y="212" on="0"/>
        <pt x="114" y="210" on="1"/>
        <pt x="114" y="123" on="0"/>
        <pt x="205" y="19" on="0"/>
        <pt x="283" y="19" on="1"/>
        <pt x="355" y="19" on="0"/>
        <pt x="439" y="31" on="1"/>
        <pt x="467" y="35" on="1"/>
        <pt x="467" y="23" on="1"/>
        <pt x="369" y="-5" on="0"/>
        <pt x="199" y="-5" on="0"/>
        <pt x="90" y="103" on="0"/>
        <pt x="90" y="210" on="1"/>
        <pt x="22" y="216" on="1"/>
        <pt x="22" y="226" on="1"/>
        <pt x="90" y="233" on="1"/>
        <pt x="90" y="327" on="1"/>
        <pt x="22" y="333" on="1"/>
        <pt x="22" y="342" on="1"/>
        <pt x="90" y="349" on="1"/>
        <pt x="90" y="577" on="0"/>
      </contour>
    </TTGlyph>
    <TTGlyph name="F" xMin="108" yMin="0" xMax="531" yMax="733">
      <contour>
        <pt x="108" y="0" on="1"/>
        <pt x="108" y="602" on="1"/>
        <pt x="108" y="671" on="0"/>
        <pt x="178" y="732" on="0"/>
        <pt x="228" y="732" on="1"/>
        <pt x="231" y="732" on="0"/>
        <pt x="234" y="732" on="1"/>
        <pt x="531" y="722" on="1"/>
        <pt x="531" y="708" on="1"/>
        <pt x="234" y="708" on="1"/>
        <pt x="132" y="708" on="0"/>
        <pt x="132" y="602" on="1"/>
        <pt x="132" y="375" on="1"/>
        <pt x="491" y="370" on="1"/>
        <pt x="491" y="356" on="1"/>
        <pt x="132" y="351" on="1"/>
        <pt x="132" y="0" on="1"/>
      </contour>
    </TTGlyph>
    <TTGlyph name="G" xMin="74" yMin="-5" xMax="558" yMax="740">
      <contour>
        <pt x="79" y="228" on="0"/>
        <pt x="74" y="310" on="0"/>
        <pt x="74" y="418" on="0"/>
        <pt x="77" y="490" on="0"/>
        <pt x="88" y="571" on="0"/>
        <pt x="106" y="629" on="0"/>
        <pt x="139" y="685" on="0"/>
        <pt x="162" y="702" on="1"/>
        <pt x="212" y="740" on="0"/>
        <pt x="396" y="740" on="0"/>
        <pt x="541" y="713" on="1"/>
        <pt x="541" y="694" on="1"/>
        <pt x="498" y="700" on="1"/>
        <pt x="367" y="716" on="0"/>
        <pt x="243" y="716" on="0"/>
        <pt x="173" y="684" on="0"/>
        <pt x="131" y="629" on="0"/>
        <pt x="118" y="584" on="1"/>
        <pt x="98" y="509" on="0"/>
        <pt x="98" y="368" on="1"/>
        <pt x="98" y="176" on="0"/>
        <pt x="181" y="19" on="0"/>
        <pt x="297" y="19" on="1"/>
        <pt x="366" y="19" on="0"/>
        <pt x="492" y="56" on="1"/>
        <pt x="534" y="69" on="1"/>
        <pt x="534" y="364" on="1"/>
        <pt x="320" y="364" on="1"/>
        <pt x="320" y="378" on="1"/>
        <pt x="360" y="389" on="0"/>
        <pt x="522" y="389" on="0"/>
        <pt x="558" y="386" on="1"/>
        <pt x="558" y="0" on="1"/>
        <pt x="544" y="0" on="1"/>
        <pt x="536" y="54" on="1"/>
        <pt x="504" y="37" on="0"/>
        <pt x="357" y="-5" on="0"/>
        <pt x="247" y="-5" on="0"/>
        <pt x="171" y="19" on="0"/>
        <pt x="123" y="73" on="0"/>
        <pt x="93" y="134" on="0"/>
      </contour>
    </TTGlyph>
    <TTGlyph name="Gbreve" xMin="74" yMin="-5" xMax="558" yMax="914">
      <contour>
        <pt x="227" y="914" on="1"/>
        <pt x="241" y="914" on="1"/>
        <pt x="241" y="872" on="0"/>
        <pt x="299" y="814" on="0"/>
        <pt x="338" y="814" on="1"/>
        <pt x="384" y="814" on="0"/>
        <pt x="443" y="871" on="0"/>
        <pt x="443" y="914" on="1"/>
        <pt x="457" y="914" on="1"/>
        <pt x="457" y="861" on="0"/>
        <pt x="386" y="800" on="0"/>
        <pt x="297" y="800" on="0"/>
        <pt x="227" y="863" on="0"/>
      </contour>
      <contour>
        <pt x="79" y="228" on="0"/>
        <pt x="74" y="310" on="0"/>
        <pt x="74" y="418" on="0"/>
        <pt x="77" y="490" on="0"/>
        <pt x="88" y="571" on="0"/>
        <pt x="106" y="629" on="0"/>
        <pt x="139" y="685" on="0"/>
        <pt x="162" y="702" on="1"/>
        <pt x="212" y="740" on="0"/>
        <pt x="396" y="740" on="0"/>
        <pt x="541" y="713" on="1"/>
        <pt x="541" y="694" on="1"/>
        <pt x="498" y="700" on="1"/>
        <pt x="367" y="716" on="0"/>
        <pt x="243" y="716" on="0"/>
        <pt x="173" y="684" on="0"/>
        <pt x="131" y="629" on="0"/>
        <pt x="118" y="584" on="1"/>
        <pt x="98" y="509" on="0"/>
        <pt x="98" y="368" on="1"/>
        <pt x="98" y="176" on="0"/>
        <pt x="181" y="19" on="0"/>
        <pt x="297" y="19" on="1"/>
        <pt x="366" y="19" on="0"/>
        <pt x="492" y="56" on="1"/>
        <pt x="534" y="69" on="1"/>
        <pt x="534" y="364" on="1"/>
        <pt x="320" y="364" on="1"/>
        <pt x="320" y="378" on="1"/>
        <pt x="360" y="389" on="0"/>
        <pt x="522" y="389" on="0"/>
        <pt x="558" y="386" on="1"/>
        <pt x="558" y="0" on="1"/>
        <pt x="544" y="0" on="1"/>
        <pt x="536" y="54" on="1"/>
        <pt x="504" y="37" on="0"/>
        <pt x="357" y="-5" on="0"/>
        <pt x="247" y="-5" on="0"/>
        <pt x="171" y="19" on="0"/>
        <pt x="123" y="73" on="0"/>
        <pt x="93" y="134" on="0"/>
      </contour>
    </TTGlyph>
    <TTGlyph name="Gcircumflex" xMin="74" yMin="-5" xMax="558" yMax="930">
      <contour>
        <pt x="191" y="800" on="1"/>
        <pt x="323" y="930" on="1"/>
        <pt x="343" y="930" on="1"/>
        <pt x="463" y="800" on="1"/>
        <pt x="445" y="800" on="1"/>
        <pt x="333" y="915" on="1"/>
        <pt x="209" y="800" on="1"/>
      </contour>
      <contour>
        <pt x="79" y="228" on="0"/>
        <pt x="74" y="310" on="0"/>
        <pt x="74" y="418" on="0"/>
        <pt x="77" y="490" on="0"/>
        <pt x="88" y="571" on="0"/>
        <pt x="106" y="629" on="0"/>
        <pt x="139" y="685" on="0"/>
        <pt x="162" y="702" on="1"/>
        <pt x="212" y="740" on="0"/>
        <pt x="396" y="740" on="0"/>
        <pt x="541" y="713" on="1"/>
        <pt x="541" y="694" on="1"/>
        <pt x="498" y="700" on="1"/>
        <pt x="367" y="716" on="0"/>
        <pt x="243" y="716" on="0"/>
        <pt x="173" y="684" on="0"/>
        <pt x="131" y="629" on="0"/>
        <pt x="118" y="584" on="1"/>
        <pt x="98" y="509" on="0"/>
        <pt x="98" y="368" on="1"/>
        <pt x="98" y="176" on="0"/>
        <pt x="181" y="19" on="0"/>
        <pt x="297" y="19" on="1"/>
        <pt x="366" y="19" on="0"/>
        <pt x="492" y="56" on="1"/>
        <pt x="534" y="69" on="1"/>
        <pt x="534" y="364" on="1"/>
        <pt x="320" y="364" on="1"/>
        <pt x="320" y="378" on="1"/>
        <pt x="360" y="389" on="0"/>
        <pt x="522" y="389" on="0"/>
        <pt x="558" y="386" on="1"/>
        <pt x="558" y="0" on="1"/>
        <pt x="544" y="0" on="1"/>
        <pt x="536" y="54" on="1"/>
        <pt x="504" y="37" on="0"/>
        <pt x="357" y="-5" on="0"/>
        <pt x="247" y="-5" on="0"/>
        <pt x="171" y="19" on="0"/>
        <pt x="123" y="73" on="0"/>
        <pt x="93" y="134" on="0"/>
      </contour>
    </TTGlyph>
    <TTGlyph name="Gcommaaccent" xMin="74" yMin="-203" xMax="558" yMax="740">
      <contour>
        <pt x="346" y="-173" on="1"/>
        <pt x="346" y="-189" on="0"/>
        <pt x="332" y="-202" on="0"/>
        <pt x="324" y="-202" on="0"/>
        <pt x="317" y="-201" on="1"/>
        <pt x="317" y="-196" on="1"/>
        <pt x="331" y="-196" on="0"/>
        <pt x="331" y="-182" on="1"/>
        <pt x="331" y="-140" on="1"/>
        <pt x="326" y="-140" on="1"/>
        <pt x="315" y="-140" on="0"/>
        <pt x="315" y="-128" on="1"/>
        <pt x="315" y="-72" on="1"/>
        <pt x="315" y="-61" on="0"/>
        <pt x="326" y="-61" on="1"/>
        <pt x="335" y="-61" on="1"/>
        <pt x="346" y="-61" on="0"/>
        <pt x="346" y="-72" on="1"/>
      </contour>
      <contour>
        <pt x="79" y="228" on="0"/>
        <pt x="74" y="310" on="0"/>
        <pt x="74" y="418" on="0"/>
        <pt x="77" y="490" on="0"/>
        <pt x="88" y="571" on="0"/>
        <pt x="106" y="629" on="0"/>
        <pt x="139" y="685" on="0"/>
        <pt x="162" y="702" on="1"/>
        <pt x="212" y="740" on="0"/>
        <pt x="396" y="740" on="0"/>
        <pt x="541" y="713" on="1"/>
        <pt x="541" y="694" on="1"/>
        <pt x="498" y="700" on="1"/>
        <pt x="367" y="716" on="0"/>
        <pt x="243" y="716" on="0"/>
        <pt x="173" y="684" on="0"/>
        <pt x="131" y="629" on="0"/>
        <pt x="118" y="584" on="1"/>
        <pt x="98" y="509" on="0"/>
        <pt x="98" y="368" on="1"/>
        <pt x="98" y="176" on="0"/>
        <pt x="181" y="19" on="0"/>
        <pt x="297" y="19" on="1"/>
        <pt x="366" y="19" on="0"/>
        <pt x="492" y="56" on="1"/>
        <pt x="534" y="69" on="1"/>
        <pt x="534" y="364" on="1"/>
        <pt x="320" y="364" on="1"/>
        <pt x="320" y="378" on="1"/>
        <pt x="360" y="389" on="0"/>
        <pt x="522" y="389" on="0"/>
        <pt x="558" y="386" on="1"/>
        <pt x="558" y="0" on="1"/>
        <pt x="544" y="0" on="1"/>
        <pt x="536" y="54" on="1"/>
        <pt x="504" y="37" on="0"/>
        <pt x="357" y="-5" on="0"/>
        <pt x="247" y="-5" on="0"/>
        <pt x="171" y="19" on="0"/>
        <pt x="123" y="73" on="0"/>
        <pt x="93" y="134" on="0"/>
      </contour>
    </TTGlyph>
    <TTGlyph name="Gdotaccent" xMin="74" yMin="-5" xMax="558" yMax="886">
      <contour>
        <pt x="324" y="812" on="1"/>
        <pt x="324" y="874" on="1"/>
        <pt x="324" y="886" on="0"/>
        <pt x="336" y="886" on="1"/>
        <pt x="348" y="886" on="1"/>
        <pt x="360" y="886" on="0"/>
        <pt x="360" y="874" on="1"/>
        <pt x="360" y="812" on="1"/>
        <pt x="360" y="800" on="0"/>
        <pt x="348" y="800" on="1"/>
        <pt x="336" y="800" on="1"/>
        <pt x="324" y="800" on="0"/>
      </contour>
      <contour>
        <pt x="79" y="228" on="0"/>
        <pt x="74" y="310" on="0"/>
        <pt x="74" y="418" on="0"/>
        <pt x="77" y="490" on="0"/>
        <pt x="88" y="571" on="0"/>
        <pt x="106" y="629" on="0"/>
        <pt x="139" y="685" on="0"/>
        <pt x="162" y="702" on="1"/>
        <pt x="212" y="740" on="0"/>
        <pt x="396" y="740" on="0"/>
        <pt x="541" y="713" on="1"/>
        <pt x="541" y="694" on="1"/>
        <pt x="498" y="700" on="1"/>
        <pt x="367" y="716" on="0"/>
        <pt x="243" y="716" on="0"/>
        <pt x="173" y="684" on="0"/>
        <pt x="131" y="629" on="0"/>
        <pt x="118" y="584" on="1"/>
        <pt x="98" y="509" on="0"/>
        <pt x="98" y="368" on="1"/>
        <pt x="98" y="176" on="0"/>
        <pt x="181" y="19" on="0"/>
        <pt x="297" y="19" on="1"/>
        <pt x="366" y="19" on="0"/>
        <pt x="492" y="56" on="1"/>
        <pt x="534" y="69" on="1"/>
        <pt x="534" y="364" on="1"/>
        <pt x="320" y="364" on="1"/>
        <pt x="320" y="378" on="1"/>
        <pt x="360" y="389" on="0"/>
        <pt x="522" y="389" on="0"/>
        <pt x="558" y="386" on="1"/>
        <pt x="558" y="0" on="1"/>
        <pt x="544" y="0" on="1"/>
        <pt x="536" y="54" on="1"/>
        <pt x="504" y="37" on="0"/>
        <pt x="357" y="-5" on="0"/>
        <pt x="247" y="-5" on="0"/>
        <pt x="171" y="19" on="0"/>
        <pt x="123" y="73" on="0"/>
        <pt x="93" y="134" on="0"/>
      </contour>
    </TTGlyph>
    <TTGlyph name="H" xMin="108" yMin="0" xMax="596" yMax="732">
      <contour>
        <pt x="108" y="0" on="1"/>
        <pt x="108" y="732" on="1"/>
        <pt x="132" y="732" on="1"/>
        <pt x="132" y="366" on="1"/>
        <pt x="572" y="366" on="1"/>
        <pt x="572" y="732" on="1"/>
        <pt x="596" y="732" on="1"/>
        <pt x="596" y="0" on="1"/>
        <pt x="572" y="0" on="1"/>
        <pt x="572" y="342" on="1"/>
        <pt x="132" y="342" on="1"/>
        <pt x="132" y="0" on="1"/>
      </contour>
    </TTGlyph>
    <TTGlyph name="Hbar" xMin="43" yMin="0" xMax="661" yMax="732">
      <contour>
        <pt x="43" y="537" on="1"/>
        <pt x="43" y="552" on="1"/>
        <pt x="108" y="552" on="1"/>
        <pt x="108" y="732" on="1"/>
        <pt x="132" y="732" on="1"/>
        <pt x="132" y="552" on="1"/>
        <pt x="572" y="552" on="1"/>
        <pt x="572" y="732" on="1"/>
        <pt x="596" y="732" on="1"/>
        <pt x="596" y="552" on="1"/>
        <pt x="661" y="552" on="1"/>
        <pt x="661" y="537" on="1"/>
        <pt x="596" y="537" on="1"/>
        <pt x="596" y="0" on="1"/>
        <pt x="572" y="0" on="1"/>
        <pt x="572" y="342" on="1"/>
        <pt x="132" y="342" on="1"/>
        <pt x="132" y="0" on="1"/>
        <pt x="108" y="0" on="1"/>
        <pt x="108" y="537" on="1"/>
      </contour>
      <contour>
        <pt x="132" y="366" on="1"/>
        <pt x="572" y="366" on="1"/>
        <pt x="572" y="537" on="1"/>
        <pt x="132" y="537" on="1"/>
      </contour>
    </TTGlyph>
    <TTGlyph name="Hcircumflex" xMin="108" yMin="0" xMax="596" yMax="927">
      <contour>
        <pt x="216" y="797" on="1"/>
        <pt x="348" y="927" on="1"/>
        <pt x="368" y="927" on="1"/>
        <pt x="488" y="797" on="1"/>
        <pt x="470" y="797" on="1"/>
        <pt x="358" y="912" on="1"/>
        <pt x="234" y="797" on="1"/>
      </contour>
      <contour>
        <pt x="108" y="0" on="1"/>
        <pt x="108" y="732" on="1"/>
        <pt x="132" y="732" on="1"/>
        <pt x="132" y="366" on="1"/>
        <pt x="572" y="366" on="1"/>
        <pt x="572" y="732" on="1"/>
        <pt x="596" y="732" on="1"/>
        <pt x="596" y="0" on="1"/>
        <pt x="572" y="0" on="1"/>
        <pt x="572" y="342" on="1"/>
        <pt x="132" y="342" on="1"/>
        <pt x="132" y="0" on="1"/>
      </contour>
    </TTGlyph>
    <TTGlyph name="I" xMin="108" yMin="0" xMax="132" yMax="732">
      <contour>
        <pt x="108" y="0" on="1"/>
        <pt x="108" y="732" on="1"/>
        <pt x="132" y="732" on="1"/>
        <pt x="132" y="0" on="1"/>
      </contour>
    </TTGlyph>
    <TTGlyph name="Iacute" xMin="108" yMin="0" xMax="260" yMax="930">
      <contour>
        <pt x="113" y="797" on="1"/>
        <pt x="234" y="930" on="1"/>
        <pt x="260" y="930" on="1"/>
        <pt x="127" y="797" on="1"/>
      </contour>
      <contour>
        <pt x="108" y="0" on="1"/>
        <pt x="108" y="732" on="1"/>
        <pt x="132" y="732" on="1"/>
        <pt x="132" y="0" on="1"/>
      </contour>
    </TTGlyph>
    <TTGlyph name="Icircumflex" xMin="-16" yMin="0" xMax="256" yMax="927">
      <contour>
        <pt x="-16" y="797" on="1"/>
        <pt x="116" y="927" on="1"/>
        <pt x="136" y="927" on="1"/>
        <pt x="256" y="797" on="1"/>
        <pt x="238" y="797" on="1"/>
        <pt x="126" y="912" on="1"/>
        <pt x="2" y="797" on="1"/>
      </contour>
      <contour>
        <pt x="108" y="0" on="1"/>
        <pt x="108" y="732" on="1"/>
        <pt x="132" y="732" on="1"/>
        <pt x="132" y="0" on="1"/>
      </contour>
    </TTGlyph>
    <TTGlyph name="Idieresis" xMin="-25" yMin="0" xMax="265" yMax="832">
      <contour>
        <pt x="-22" y="805" on="0"/>
        <pt x="-24" y="811" on="0"/>
        <pt x="-24" y="822" on="0"/>
        <pt x="-15" y="832" on="0"/>
        <pt x="0" y="832" on="0"/>
        <pt x="10" y="822" on="0"/>
        <pt x="10" y="811" on="0"/>
        <pt x="7" y="805" on="0"/>
        <pt x="3" y="800" on="0"/>
        <pt x="-4" y="797" on="0"/>
        <pt x="-11" y="797" on="0"/>
        <pt x="-18" y="800" on="0"/>
      </contour>
      <contour>
        <pt x="230" y="808" on="0"/>
        <pt x="230" y="822" on="0"/>
        <pt x="240" y="832" on="0"/>
        <pt x="255" y="832" on="0"/>
        <pt x="264" y="822" on="0"/>
        <pt x="264" y="811" on="0"/>
        <pt x="262" y="805" on="0"/>
        <pt x="260" y="802" on="1"/>
        <pt x="255" y="797" on="0"/>
        <pt x="240" y="797" on="0"/>
      </contour>
      <contour>
        <pt x="108" y="0" on="1"/>
        <pt x="108" y="732" on="1"/>
        <pt x="132" y="732" on="1"/>
        <pt x="132" y="0" on="1"/>
      </contour>
    </TTGlyph>
    <TTGlyph name="Idotaccent" xMin="102" yMin="0" xMax="138" yMax="883">
      <contour>
        <pt x="102" y="809" on="1"/>
        <pt x="102" y="871" on="1"/>
        <pt x="102" y="883" on="0"/>
        <pt x="114" y="883" on="1"/>
        <pt x="126" y="883" on="1"/>
        <pt x="138" y="883" on="0"/>
        <pt x="138" y="871" on="1"/>
        <pt x="138" y="809" on="1"/>
        <pt x="138" y="797" on="0"/>
        <pt x="126" y="797" on="1"/>
        <pt x="114" y="797" on="1"/>
        <pt x="102" y="797" on="0"/>
      </contour>
      <contour>
        <pt x="108" y="0" on="1"/>
        <pt x="108" y="732" on="1"/>
        <pt x="132" y="732" on="1"/>
        <pt x="132" y="0" on="1"/>
      </contour>
    </TTGlyph>
    <TTGlyph name="Idotaccent.smcp" xMin="107" yMin="0" xMax="142" yMax="758">
      <contour>
        <pt x="113" y="0" on="1"/>
        <pt x="113" y="570" on="1"/>
        <pt x="137" y="570" on="1"/>
        <pt x="137" y="0" on="1"/>
      </contour>
      <contour>
        <pt x="107" y="684" on="1"/>
        <pt x="107" y="746" on="1"/>
        <pt x="107" y="758" on="0"/>
        <pt x="119" y="758" on="1"/>
        <pt x="130" y="758" on="1"/>
        <pt x="142" y="758" on="0"/>
        <pt x="142" y="746" on="1"/>
        <pt x="142" y="684" on="1"/>
        <pt x="142" y="672" on="0"/>
        <pt x="130" y="672" on="1"/>
        <pt x="119" y="672" on="1"/>
        <pt x="107" y="672" on="0"/>
      </contour>
    </TTGlyph>
    <TTGlyph name="Igrave" xMin="-20" yMin="0" xMax="132" yMax="930">
      <contour>
        <pt x="-20" y="930" on="1"/>
        <pt x="6" y="930" on="1"/>
        <pt x="127" y="797" on="1"/>
        <pt x="113" y="797" on="1"/>
      </contour>
      <contour>
        <pt x="108" y="0" on="1"/>
        <pt x="108" y="732" on="1"/>
        <pt x="132" y="732" on="1"/>
        <pt x="132" y="0" on="1"/>
      </contour>
    </TTGlyph>
    <TTGlyph name="Imacron" xMin="-6" yMin="0" xMax="246" yMax="812">
      <contour>
        <pt x="-6" y="797" on="1"/>
        <pt x="-6" y="812" on="1"/>
        <pt x="246" y="812" on="1"/>
        <pt x="246" y="797" on="1"/>
      </contour>
      <contour>
        <pt x="108" y="0" on="1"/>
        <pt x="108" y="732" on="1"/>
        <pt x="132" y="732" on="1"/>
        <pt x="132" y="0" on="1"/>
      </contour>
    </TTGlyph>
    <TTGlyph name="Iogonek" xMin="32" yMin="-183" xMax="159" yMax="732">
      <contour>
        <pt x="51" y="-126" on="0"/>
        <pt x="111" y="-167" on="0"/>
        <pt x="154" y="-167" on="1"/>
        <pt x="157" y="-167" on="0"/>
        <pt x="159" y="-167" on="1"/>
        <pt x="159" y="-181" on="1"/>
        <pt x="149" y="-182" on="0"/>
        <pt x="117" y="-182" on="0"/>
        <pt x="66" y="-164" on="0"/>
        <pt x="51" y="-143" on="1"/>
        <pt x="33" y="-118" on="0"/>
        <pt x="33" y="-69" on="0"/>
        <pt x="72" y="-19" on="0"/>
        <pt x="115" y="0" on="1"/>
        <pt x="127" y="0" on="1"/>
        <pt x="87" y="-16" on="0"/>
        <pt x="51" y="-70" on="0"/>
      </contour>
      <contour>
        <pt x="108" y="0" on="1"/>
        <pt x="108" y="732" on="1"/>
        <pt x="132" y="732" on="1"/>
        <pt x="132" y="0" on="1"/>
      </contour>
    </TTGlyph>
    <TTGlyph name="Itilde" xMin="-49" yMin="0" xMax="289" yMax="886">
      <contour>
        <pt x="39" y="886" on="0"/>
        <pt x="77" y="886" on="0"/>
        <pt x="168" y="813" on="0"/>
        <pt x="183" y="813" on="1"/>
        <pt x="219" y="813" on="0"/>
        <pt x="283" y="866" on="1"/>
        <pt x="289" y="859" on="1"/>
        <pt x="269" y="839" on="0"/>
        <pt x="256" y="828" on="1"/>
        <pt x="220" y="797" on="0"/>
        <pt x="183" y="797" on="1"/>
        <pt x="161" y="797" on="0"/>
        <pt x="72" y="870" on="0"/>
        <pt x="49" y="870" on="0"/>
        <pt x="34" y="868" on="0"/>
        <pt x="18" y="861" on="0"/>
        <pt x="8" y="857" on="0"/>
        <pt x="-12" y="844" on="0"/>
        <pt x="-19" y="839" on="0"/>
        <pt x="-42" y="822" on="0"/>
        <pt x="-45" y="820" on="1"/>
        <pt x="-49" y="828" on="1"/>
        <pt x="-7" y="864" on="0"/>
      </contour>
      <contour>
        <pt x="108" y="0" on="1"/>
        <pt x="108" y="732" on="1"/>
        <pt x="132" y="732" on="1"/>
        <pt x="132" y="0" on="1"/>
      </contour>
    </TTGlyph>
    <TTGlyph name="J" xMin="47" yMin="-6" xMax="281" yMax="732">
      <contour>
        <pt x="51" y="35" on="1"/>
        <pt x="107" y="19" on="0"/>
        <pt x="151" y="19" on="0"/>
        <pt x="191" y="22" on="0"/>
        <pt x="230" y="50" on="0"/>
        <pt x="257" y="115" on="0"/>
        <pt x="257" y="165" on="1"/>
        <pt x="257" y="732" on="1"/>
        <pt x="281" y="732" on="1"/>
        <pt x="281" y="165" on="1"/>
        <pt x="281" y="56" on="0"/>
        <pt x="229" y="18" on="1"/>
        <pt x="198" y="-5" on="0"/>
        <pt x="146" y="-5" on="1"/>
        <pt x="88" y="-5" on="0"/>
        <pt x="47" y="21" on="1"/>
      </contour>
    </TTGlyph>
    <TTGlyph name="Jcircumflex" xMin="47" yMin="-6" xMax="405" yMax="927">
      <contour>
        <pt x="133" y="797" on="1"/>
        <pt x="265" y="927" on="1"/>
        <pt x="285" y="927" on="1"/>
        <pt x="405" y="797" on="1"/>
        <pt x="387" y="797" on="1"/>
        <pt x="275" y="912" on="1"/>
        <pt x="151" y="797" on="1"/>
      </contour>
      <contour>
        <pt x="51" y="35" on="1"/>
        <pt x="107" y="19" on="0"/>
        <pt x="151" y="19" on="0"/>
        <pt x="191" y="22" on="0"/>
        <pt x="230" y="50" on="0"/>
        <pt x="257" y="115" on="0"/>
        <pt x="257" y="165" on="1"/>
        <pt x="257" y="732" on="1"/>
        <pt x="281" y="732" on="1"/>
        <pt x="281" y="165" on="1"/>
        <pt x="281" y="56" on="0"/>
        <pt x="229" y="18" on="1"/>
        <pt x="198" y="-5" on="0"/>
        <pt x="146" y="-5" on="1"/>
        <pt x="88" y="-5" on="0"/>
        <pt x="47" y="21" on="1"/>
      </contour>
    </TTGlyph>
    <TTGlyph name="K" xMin="108" yMin="0" xMax="554" yMax="732">
      <contour>
        <pt x="108" y="0" on="1"/>
        <pt x="108" y="732" on="1"/>
        <pt x="132" y="732" on="1"/>
        <pt x="132" y="379" on="1"/>
        <pt x="284" y="379" on="1"/>
        <pt x="525" y="732" on="1"/>
        <pt x="554" y="732" on="1"/>
        <pt x="306" y="367" on="1"/>
        <pt x="554" y="0" on="1"/>
        <pt x="524" y="0" on="1"/>
        <pt x="283" y="355" on="1"/>
        <pt x="133" y="355" on="1"/>
        <pt x="133" y="0" on="1"/>
      </contour>
    </TTGlyph>
    <TTGlyph name="Kcommaaccent" xMin="108" yMin="-199" xMax="554" yMax="732">
      <contour>
        <pt x="336" y="-169" on="1"/>
        <pt x="336" y="-185" on="0"/>
        <pt x="322" y="-198" on="0"/>
        <pt x="314" y="-198" on="0"/>
        <pt x="307" y="-197" on="1"/>
        <pt x="307" y="-192" on="1"/>
        <pt x="321" y="-192" on="0"/>
        <pt x="321" y="-178" on="1"/>
        <pt x="321" y="-136" on="1"/>
        <pt x="316" y="-136" on="1"/>
        <pt x="305" y="-136" on="0"/>
        <pt x="305" y="-124" on="1"/>
        <pt x="305" y="-68" on="1"/>
        <pt x="305" y="-57" on="0"/>
        <pt x="316" y="-57" on="1"/>
        <pt x="325" y="-57" on="1"/>
        <pt x="336" y="-57" on="0"/>
        <pt x="336" y="-68" on="1"/>
      </contour>
      <contour>
        <pt x="108" y="0" on="1"/>
        <pt x="108" y="732" on="1"/>
        <pt x="132" y="732" on="1"/>
        <pt x="132" y="379" on="1"/>
        <pt x="284" y="379" on="1"/>
        <pt x="525" y="732" on="1"/>
        <pt x="554" y="732" on="1"/>
        <pt x="306" y="367" on="1"/>
        <pt x="554" y="0" on="1"/>
        <pt x="524" y="0" on="1"/>
        <pt x="283" y="355" on="1"/>
        <pt x="133" y="355" on="1"/>
        <pt x="133" y="0" on="1"/>
      </contour>
    </TTGlyph>
    <TTGlyph name="L" xMin="108" yMin="0" xMax="520" yMax="732">
      <contour>
        <pt x="108" y="126" on="1"/>
        <pt x="108" y="732" on="1"/>
        <pt x="132" y="732" on="1"/>
        <pt x="132" y="126" on="1"/>
        <pt x="132" y="64" on="0"/>
        <pt x="193" y="24" on="0"/>
        <pt x="244" y="24" on="1"/>
        <pt x="520" y="24" on="1"/>
        <pt x="520" y="0" on="1"/>
        <pt x="244" y="0" on="1"/>
        <pt x="187" y="0" on="0"/>
        <pt x="152" y="20" on="1"/>
        <pt x="108" y="45" on="0"/>
      </contour>
    </TTGlyph>
    <TTGlyph name="Lacute" xMin="108" yMin="0" xMax="520" yMax="925">
      <contour>
        <pt x="117" y="792" on="1"/>
        <pt x="238" y="925" on="1"/>
        <pt x="264" y="925" on="1"/>
        <pt x="131" y="792" on="1"/>
      </contour>
      <contour>
        <pt x="108" y="126" on="1"/>
        <pt x="108" y="732" on="1"/>
        <pt x="132" y="732" on="1"/>
        <pt x="132" y="126" on="1"/>
        <pt x="132" y="64" on="0"/>
        <pt x="193" y="24" on="0"/>
        <pt x="244" y="24" on="1"/>
        <pt x="520" y="24" on="1"/>
        <pt x="520" y="0" on="1"/>
        <pt x="244" y="0" on="1"/>
        <pt x="187" y="0" on="0"/>
        <pt x="152" y="20" on="1"/>
        <pt x="108" y="45" on="0"/>
      </contour>
    </TTGlyph>
    <TTGlyph name="Lcaron" xMin="108" yMin="0" xMax="520" yMax="772">
      <contour>
        <pt x="108" y="126" on="1"/>
        <pt x="108" y="732" on="1"/>
        <pt x="132" y="732" on="1"/>
        <pt x="132" y="126" on="1"/>
        <pt x="132" y="64" on="0"/>
        <pt x="193" y="24" on="0"/>
        <pt x="244" y="24" on="1"/>
        <pt x="520" y="24" on="1"/>
        <pt x="520" y="0" on="1"/>
        <pt x="244" y="0" on="1"/>
        <pt x="187" y="0" on="0"/>
        <pt x="152" y="20" on="1"/>
        <pt x="108" y="45" on="0"/>
      </contour>
      <contour>
        <pt x="217" y="772" on="1"/>
        <pt x="242" y="772" on="1"/>
        <pt x="242" y="705" on="1"/>
        <pt x="236" y="571" on="1"/>
        <pt x="224" y="571" on="1"/>
        <pt x="217" y="705" on="1"/>
      </contour>
    </TTGlyph>
    <TTGlyph name="Lcommaaccent" xMin="108" yMin="-198" xMax="520" yMax="732">
      <contour>
        <pt x="336" y="-168" on="1"/>
        <pt x="336" y="-184" on="0"/>
        <pt x="322" y="-197" on="0"/>
        <pt x="314" y="-197" on="0"/>
        <pt x="307" y="-196" on="1"/>
        <pt x="307" y="-191" on="1"/>
        <pt x="321" y="-191" on="0"/>
        <pt x="321" y="-177" on="1"/>
        <pt x="321" y="-135" on="1"/>
        <pt x="316" y="-135" on="1"/>
        <pt x="305" y="-135" on="0"/>
        <pt x="305" y="-123" on="1"/>
        <pt x="305" y="-68" on="1"/>
        <pt x="305" y="-56" on="0"/>
        <pt x="316" y="-56" on="1"/>
        <pt x="325" y="-56" on="1"/>
        <pt x="336" y="-56" on="0"/>
        <pt x="336" y="-68" on="1"/>
      </contour>
      <contour>
        <pt x="108" y="126" on="1"/>
        <pt x="108" y="732" on="1"/>
        <pt x="132" y="732" on="1"/>
        <pt x="132" y="126" on="1"/>
        <pt x="132" y="64" on="0"/>
        <pt x="193" y="24" on="0"/>
        <pt x="244" y="24" on="1"/>
        <pt x="520" y="24" on="1"/>
        <pt x="520" y="0" on="1"/>
        <pt x="244" y="0" on="1"/>
        <pt x="187" y="0" on="0"/>
        <pt x="152" y="20" on="1"/>
        <pt x="108" y="45" on="0"/>
      </contour>
    </TTGlyph>
    <TTGlyph name="Lslash" xMin="26" yMin="0" xMax="520" yMax="732">
      <contour>
        <pt x="108" y="732" on="1"/>
        <pt x="132" y="732" on="1"/>
        <pt x="132" y="427" on="1"/>
        <pt x="252" y="479" on="1"/>
        <pt x="252" y="459" on="1"/>
        <pt x="132" y="407" on="1"/>
        <pt x="132" y="126" on="1"/>
        <pt x="132" y="64" on="0"/>
        <pt x="193" y="24" on="0"/>
        <pt x="244" y="24" on="1"/>
        <pt x="520" y="24" on="1"/>
        <pt x="520" y="0" on="1"/>
        <pt x="244" y="0" on="1"/>
        <pt x="187" y="0" on="0"/>
        <pt x="152" y="20" on="1"/>
        <pt x="108" y="45" on="0"/>
        <pt x="108" y="126" on="1"/>
        <pt x="108" y="396" on="1"/>
        <pt x="26" y="360" on="1"/>
        <pt x="26" y="381" on="1"/>
        <pt x="108" y="417" on="1"/>
      </contour>
    </TTGlyph>
    <TTGlyph name="M" xMin="74" yMin="0" xMax="735" yMax="732">
      <contour>
        <pt x="74" y="0" on="1"/>
        <pt x="155" y="732" on="1"/>
        <pt x="191" y="732" on="1"/>
        <pt x="404" y="41" on="1"/>
        <pt x="613" y="732" on="1"/>
        <pt x="651" y="732" on="1"/>
        <pt x="735" y="0" on="1"/>
        <pt x="711" y="0" on="1"/>
        <pt x="630" y="703" on="1"/>
        <pt x="418" y="0" on="1"/>
        <pt x="391" y="0" on="1"/>
        <pt x="175" y="703" on="1"/>
        <pt x="98" y="0" on="1"/>
      </contour>
    </TTGlyph>
    <TTGlyph name="M.salt" xMin="74" yMin="0" xMax="747" yMax="740">
      <contour>
        <pt x="144" y="724" on="1"/>
        <pt x="164" y="740" on="0"/>
        <pt x="181" y="740" on="1"/>
        <pt x="240" y="740" on="0"/>
        <pt x="258" y="680" on="1"/>
        <pt x="380" y="270" on="1"/>
        <pt x="390" y="240" on="0"/>
        <pt x="412" y="240" on="1"/>
        <pt x="437" y="240" on="0"/>
        <pt x="445" y="270" on="1"/>
        <pt x="554" y="681" on="1"/>
        <pt x="563" y="712" on="0"/>
        <pt x="605" y="740" on="0"/>
        <pt x="629" y="740" on="0"/>
        <pt x="632" y="739" on="1"/>
        <pt x="656" y="736" on="0"/>
        <pt x="695" y="691" on="0"/>
        <pt x="698" y="654" on="1"/>
        <pt x="747" y="0" on="1"/>
        <pt x="723" y="0" on="1"/>
        <pt x="673" y="662" on="1"/>
        <pt x="671" y="693" on="0"/>
        <pt x="638" y="716" on="0"/>
        <pt x="627" y="716" on="1"/>
        <pt x="588" y="716" on="0"/>
        <pt x="577" y="673" on="1"/>
        <pt x="468" y="263" on="1"/>
        <pt x="456" y="215" on="0"/>
        <pt x="371" y="215" on="0"/>
        <pt x="356" y="263" on="1"/>
        <pt x="235" y="672" on="1"/>
        <pt x="223" y="716" on="0"/>
        <pt x="187" y="716" on="1"/>
        <pt x="173" y="716" on="0"/>
        <pt x="141" y="691" on="0"/>
        <pt x="139" y="662" on="1"/>
        <pt x="97" y="0" on="1"/>
        <pt x="74" y="0" on="1"/>
        <pt x="114" y="652" on="1"/>
        <pt x="114" y="700" on="0"/>
      </contour>
    </TTGlyph>
    <TTGlyph name="N" xMin="108" yMin="0" xMax="597" yMax="732">
      <contour>
        <pt x="108" y="0" on="1"/>
        <pt x="108" y="732" on="1"/>
        <pt x="133" y="732" on="1"/>
        <pt x="573" y="46" on="1"/>
        <pt x="573" y="732" on="1"/>
        <pt x="597" y="732" on="1"/>
        <pt x="597" y="0" on="1"/>
        <pt x="573" y="0" on="1"/>
        <pt x="132" y="686" on="1"/>
        <pt x="132" y="0" on="1"/>
      </contour>
    </TTGlyph>
    <TTGlyph name="N.salt" xMin="108" yMin="-8" xMax="623" yMax="740">
      <contour>
        <pt x="108" y="0" on="1"/>
        <pt x="108" y="652" on="1"/>
        <pt x="108" y="700" on="0"/>
        <pt x="141" y="724" on="1"/>
        <pt x="163" y="740" on="0"/>
        <pt x="181" y="740" on="1"/>
        <pt x="246" y="740" on="0"/>
        <pt x="267" y="680" on="1"/>
        <pt x="484" y="59" on="1"/>
        <pt x="498" y="16" on="0"/>
        <pt x="539" y="16" on="1"/>
        <pt x="558" y="16" on="0"/>
        <pt x="598" y="46" on="0"/>
        <pt x="599" y="77" on="1"/>
        <pt x="599" y="732" on="1"/>
        <pt x="623" y="732" on="1"/>
        <pt x="623" y="79" on="1"/>
        <pt x="623" y="34" on="0"/>
        <pt x="590" y="10" on="1"/>
        <pt x="566" y="-7" on="0"/>
        <pt x="547" y="-7" on="1"/>
        <pt x="481" y="-7" on="0"/>
        <pt x="461" y="51" on="1"/>
        <pt x="244" y="672" on="1"/>
        <pt x="229" y="714" on="0"/>
        <pt x="188" y="714" on="1"/>
        <pt x="171" y="714" on="0"/>
        <pt x="132" y="686" on="0"/>
        <pt x="132" y="650" on="1"/>
        <pt x="132" y="0" on="1"/>
      </contour>
    </TTGlyph>
    <TTGlyph name="Nacute" xMin="108" yMin="0" xMax="597" yMax="930">
      <contour>
        <pt x="352" y="797" on="1"/>
        <pt x="474" y="930" on="1"/>
        <pt x="500" y="930" on="1"/>
        <pt x="366" y="797" on="1"/>
      </contour>
      <contour>
        <pt x="108" y="0" on="1"/>
        <pt x="108" y="732" on="1"/>
        <pt x="133" y="732" on="1"/>
        <pt x="573" y="46" on="1"/>
        <pt x="573" y="732" on="1"/>
        <pt x="597" y="732" on="1"/>
        <pt x="597" y="0" on="1"/>
        <pt x="573" y="0" on="1"/>
        <pt x="132" y="686" on="1"/>
        <pt x="132" y="0" on="1"/>
      </contour>
    </TTGlyph>
    <TTGlyph name="Nacute.salt" xMin="108" yMin="-8" xMax="623" yMax="930">
      <contour>
        <pt x="370" y="797" on="1"/>
        <pt x="491" y="930" on="1"/>
        <pt x="517" y="930" on="1"/>
        <pt x="384" y="797" on="1"/>
      </contour>
      <contour>
        <pt x="108" y="0" on="1"/>
        <pt x="108" y="652" on="1"/>
        <pt x="108" y="700" on="0"/>
        <pt x="141" y="724" on="1"/>
        <pt x="163" y="740" on="0"/>
        <pt x="181" y="740" on="1"/>
        <pt x="246" y="740" on="0"/>
        <pt x="267" y="680" on="1"/>
        <pt x="484" y="59" on="1"/>
        <pt x="498" y="16" on="0"/>
        <pt x="539" y="16" on="1"/>
        <pt x="558" y="16" on="0"/>
        <pt x="598" y="46" on="0"/>
        <pt x="599" y="77" on="1"/>
        <pt x="599" y="732" on="1"/>
        <pt x="623" y="732" on="1"/>
        <pt x="623" y="79" on="1"/>
        <pt x="623" y="34" on="0"/>
        <pt x="590" y="10" on="1"/>
        <pt x="566" y="-7" on="0"/>
        <pt x="547" y="-7" on="1"/>
        <pt x="481" y="-7" on="0"/>
        <pt x="461" y="51" on="1"/>
        <pt x="244" y="672" on="1"/>
        <pt x="229" y="714" on="0"/>
        <pt x="188" y="714" on="1"/>
        <pt x="171" y="714" on="0"/>
        <pt x="132" y="686" on="0"/>
        <pt x="132" y="650" on="1"/>
        <pt x="132" y="0" on="1"/>
      </contour>
    </TTGlyph>
    <TTGlyph name="Ncaron" xMin="108" yMin="0" xMax="597" yMax="927">
      <contour>
        <pt x="216" y="927" on="1"/>
        <pt x="232" y="927" on="1"/>
        <pt x="346" y="812" on="1"/>
        <pt x="470" y="927" on="1"/>
        <pt x="488" y="927" on="1"/>
        <pt x="356" y="797" on="1"/>
        <pt x="334" y="797" on="1"/>
      </contour>
      <contour>
        <pt x="108" y="0" on="1"/>
        <pt x="108" y="732" on="1"/>
        <pt x="133" y="732" on="1"/>
        <pt x="573" y="46" on="1"/>
        <pt x="573" y="732" on="1"/>
        <pt x="597" y="732" on="1"/>
        <pt x="597" y="0" on="1"/>
        <pt x="573" y="0" on="1"/>
        <pt x="132" y="686" on="1"/>
        <pt x="132" y="0" on="1"/>
      </contour>
    </TTGlyph>
    <TTGlyph name="Ncaron.salt" xMin="108" yMin="-8" xMax="623" yMax="927">
      <contour>
        <pt x="256" y="927" on="1"/>
        <pt x="272" y="927" on="1"/>
        <pt x="385" y="812" on="1"/>
        <pt x="510" y="927" on="1"/>
        <pt x="528" y="927" on="1"/>
        <pt x="396" y="797" on="1"/>
        <pt x="374" y="797" on="1"/>
      </contour>
      <contour>
        <pt x="108" y="0" on="1"/>
        <pt x="108" y="652" on="1"/>
        <pt x="108" y="700" on="0"/>
        <pt x="141" y="724" on="1"/>
        <pt x="163" y="740" on="0"/>
        <pt x="181" y="740" on="1"/>
        <pt x="246" y="740" on="0"/>
        <pt x="267" y="680" on="1"/>
        <pt x="484" y="59" on="1"/>
        <pt x="498" y="16" on="0"/>
        <pt x="539" y="16" on="1"/>
        <pt x="558" y="16" on="0"/>
        <pt x="598" y="46" on="0"/>
        <pt x="599" y="77" on="1"/>
        <pt x="599" y="732" on="1"/>
        <pt x="623" y="732" on="1"/>
        <pt x="623" y="79" on="1"/>
        <pt x="623" y="34" on="0"/>
        <pt x="590" y="10" on="1"/>
        <pt x="566" y="-7" on="0"/>
        <pt x="547" y="-7" on="1"/>
        <pt x="481" y="-7" on="0"/>
        <pt x="461" y="51" on="1"/>
        <pt x="244" y="672" on="1"/>
        <pt x="229" y="714" on="0"/>
        <pt x="188" y="714" on="1"/>
        <pt x="171" y="714" on="0"/>
        <pt x="132" y="686" on="0"/>
        <pt x="132" y="650" on="1"/>
        <pt x="132" y="0" on="1"/>
      </contour>
    </TTGlyph>
    <TTGlyph name="Ncommaaccent" xMin="108" yMin="-203" xMax="597" yMax="732">
      <contour>
        <pt x="369" y="-173" on="1"/>
        <pt x="369" y="-189" on="0"/>
        <pt x="355" y="-202" on="0"/>
        <pt x="347" y="-202" on="0"/>
        <pt x="340" y="-201" on="1"/>
        <pt x="340" y="-196" on="1"/>
        <pt x="354" y="-196" on="0"/>
        <pt x="354" y="-182" on="1"/>
        <pt x="354" y="-140" on="1"/>
        <pt x="349" y="-140" on="1"/>
        <pt x="338" y="-140" on="0"/>
        <pt x="338" y="-128" on="1"/>
        <pt x="338" y="-72" on="1"/>
        <pt x="338" y="-61" on="0"/>
        <pt x="349" y="-61" on="1"/>
        <pt x="358" y="-61" on="1"/>
        <pt x="369" y="-61" on="0"/>
        <pt x="369" y="-72" on="1"/>
      </contour>
      <contour>
        <pt x="108" y="0" on="1"/>
        <pt x="108" y="732" on="1"/>
        <pt x="133" y="732" on="1"/>
        <pt x="573" y="46" on="1"/>
        <pt x="573" y="732" on="1"/>
        <pt x="597" y="732" on="1"/>
        <pt x="597" y="0" on="1"/>
        <pt x="573" y="0" on="1"/>
        <pt x="132" y="686" on="1"/>
        <pt x="132" y="0" on="1"/>
      </contour>
    </TTGlyph>
    <TTGlyph name="Ncommaaccent.salt" xMin="108" yMin="-204" xMax="623" yMax="740">
      <contour>
        <pt x="365" y="-174" on="1"/>
        <pt x="365" y="-190" on="0"/>
        <pt x="351" y="-203" on="0"/>
        <pt x="343" y="-203" on="0"/>
        <pt x="336" y="-202" on="1"/>
        <pt x="336" y="-197" on="1"/>
        <pt x="350" y="-197" on="0"/>
        <pt x="350" y="-183" on="1"/>
        <pt x="350" y="-141" on="1"/>
        <pt x="345" y="-141" on="1"/>
        <pt x="334" y="-141" on="0"/>
        <pt x="334" y="-129" on="1"/>
        <pt x="334" y="-74" on="1"/>
        <pt x="334" y="-62" on="0"/>
        <pt x="345" y="-62" on="1"/>
        <pt x="354" y="-62" on="1"/>
        <pt x="365" y="-62" on="0"/>
        <pt x="365" y="-74" on="1"/>
      </contour>
      <contour>
        <pt x="108" y="0" on="1"/>
        <pt x="108" y="652" on="1"/>
        <pt x="108" y="700" on="0"/>
        <pt x="141" y="724" on="1"/>
        <pt x="163" y="740" on="0"/>
        <pt x="181" y="740" on="1"/>
        <pt x="246" y="740" on="0"/>
        <pt x="267" y="680" on="1"/>
        <pt x="484" y="59" on="1"/>
        <pt x="498" y="16" on="0"/>
        <pt x="539" y="16" on="1"/>
        <pt x="558" y="16" on="0"/>
        <pt x="598" y="46" on="0"/>
        <pt x="599" y="77" on="1"/>
        <pt x="599" y="732" on="1"/>
        <pt x="623" y="732" on="1"/>
        <pt x="623" y="79" on="1"/>
        <pt x="623" y="34" on="0"/>
        <pt x="590" y="10" on="1"/>
        <pt x="566" y="-7" on="0"/>
        <pt x="547" y="-7" on="1"/>
        <pt x="481" y="-7" on="0"/>
        <pt x="461" y="51" on="1"/>
        <pt x="244" y="672" on="1"/>
        <pt x="229" y="714" on="0"/>
        <pt x="188" y="714" on="1"/>
        <pt x="171" y="714" on="0"/>
        <pt x="132" y="686" on="0"/>
        <pt x="132" y="650" on="1"/>
        <pt x="132" y="0" on="1"/>
      </contour>
    </TTGlyph>
    <TTGlyph name="Ntilde" xMin="108" yMin="0" xMax="597" yMax="886">
      <contour>
        <pt x="276" y="886" on="0"/>
        <pt x="310" y="886" on="0"/>
        <pt x="400" y="813" on="0"/>
        <pt x="433" y="813" on="0"/>
        <pt x="478" y="835" on="0"/>
        <pt x="495" y="849" on="0"/>
        <pt x="516" y="866" on="1"/>
        <pt x="522" y="859" on="1"/>
        <pt x="474" y="811" on="0"/>
        <pt x="445" y="802" on="1"/>
        <pt x="431" y="797" on="0"/>
        <pt x="393" y="797" on="0"/>
        <pt x="305" y="870" on="0"/>
        <pt x="282" y="870" on="0"/>
        <pt x="267" y="868" on="0"/>
        <pt x="250" y="861" on="0"/>
        <pt x="240" y="857" on="0"/>
        <pt x="221" y="844" on="0"/>
        <pt x="214" y="839" on="0"/>
        <pt x="190" y="822" on="0"/>
        <pt x="188" y="820" on="1"/>
        <pt x="184" y="828" on="1"/>
        <pt x="234" y="873" on="0"/>
      </contour>
      <contour>
        <pt x="108" y="0" on="1"/>
        <pt x="108" y="732" on="1"/>
        <pt x="133" y="732" on="1"/>
        <pt x="573" y="46" on="1"/>
        <pt x="573" y="732" on="1"/>
        <pt x="597" y="732" on="1"/>
        <pt x="597" y="0" on="1"/>
        <pt x="573" y="0" on="1"/>
        <pt x="132" y="686" on="1"/>
        <pt x="132" y="0" on="1"/>
      </contour>
    </TTGlyph>
    <TTGlyph name="Ntilde.salt" xMin="108" yMin="-8" xMax="623" yMax="896">
      <contour>
        <pt x="295" y="896" on="0"/>
        <pt x="333" y="896" on="0"/>
        <pt x="424" y="823" on="0"/>
        <pt x="439" y="823" on="1"/>
        <pt x="475" y="823" on="0"/>
        <pt x="539" y="876" on="1"/>
        <pt x="545" y="869" on="1"/>
        <pt x="525" y="849" on="0"/>
        <pt x="512" y="838" on="1"/>
        <pt x="476" y="807" on="0"/>
        <pt x="439" y="807" on="1"/>
        <pt x="417" y="807" on="0"/>
        <pt x="328" y="880" on="0"/>
        <pt x="305" y="880" on="0"/>
        <pt x="290" y="878" on="0"/>
        <pt x="274" y="871" on="0"/>
        <pt x="264" y="867" on="0"/>
        <pt x="244" y="854" on="0"/>
        <pt x="237" y="849" on="0"/>
        <pt x="214" y="832" on="0"/>
        <pt x="211" y="830" on="1"/>
        <pt x="207" y="838" on="1"/>
        <pt x="249" y="874" on="0"/>
      </contour>
      <contour>
        <pt x="108" y="0" on="1"/>
        <pt x="108" y="652" on="1"/>
        <pt x="108" y="700" on="0"/>
        <pt x="141" y="724" on="1"/>
        <pt x="163" y="740" on="0"/>
        <pt x="181" y="740" on="1"/>
        <pt x="246" y="740" on="0"/>
        <pt x="267" y="680" on="1"/>
        <pt x="484" y="59" on="1"/>
        <pt x="498" y="16" on="0"/>
        <pt x="539" y="16" on="1"/>
        <pt x="558" y="16" on="0"/>
        <pt x="598" y="46" on="0"/>
        <pt x="599" y="77" on="1"/>
        <pt x="599" y="732" on="1"/>
        <pt x="623" y="732" on="1"/>
        <pt x="623" y="79" on="1"/>
        <pt x="623" y="34" on="0"/>
        <pt x="590" y="10" on="1"/>
        <pt x="566" y="-7" on="0"/>
        <pt x="547" y="-7" on="1"/>
        <pt x="481" y="-7" on="0"/>
        <pt x="461" y="51" on="1"/>
        <pt x="244" y="672" on="1"/>
        <pt x="229" y="714" on="0"/>
        <pt x="188" y="714" on="1"/>
        <pt x="171" y="714" on="0"/>
        <pt x="132" y="686" on="0"/>
        <pt x="132" y="650" on="1"/>
        <pt x="132" y="0" on="1"/>
      </contour>
    </TTGlyph>
    <TTGlyph name="O" xMin="88" yMin="-4" xMax="624" yMax="737">
      <contour>
        <pt x="111" y="128" on="0"/>
        <pt x="88" y="262" on="0"/>
        <pt x="88" y="462" on="0"/>
        <pt x="112" y="601" on="0"/>
        <pt x="152" y="682" on="0"/>
        <pt x="225" y="725" on="0"/>
        <pt x="298" y="737" on="0"/>
        <pt x="404" y="737" on="0"/>
        <pt x="469" y="729" on="0"/>
        <pt x="535" y="703" on="0"/>
        <pt x="576" y="652" on="0"/>
        <pt x="592" y="611" on="1"/>
        <pt x="624" y="533" on="0"/>
        <pt x="624" y="361" on="1"/>
        <pt x="624" y="178" on="0"/>
        <pt x="582" y="93" on="1"/>
        <pt x="563" y="53" on="0"/>
        <pt x="492" y="10" on="0"/>
        <pt x="415" y="-4" on="0"/>
        <pt x="295" y="-4" on="0"/>
        <pt x="221" y="8" on="0"/>
        <pt x="149" y="49" on="0"/>
      </contour>
      <contour>
        <pt x="120" y="522" on="0"/>
        <pt x="112" y="423" on="0"/>
        <pt x="112" y="271" on="0"/>
        <pt x="130" y="151" on="0"/>
        <pt x="162" y="74" on="0"/>
        <pt x="225" y="34" on="0"/>
        <pt x="298" y="20" on="0"/>
        <pt x="426" y="20" on="0"/>
        <pt x="509" y="44" on="0"/>
        <pt x="574" y="115" on="0"/>
        <pt x="600" y="251" on="0"/>
        <pt x="600" y="441" on="0"/>
        <pt x="587" y="558" on="0"/>
        <pt x="557" y="635" on="0"/>
        <pt x="520" y="682" on="0"/>
        <pt x="459" y="706" on="0"/>
        <pt x="401" y="713" on="0"/>
        <pt x="323" y="713" on="0"/>
        <pt x="282" y="710" on="0"/>
        <pt x="230" y="701" on="0"/>
        <pt x="197" y="680" on="0"/>
        <pt x="161" y="647" on="0"/>
        <pt x="139" y="594" on="0"/>
      </contour>
    </TTGlyph>
    <TTGlyph name="OE" xMin="88" yMin="-4" xMax="992" yMax="737">
      <contour>
        <pt x="120" y="522" on="0"/>
        <pt x="112" y="423" on="0"/>
        <pt x="112" y="271" on="0"/>
        <pt x="130" y="151" on="0"/>
        <pt x="162" y="74" on="0"/>
        <pt x="225" y="34" on="0"/>
        <pt x="298" y="20" on="0"/>
        <pt x="356" y="20" on="1"/>
        <pt x="455" y="20" on="0"/>
        <pt x="555" y="75" on="0"/>
        <pt x="599" y="223" on="0"/>
        <pt x="599" y="461" on="0"/>
        <pt x="579" y="584" on="0"/>
        <pt x="545" y="660" on="0"/>
        <pt x="481" y="700" on="0"/>
        <pt x="411" y="713" on="0"/>
        <pt x="323" y="713" on="0"/>
        <pt x="282" y="710" on="0"/>
        <pt x="230" y="701" on="0"/>
        <pt x="197" y="680" on="0"/>
        <pt x="161" y="647" on="0"/>
        <pt x="139" y="594" on="0"/>
      </contour>
      <contour>
        <pt x="111" y="128" on="0"/>
        <pt x="88" y="262" on="0"/>
        <pt x="88" y="462" on="0"/>
        <pt x="112" y="601" on="0"/>
        <pt x="152" y="682" on="0"/>
        <pt x="225" y="725" on="0"/>
        <pt x="298" y="737" on="0"/>
        <pt x="407" y="737" on="0"/>
        <pt x="474" y="728" on="0"/>
        <pt x="507" y="714" on="1"/>
        <pt x="572" y="685" on="0"/>
        <pt x="599" y="593" on="1"/>
        <pt x="599" y="666" on="0"/>
        <pt x="667" y="732" on="0"/>
        <pt x="719" y="732" on="1"/>
        <pt x="722" y="732" on="0"/>
        <pt x="725" y="732" on="1"/>
        <pt x="992" y="722" on="1"/>
        <pt x="992" y="708" on="1"/>
        <pt x="725" y="708" on="1"/>
        <pt x="623" y="708" on="0"/>
        <pt x="623" y="602" on="1"/>
        <pt x="623" y="449" on="0"/>
        <pt x="624" y="375" on="1"/>
        <pt x="952" y="370" on="1"/>
        <pt x="952" y="356" on="1"/>
        <pt x="624" y="351" on="1"/>
        <pt x="623" y="123" on="1"/>
        <pt x="623" y="61" on="0"/>
        <pt x="683" y="21" on="0"/>
        <pt x="735" y="21" on="1"/>
        <pt x="992" y="21" on="1"/>
        <pt x="992" y="7" on="1"/>
        <pt x="735" y="-3" on="1"/>
        <pt x="729" y="-3" on="0"/>
        <pt x="723" y="-3" on="1"/>
        <pt x="668" y="-3" on="0"/>
        <pt x="599" y="53" on="0"/>
        <pt x="599" y="136" on="1"/>
        <pt x="572" y="52" on="0"/>
        <pt x="460" y="-4" on="0"/>
        <pt x="356" y="-4" on="1"/>
        <pt x="295" y="-4" on="0"/>
        <pt x="221" y="8" on="0"/>
        <pt x="149" y="49" on="0"/>
      </contour>
    </TTGlyph>
    <TTGlyph name="Oacute" xMin="88" yMin="-4" xMax="624" yMax="930">
      <contour>
        <pt x="349" y="797" on="1"/>
        <pt x="470" y="930" on="1"/>
        <pt x="496" y="930" on="1"/>
        <pt x="363" y="797" on="1"/>
      </contour>
      <contour>
        <pt x="111" y="128" on="0"/>
        <pt x="88" y="262" on="0"/>
        <pt x="88" y="462" on="0"/>
        <pt x="112" y="601" on="0"/>
        <pt x="152" y="682" on="0"/>
        <pt x="225" y="725" on="0"/>
        <pt x="298" y="737" on="0"/>
        <pt x="404" y="737" on="0"/>
        <pt x="469" y="729" on="0"/>
        <pt x="535" y="703" on="0"/>
        <pt x="576" y="652" on="0"/>
        <pt x="592" y="611" on="1"/>
        <pt x="624" y="533" on="0"/>
        <pt x="624" y="361" on="1"/>
        <pt x="624" y="178" on="0"/>
        <pt x="582" y="93" on="1"/>
        <pt x="563" y="53" on="0"/>
        <pt x="492" y="10" on="0"/>
        <pt x="415" y="-4" on="0"/>
        <pt x="295" y="-4" on="0"/>
        <pt x="221" y="8" on="0"/>
        <pt x="149" y="49" on="0"/>
      </contour>
      <contour>
        <pt x="120" y="522" on="0"/>
        <pt x="112" y="423" on="0"/>
        <pt x="112" y="271" on="0"/>
        <pt x="130" y="151" on="0"/>
        <pt x="162" y="74" on="0"/>
        <pt x="225" y="34" on="0"/>
        <pt x="298" y="20" on="0"/>
        <pt x="426" y="20" on="0"/>
        <pt x="509" y="44" on="0"/>
        <pt x="574" y="115" on="0"/>
        <pt x="600" y="251" on="0"/>
        <pt x="600" y="441" on="0"/>
        <pt x="587" y="558" on="0"/>
        <pt x="557" y="635" on="0"/>
        <pt x="520" y="682" on="0"/>
        <pt x="459" y="706" on="0"/>
        <pt x="401" y="713" on="0"/>
        <pt x="323" y="713" on="0"/>
        <pt x="282" y="710" on="0"/>
        <pt x="230" y="701" on="0"/>
        <pt x="197" y="680" on="0"/>
        <pt x="161" y="647" on="0"/>
        <pt x="139" y="594" on="0"/>
      </contour>
    </TTGlyph>
    <TTGlyph name="Ocircumflex" xMin="88" yMin="-4" xMax="624" yMax="927">
      <contour>
        <pt x="220" y="797" on="1"/>
        <pt x="352" y="927" on="1"/>
        <pt x="372" y="927" on="1"/>
        <pt x="492" y="797" on="1"/>
        <pt x="474" y="797" on="1"/>
        <pt x="362" y="912" on="1"/>
        <pt x="238" y="797" on="1"/>
      </contour>
      <contour>
        <pt x="111" y="128" on="0"/>
        <pt x="88" y="262" on="0"/>
        <pt x="88" y="462" on="0"/>
        <pt x="112" y="601" on="0"/>
        <pt x="152" y="682" on="0"/>
        <pt x="225" y="725" on="0"/>
        <pt x="298" y="737" on="0"/>
        <pt x="404" y="737" on="0"/>
        <pt x="469" y="729" on="0"/>
        <pt x="535" y="703" on="0"/>
        <pt x="576" y="652" on="0"/>
        <pt x="592" y="611" on="1"/>
        <pt x="624" y="533" on="0"/>
        <pt x="624" y="361" on="1"/>
        <pt x="624" y="178" on="0"/>
        <pt x="582" y="93" on="1"/>
        <pt x="563" y="53" on="0"/>
        <pt x="492" y="10" on="0"/>
        <pt x="415" y="-4" on="0"/>
        <pt x="295" y="-4" on="0"/>
        <pt x="221" y="8" on="0"/>
        <pt x="149" y="49" on="0"/>
      </contour>
      <contour>
        <pt x="120" y="522" on="0"/>
        <pt x="112" y="423" on="0"/>
        <pt x="112" y="271" on="0"/>
        <pt x="130" y="151" on="0"/>
        <pt x="162" y="74" on="0"/>
        <pt x="225" y="34" on="0"/>
        <pt x="298" y="20" on="0"/>
        <pt x="426" y="20" on="0"/>
        <pt x="509" y="44" on="0"/>
        <pt x="574" y="115" on="0"/>
        <pt x="600" y="251" on="0"/>
        <pt x="600" y="441" on="0"/>
        <pt x="587" y="558" on="0"/>
        <pt x="557" y="635" on="0"/>
        <pt x="520" y="682" on="0"/>
        <pt x="459" y="706" on="0"/>
        <pt x="401" y="713" on="0"/>
        <pt x="323" y="713" on="0"/>
        <pt x="282" y="710" on="0"/>
        <pt x="230" y="701" on="0"/>
        <pt x="197" y="680" on="0"/>
        <pt x="161" y="647" on="0"/>
        <pt x="139" y="594" on="0"/>
      </contour>
    </TTGlyph>
    <TTGlyph name="Odieresis" xMin="88" yMin="-4" xMax="624" yMax="832">
      <contour>
        <pt x="212" y="807" on="0"/>
        <pt x="212" y="822" on="0"/>
        <pt x="221" y="832" on="0"/>
        <pt x="236" y="832" on="0"/>
        <pt x="246" y="822" on="0"/>
        <pt x="246" y="810" on="0"/>
        <pt x="243" y="806" on="1"/>
        <pt x="239" y="797" on="0"/>
        <pt x="221" y="797" on="0"/>
      </contour>
      <contour>
        <pt x="466" y="808" on="0"/>
        <pt x="466" y="822" on="0"/>
        <pt x="476" y="832" on="0"/>
        <pt x="491" y="832" on="0"/>
        <pt x="500" y="822" on="0"/>
        <pt x="500" y="811" on="0"/>
        <pt x="498" y="805" on="0"/>
        <pt x="496" y="802" on="1"/>
        <pt x="491" y="797" on="0"/>
        <pt x="476" y="797" on="0"/>
      </contour>
      <contour>
        <pt x="111" y="128" on="0"/>
        <pt x="88" y="262" on="0"/>
        <pt x="88" y="462" on="0"/>
        <pt x="112" y="601" on="0"/>
        <pt x="152" y="682" on="0"/>
        <pt x="225" y="725" on="0"/>
        <pt x="298" y="737" on="0"/>
        <pt x="404" y="737" on="0"/>
        <pt x="469" y="729" on="0"/>
        <pt x="535" y="703" on="0"/>
        <pt x="576" y="652" on="0"/>
        <pt x="592" y="611" on="1"/>
        <pt x="624" y="533" on="0"/>
        <pt x="624" y="361" on="1"/>
        <pt x="624" y="178" on="0"/>
        <pt x="582" y="93" on="1"/>
        <pt x="563" y="53" on="0"/>
        <pt x="492" y="10" on="0"/>
        <pt x="415" y="-4" on="0"/>
        <pt x="295" y="-4" on="0"/>
        <pt x="221" y="8" on="0"/>
        <pt x="149" y="49" on="0"/>
      </contour>
      <contour>
        <pt x="120" y="522" on="0"/>
        <pt x="112" y="423" on="0"/>
        <pt x="112" y="271" on="0"/>
        <pt x="130" y="151" on="0"/>
        <pt x="162" y="74" on="0"/>
        <pt x="225" y="34" on="0"/>
        <pt x="298" y="20" on="0"/>
        <pt x="426" y="20" on="0"/>
        <pt x="509" y="44" on="0"/>
        <pt x="574" y="115" on="0"/>
        <pt x="600" y="251" on="0"/>
        <pt x="600" y="441" on="0"/>
        <pt x="587" y="558" on="0"/>
        <pt x="557" y="635" on="0"/>
        <pt x="520" y="682" on="0"/>
        <pt x="459" y="706" on="0"/>
        <pt x="401" y="713" on="0"/>
        <pt x="323" y="713" on="0"/>
        <pt x="282" y="710" on="0"/>
        <pt x="230" y="701" on="0"/>
        <pt x="197" y="680" on="0"/>
        <pt x="161" y="647" on="0"/>
        <pt x="139" y="594" on="0"/>
      </contour>
    </TTGlyph>
    <TTGlyph name="Ograve" xMin="88" yMin="-4" xMax="624" yMax="930">
      <contour>
        <pt x="216" y="930" on="1"/>
        <pt x="242" y="930" on="1"/>
        <pt x="363" y="797" on="1"/>
        <pt x="349" y="797" on="1"/>
      </contour>
      <contour>
        <pt x="111" y="128" on="0"/>
        <pt x="88" y="262" on="0"/>
        <pt x="88" y="462" on="0"/>
        <pt x="112" y="601" on="0"/>
        <pt x="152" y="682" on="0"/>
        <pt x="225" y="725" on="0"/>
        <pt x="298" y="737" on="0"/>
        <pt x="404" y="737" on="0"/>
        <pt x="469" y="729" on="0"/>
        <pt x="535" y="703" on="0"/>
        <pt x="576" y="652" on="0"/>
        <pt x="592" y="611" on="1"/>
        <pt x="624" y="533" on="0"/>
        <pt x="624" y="361" on="1"/>
        <pt x="624" y="178" on="0"/>
        <pt x="582" y="93" on="1"/>
        <pt x="563" y="53" on="0"/>
        <pt x="492" y="10" on="0"/>
        <pt x="415" y="-4" on="0"/>
        <pt x="295" y="-4" on="0"/>
        <pt x="221" y="8" on="0"/>
        <pt x="149" y="49" on="0"/>
      </contour>
      <contour>
        <pt x="120" y="522" on="0"/>
        <pt x="112" y="423" on="0"/>
        <pt x="112" y="271" on="0"/>
        <pt x="130" y="151" on="0"/>
        <pt x="162" y="74" on="0"/>
        <pt x="225" y="34" on="0"/>
        <pt x="298" y="20" on="0"/>
        <pt x="426" y="20" on="0"/>
        <pt x="509" y="44" on="0"/>
        <pt x="574" y="115" on="0"/>
        <pt x="600" y="251" on="0"/>
        <pt x="600" y="441" on="0"/>
        <pt x="587" y="558" on="0"/>
        <pt x="557" y="635" on="0"/>
        <pt x="520" y="682" on="0"/>
        <pt x="459" y="706" on="0"/>
        <pt x="401" y="713" on="0"/>
        <pt x="323" y="713" on="0"/>
        <pt x="282" y="710" on="0"/>
        <pt x="230" y="701" on="0"/>
        <pt x="197" y="680" on="0"/>
        <pt x="161" y="647" on="0"/>
        <pt x="139" y="594" on="0"/>
      </contour>
    </TTGlyph>
    <TTGlyph name="Ohungarumlaut" xMin="88" yMin="-4" xMax="624" yMax="930">
      <contour>
        <pt x="280" y="797" on="1"/>
        <pt x="400" y="930" on="1"/>
        <pt x="426" y="930" on="1"/>
        <pt x="294" y="797" on="1"/>
      </contour>
      <contour>
        <pt x="418" y="797" on="1"/>
        <pt x="540" y="930" on="1"/>
        <pt x="566" y="930" on="1"/>
        <pt x="432" y="797" on="1"/>
      </contour>
      <contour>
        <pt x="111" y="128" on="0"/>
        <pt x="88" y="262" on="0"/>
        <pt x="88" y="462" on="0"/>
        <pt x="112" y="601" on="0"/>
        <pt x="152" y="682" on="0"/>
        <pt x="225" y="725" on="0"/>
        <pt x="298" y="737" on="0"/>
        <pt x="404" y="737" on="0"/>
        <pt x="469" y="729" on="0"/>
        <pt x="535" y="703" on="0"/>
        <pt x="576" y="652" on="0"/>
        <pt x="592" y="611" on="1"/>
        <pt x="624" y="533" on="0"/>
        <pt x="624" y="361" on="1"/>
        <pt x="624" y="178" on="0"/>
        <pt x="582" y="93" on="1"/>
        <pt x="563" y="53" on="0"/>
        <pt x="492" y="10" on="0"/>
        <pt x="415" y="-4" on="0"/>
        <pt x="295" y="-4" on="0"/>
        <pt x="221" y="8" on="0"/>
        <pt x="149" y="49" on="0"/>
      </contour>
      <contour>
        <pt x="120" y="522" on="0"/>
        <pt x="112" y="423" on="0"/>
        <pt x="112" y="271" on="0"/>
        <pt x="130" y="151" on="0"/>
        <pt x="162" y="74" on="0"/>
        <pt x="225" y="34" on="0"/>
        <pt x="298" y="20" on="0"/>
        <pt x="426" y="20" on="0"/>
        <pt x="509" y="44" on="0"/>
        <pt x="574" y="115" on="0"/>
        <pt x="600" y="251" on="0"/>
        <pt x="600" y="441" on="0"/>
        <pt x="587" y="558" on="0"/>
        <pt x="557" y="635" on="0"/>
        <pt x="520" y="682" on="0"/>
        <pt x="459" y="706" on="0"/>
        <pt x="401" y="713" on="0"/>
        <pt x="323" y="713" on="0"/>
        <pt x="282" y="710" on="0"/>
        <pt x="230" y="701" on="0"/>
        <pt x="197" y="680" on="0"/>
        <pt x="161" y="647" on="0"/>
        <pt x="139" y="594" on="0"/>
      </contour>
    </TTGlyph>
    <TTGlyph name="Omacron" xMin="88" yMin="-4" xMax="624" yMax="812">
      <contour>
        <pt x="230" y="797" on="1"/>
        <pt x="230" y="812" on="1"/>
        <pt x="482" y="812" on="1"/>
        <pt x="482" y="797" on="1"/>
      </contour>
      <contour>
        <pt x="111" y="128" on="0"/>
        <pt x="88" y="262" on="0"/>
        <pt x="88" y="462" on="0"/>
        <pt x="112" y="601" on="0"/>
        <pt x="152" y="682" on="0"/>
        <pt x="225" y="725" on="0"/>
        <pt x="298" y="737" on="0"/>
        <pt x="404" y="737" on="0"/>
        <pt x="469" y="729" on="0"/>
        <pt x="535" y="703" on="0"/>
        <pt x="576" y="652" on="0"/>
        <pt x="592" y="611" on="1"/>
        <pt x="624" y="533" on="0"/>
        <pt x="624" y="361" on="1"/>
        <pt x="624" y="178" on="0"/>
        <pt x="582" y="93" on="1"/>
        <pt x="563" y="53" on="0"/>
        <pt x="492" y="10" on="0"/>
        <pt x="415" y="-4" on="0"/>
        <pt x="295" y="-4" on="0"/>
        <pt x="221" y="8" on="0"/>
        <pt x="149" y="49" on="0"/>
      </contour>
      <contour>
        <pt x="120" y="522" on="0"/>
        <pt x="112" y="423" on="0"/>
        <pt x="112" y="271" on="0"/>
        <pt x="130" y="151" on="0"/>
        <pt x="162" y="74" on="0"/>
        <pt x="225" y="34" on="0"/>
        <pt x="298" y="20" on="0"/>
        <pt x="426" y="20" on="0"/>
        <pt x="509" y="44" on="0"/>
        <pt x="574" y="115" on="0"/>
        <pt x="600" y="251" on="0"/>
        <pt x="600" y="441" on="0"/>
        <pt x="587" y="558" on="0"/>
        <pt x="557" y="635" on="0"/>
        <pt x="520" y="682" on="0"/>
        <pt x="459" y="706" on="0"/>
        <pt x="401" y="713" on="0"/>
        <pt x="323" y="713" on="0"/>
        <pt x="282" y="710" on="0"/>
        <pt x="230" y="701" on="0"/>
        <pt x="197" y="680" on="0"/>
        <pt x="161" y="647" on="0"/>
        <pt x="139" y="594" on="0"/>
      </contour>
    </TTGlyph>
    <TTGlyph name="Omega" xMin="86" yMin="0" xMax="705" yMax="739">
      <contour>
        <pt x="98" y="261" on="0"/>
        <pt x="86" y="339" on="0"/>
        <pt x="86" y="439" on="0"/>
        <pt x="100" y="529" on="0"/>
        <pt x="140" y="626" on="0"/>
        <pt x="206" y="695" on="0"/>
        <pt x="321" y="739" on="0"/>
        <pt x="396" y="739" on="1"/>
        <pt x="700" y="739" on="0"/>
        <pt x="700" y="383" on="1"/>
        <pt x="700" y="286" on="0"/>
        <pt x="609" y="87" on="0"/>
        <pt x="517" y="23" on="1"/>
        <pt x="705" y="12" on="1"/>
        <pt x="705" y="0" on="1"/>
        <pt x="477" y="0" on="1"/>
        <pt x="477" y="24" on="1"/>
        <pt x="579" y="91" on="0"/>
        <pt x="676" y="280" on="0"/>
        <pt x="676" y="385" on="1"/>
        <pt x="676" y="525" on="0"/>
        <pt x="622" y="614" on="1"/>
        <pt x="559" y="715" on="0"/>
        <pt x="396" y="715" on="1"/>
        <pt x="231" y="715" on="0"/>
        <pt x="168" y="615" on="1"/>
        <pt x="110" y="525" on="0"/>
        <pt x="110" y="380" on="1"/>
        <pt x="110" y="269" on="0"/>
        <pt x="200" y="112" on="0"/>
        <pt x="312" y="24" on="1"/>
        <pt x="312" y="0" on="1"/>
        <pt x="92" y="0" on="1"/>
        <pt x="92" y="12" on="1"/>
        <pt x="275" y="24" on="1"/>
        <pt x="154" y="115" on="0"/>
        <pt x="116" y="213" on="1"/>
      </contour>
    </TTGlyph>
    <TTGlyph name="Oslash" xMin="88" yMin="-4" xMax="624" yMax="737">
      <contour>
        <pt x="132" y="642" on="1"/>
        <pt x="152" y="682" on="0"/>
        <pt x="225" y="725" on="0"/>
        <pt x="298" y="737" on="0"/>
        <pt x="427" y="737" on="0"/>
        <pt x="520" y="715" on="0"/>
        <pt x="551" y="682" on="1"/>
        <pt x="583" y="732" on="1"/>
        <pt x="601" y="732" on="1"/>
        <pt x="561" y="670" on="1"/>
        <pt x="624" y="589" on="0"/>
        <pt x="624" y="361" on="1"/>
        <pt x="624" y="178" on="0"/>
        <pt x="582" y="93" on="1"/>
        <pt x="563" y="53" on="0"/>
        <pt x="492" y="10" on="0"/>
        <pt x="415" y="-4" on="0"/>
        <pt x="283" y="-4" on="0"/>
        <pt x="192" y="16" on="0"/>
        <pt x="161" y="47" on="1"/>
        <pt x="130" y="0" on="1"/>
        <pt x="112" y="0" on="1"/>
        <pt x="150" y="59" on="1"/>
        <pt x="88" y="136" on="0"/>
        <pt x="88" y="552" on="0"/>
      </contour>
      <contour>
        <pt x="112" y="361" on="1"/>
        <pt x="112" y="152" on="0"/>
        <pt x="165" y="82" on="1"/>
        <pt x="537" y="660" on="1"/>
        <pt x="509" y="692" on="0"/>
        <pt x="423" y="713" on="0"/>
        <pt x="323" y="713" on="0"/>
        <pt x="282" y="710" on="0"/>
        <pt x="230" y="701" on="0"/>
        <pt x="197" y="680" on="0"/>
        <pt x="161" y="647" on="0"/>
        <pt x="139" y="594" on="0"/>
        <pt x="130" y="558" on="1"/>
        <pt x="112" y="492" on="0"/>
      </contour>
      <contour>
        <pt x="203" y="42" on="0"/>
        <pt x="288" y="20" on="0"/>
        <pt x="426" y="20" on="0"/>
        <pt x="509" y="44" on="0"/>
        <pt x="574" y="115" on="0"/>
        <pt x="600" y="251" on="0"/>
        <pt x="600" y="361" on="1"/>
        <pt x="600" y="571" on="0"/>
        <pt x="547" y="647" on="1"/>
        <pt x="175" y="70" on="1"/>
      </contour>
    </TTGlyph>
    <TTGlyph name="Otilde" xMin="88" yMin="-4" xMax="624" yMax="886">
      <contour>
        <pt x="275" y="886" on="0"/>
        <pt x="313" y="886" on="0"/>
        <pt x="404" y="813" on="0"/>
        <pt x="419" y="813" on="1"/>
        <pt x="455" y="813" on="0"/>
        <pt x="519" y="866" on="1"/>
        <pt x="525" y="859" on="1"/>
        <pt x="505" y="839" on="0"/>
        <pt x="492" y="828" on="1"/>
        <pt x="456" y="797" on="0"/>
        <pt x="419" y="797" on="1"/>
        <pt x="397" y="797" on="0"/>
        <pt x="308" y="870" on="0"/>
        <pt x="285" y="870" on="0"/>
        <pt x="270" y="868" on="0"/>
        <pt x="254" y="861" on="0"/>
        <pt x="244" y="857" on="0"/>
        <pt x="224" y="844" on="0"/>
        <pt x="217" y="839" on="0"/>
        <pt x="194" y="822" on="0"/>
        <pt x="191" y="820" on="1"/>
        <pt x="187" y="828" on="1"/>
        <pt x="229" y="864" on="0"/>
      </contour>
      <contour>
        <pt x="111" y="128" on="0"/>
        <pt x="88" y="262" on="0"/>
        <pt x="88" y="462" on="0"/>
        <pt x="112" y="601" on="0"/>
        <pt x="152" y="682" on="0"/>
        <pt x="225" y="725" on="0"/>
        <pt x="298" y="737" on="0"/>
        <pt x="404" y="737" on="0"/>
        <pt x="469" y="729" on="0"/>
        <pt x="535" y="703" on="0"/>
        <pt x="576" y="652" on="0"/>
        <pt x="592" y="611" on="1"/>
        <pt x="624" y="533" on="0"/>
        <pt x="624" y="361" on="1"/>
        <pt x="624" y="178" on="0"/>
        <pt x="582" y="93" on="1"/>
        <pt x="563" y="53" on="0"/>
        <pt x="492" y="10" on="0"/>
        <pt x="415" y="-4" on="0"/>
        <pt x="295" y="-4" on="0"/>
        <pt x="221" y="8" on="0"/>
        <pt x="149" y="49" on="0"/>
      </contour>
      <contour>
        <pt x="120" y="522" on="0"/>
        <pt x="112" y="423" on="0"/>
        <pt x="112" y="271" on="0"/>
        <pt x="130" y="151" on="0"/>
        <pt x="162" y="74" on="0"/>
        <pt x="225" y="34" on="0"/>
        <pt x="298" y="20" on="0"/>
        <pt x="426" y="20" on="0"/>
        <pt x="509" y="44" on="0"/>
        <pt x="574" y="115" on="0"/>
        <pt x="600" y="251" on="0"/>
        <pt x="600" y="441" on="0"/>
        <pt x="587" y="558" on="0"/>
        <pt x="557" y="635" on="0"/>
        <pt x="520" y="682" on="0"/>
        <pt x="459" y="706" on="0"/>
        <pt x="401" y="713" on="0"/>
        <pt x="323" y="713" on="0"/>
        <pt x="282" y="710" on="0"/>
        <pt x="230" y="701" on="0"/>
        <pt x="197" y="680" on="0"/>
        <pt x="161" y="647" on="0"/>
        <pt x="139" y="594" on="0"/>
      </contour>
    </TTGlyph>
    <TTGlyph name="P" xMin="81" yMin="0" xMax="533" yMax="732">
      <contour>
        <pt x="81" y="0" on="1"/>
        <pt x="81" y="732" on="1"/>
        <pt x="357" y="732" on="1"/>
        <pt x="392" y="732" on="0"/>
        <pt x="445" y="719" on="0"/>
        <pt x="474" y="700" on="1"/>
        <pt x="533" y="660" on="0"/>
        <pt x="533" y="532" on="1"/>
        <pt x="533" y="474" on="0"/>
        <pt x="509" y="391" on="0"/>
        <pt x="477" y="349" on="0"/>
        <pt x="423" y="327" on="0"/>
        <pt x="386" y="323" on="0"/>
        <pt x="322" y="323" on="0"/>
        <pt x="108" y="331" on="0"/>
        <pt x="105" y="333" on="1"/>
        <pt x="105" y="0" on="1"/>
      </contour>
      <contour>
        <pt x="105" y="347" on="1"/>
        <pt x="357" y="347" on="1"/>
        <pt x="428" y="347" on="0"/>
        <pt x="508" y="422" on="0"/>
        <pt x="508" y="527" on="1"/>
        <pt x="508" y="657" on="0"/>
        <pt x="443" y="690" on="1"/>
        <pt x="408" y="707" on="0"/>
        <pt x="357" y="707" on="1"/>
        <pt x="105" y="707" on="1"/>
      </contour>
    </TTGlyph>
    <TTGlyph name="Q" xMin="88" yMin="-131" xMax="624" yMax="737">
      <contour>
        <pt x="111" y="128" on="0"/>
        <pt x="88" y="262" on="0"/>
        <pt x="88" y="462" on="0"/>
        <pt x="112" y="601" on="0"/>
        <pt x="152" y="682" on="0"/>
        <pt x="225" y="725" on="0"/>
        <pt x="298" y="737" on="0"/>
        <pt x="404" y="737" on="0"/>
        <pt x="469" y="729" on="0"/>
        <pt x="535" y="703" on="0"/>
        <pt x="576" y="652" on="0"/>
        <pt x="592" y="611" on="1"/>
        <pt x="624" y="533" on="0"/>
        <pt x="624" y="361" on="1"/>
        <pt x="624" y="178" on="0"/>
        <pt x="582" y="93" on="1"/>
        <pt x="563" y="53" on="0"/>
        <pt x="492" y="10" on="0"/>
        <pt x="415" y="-4" on="0"/>
        <pt x="295" y="-4" on="0"/>
        <pt x="221" y="8" on="0"/>
        <pt x="149" y="49" on="0"/>
      </contour>
      <contour>
        <pt x="120" y="522" on="0"/>
        <pt x="112" y="423" on="0"/>
        <pt x="112" y="271" on="0"/>
        <pt x="130" y="151" on="0"/>
        <pt x="162" y="74" on="0"/>
        <pt x="225" y="34" on="0"/>
        <pt x="298" y="20" on="0"/>
        <pt x="426" y="20" on="0"/>
        <pt x="509" y="44" on="0"/>
        <pt x="574" y="115" on="0"/>
        <pt x="600" y="251" on="0"/>
        <pt x="600" y="441" on="0"/>
        <pt x="587" y="558" on="0"/>
        <pt x="557" y="635" on="0"/>
        <pt x="520" y="682" on="0"/>
        <pt x="459" y="706" on="0"/>
        <pt x="401" y="713" on="0"/>
        <pt x="323" y="713" on="0"/>
        <pt x="282" y="710" on="0"/>
        <pt x="230" y="701" on="0"/>
        <pt x="197" y="680" on="0"/>
        <pt x="161" y="647" on="0"/>
        <pt x="139" y="594" on="0"/>
      </contour>
      <contour>
        <pt x="362" y="-33" on="1"/>
        <pt x="376" y="-71" on="0"/>
        <pt x="437" y="-107" on="0"/>
        <pt x="498" y="-107" on="0"/>
        <pt x="538" y="-96" on="1"/>
        <pt x="538" y="-120" on="1"/>
        <pt x="504" y="-131" on="0"/>
        <pt x="466" y="-131" on="0"/>
        <pt x="462" y="-130" on="1"/>
        <pt x="423" y="-129" on="0"/>
        <pt x="357" y="-78" on="0"/>
        <pt x="348" y="-33" on="1"/>
      </contour>
    </TTGlyph>
    <TTGlyph name="R" xMin="81" yMin="0" xMax="535" yMax="732">
      <contour>
        <pt x="81" y="0" on="1"/>
        <pt x="81" y="732" on="1"/>
        <pt x="357" y="732" on="1"/>
        <pt x="392" y="732" on="0"/>
        <pt x="445" y="719" on="0"/>
        <pt x="474" y="700" on="1"/>
        <pt x="533" y="660" on="0"/>
        <pt x="533" y="532" on="1"/>
        <pt x="533" y="399" on="0"/>
        <pt x="480" y="357" on="1"/>
        <pt x="454" y="337" on="0"/>
        <pt x="407" y="324" on="0"/>
        <pt x="374" y="323" on="1"/>
        <pt x="535" y="0" on="1"/>
        <pt x="510" y="0" on="1"/>
        <pt x="348" y="323" on="1"/>
        <pt x="114" y="327" on="0"/>
        <pt x="105" y="333" on="1"/>
        <pt x="105" y="0" on="1"/>
      </contour>
      <contour>
        <pt x="105" y="347" on="1"/>
        <pt x="357" y="347" on="1"/>
        <pt x="391" y="347" on="0"/>
        <pt x="439" y="360" on="0"/>
        <pt x="462" y="378" on="1"/>
        <pt x="508" y="417" on="0"/>
        <pt x="508" y="532" on="1"/>
        <pt x="508" y="657" on="0"/>
        <pt x="443" y="690" on="1"/>
        <pt x="408" y="707" on="0"/>
        <pt x="357" y="707" on="1"/>
        <pt x="105" y="707" on="1"/>
      </contour>
    </TTGlyph>
    <TTGlyph name="Racute" xMin="81" yMin="0" xMax="535" yMax="925">
      <contour>
        <pt x="281" y="792" on="1"/>
        <pt x="402" y="925" on="1"/>
        <pt x="428" y="925" on="1"/>
        <pt x="295" y="792" on="1"/>
      </contour>
      <contour>
        <pt x="81" y="0" on="1"/>
        <pt x="81" y="732" on="1"/>
        <pt x="357" y="732" on="1"/>
        <pt x="392" y="732" on="0"/>
        <pt x="445" y="719" on="0"/>
        <pt x="474" y="700" on="1"/>
        <pt x="533" y="660" on="0"/>
        <pt x="533" y="532" on="1"/>
        <pt x="533" y="399" on="0"/>
        <pt x="480" y="357" on="1"/>
        <pt x="454" y="337" on="0"/>
        <pt x="407" y="324" on="0"/>
        <pt x="374" y="323" on="1"/>
        <pt x="535" y="0" on="1"/>
        <pt x="510" y="0" on="1"/>
        <pt x="348" y="323" on="1"/>
        <pt x="114" y="327" on="0"/>
        <pt x="105" y="333" on="1"/>
        <pt x="105" y="0" on="1"/>
      </contour>
      <contour>
        <pt x="105" y="347" on="1"/>
        <pt x="357" y="347" on="1"/>
        <pt x="391" y="347" on="0"/>
        <pt x="439" y="360" on="0"/>
        <pt x="462" y="378" on="1"/>
        <pt x="508" y="417" on="0"/>
        <pt x="508" y="532" on="1"/>
        <pt x="508" y="657" on="0"/>
        <pt x="443" y="690" on="1"/>
        <pt x="408" y="707" on="0"/>
        <pt x="357" y="707" on="1"/>
        <pt x="105" y="707" on="1"/>
      </contour>
    </TTGlyph>
    <TTGlyph name="Rcaron" xMin="81" yMin="0" xMax="535" yMax="922">
      <contour>
        <pt x="162" y="922" on="1"/>
        <pt x="178" y="922" on="1"/>
        <pt x="291" y="807" on="1"/>
        <pt x="416" y="922" on="1"/>
        <pt x="434" y="922" on="1"/>
        <pt x="302" y="792" on="1"/>
        <pt x="280" y="792" on="1"/>
      </contour>
      <contour>
        <pt x="81" y="0" on="1"/>
        <pt x="81" y="732" on="1"/>
        <pt x="357" y="732" on="1"/>
        <pt x="392" y="732" on="0"/>
        <pt x="445" y="719" on="0"/>
        <pt x="474" y="700" on="1"/>
        <pt x="533" y="660" on="0"/>
        <pt x="533" y="532" on="1"/>
        <pt x="533" y="399" on="0"/>
        <pt x="480" y="357" on="1"/>
        <pt x="454" y="337" on="0"/>
        <pt x="407" y="324" on="0"/>
        <pt x="374" y="323" on="1"/>
        <pt x="535" y="0" on="1"/>
        <pt x="510" y="0" on="1"/>
        <pt x="348" y="323" on="1"/>
        <pt x="114" y="327" on="0"/>
        <pt x="105" y="333" on="1"/>
        <pt x="105" y="0" on="1"/>
      </contour>
      <contour>
        <pt x="105" y="347" on="1"/>
        <pt x="357" y="347" on="1"/>
        <pt x="391" y="347" on="0"/>
        <pt x="439" y="360" on="0"/>
        <pt x="462" y="378" on="1"/>
        <pt x="508" y="417" on="0"/>
        <pt x="508" y="532" on="1"/>
        <pt x="508" y="657" on="0"/>
        <pt x="443" y="690" on="1"/>
        <pt x="408" y="707" on="0"/>
        <pt x="357" y="707" on="1"/>
        <pt x="105" y="707" on="1"/>
      </contour>
    </TTGlyph>
    <TTGlyph name="Rcommaaccent" xMin="81" yMin="-198" xMax="535" yMax="732">
      <contour>
        <pt x="306" y="-168" on="1"/>
        <pt x="306" y="-184" on="0"/>
        <pt x="292" y="-197" on="0"/>
        <pt x="284" y="-197" on="0"/>
        <pt x="277" y="-196" on="1"/>
        <pt x="277" y="-191" on="1"/>
        <pt x="291" y="-191" on="0"/>
        <pt x="291" y="-177" on="1"/>
        <pt x="291" y="-135" on="1"/>
        <pt x="286" y="-135" on="1"/>
        <pt x="275" y="-135" on="0"/>
        <pt x="275" y="-123" on="1"/>
        <pt x="275" y="-68" on="1"/>
        <pt x="275" y="-56" on="0"/>
        <pt x="286" y="-56" on="1"/>
        <pt x="295" y="-56" on="1"/>
        <pt x="306" y="-56" on="0"/>
        <pt x="306" y="-68" on="1"/>
      </contour>
      <contour>
        <pt x="81" y="0" on="1"/>
        <pt x="81" y="732" on="1"/>
        <pt x="357" y="732" on="1"/>
        <pt x="392" y="732" on="0"/>
        <pt x="445" y="719" on="0"/>
        <pt x="474" y="700" on="1"/>
        <pt x="533" y="660" on="0"/>
        <pt x="533" y="532" on="1"/>
        <pt x="533" y="399" on="0"/>
        <pt x="480" y="357" on="1"/>
        <pt x="454" y="337" on="0"/>
        <pt x="407" y="324" on="0"/>
        <pt x="374" y="323" on="1"/>
        <pt x="535" y="0" on="1"/>
        <pt x="510" y="0" on="1"/>
        <pt x="348" y="323" on="1"/>
        <pt x="114" y="327" on="0"/>
        <pt x="105" y="333" on="1"/>
        <pt x="105" y="0" on="1"/>
      </contour>
      <contour>
        <pt x="105" y="347" on="1"/>
        <pt x="357" y="347" on="1"/>
        <pt x="391" y="347" on="0"/>
        <pt x="439" y="360" on="0"/>
        <pt x="462" y="378" on="1"/>
        <pt x="508" y="417" on="0"/>
        <pt x="508" y="532" on="1"/>
        <pt x="508" y="657" on="0"/>
        <pt x="443" y="690" on="1"/>
        <pt x="408" y="707" on="0"/>
        <pt x="357" y="707" on="1"/>
        <pt x="105" y="707" on="1"/>
      </contour>
    </TTGlyph>
    <TTGlyph name="S" xMin="88" yMin="-8" xMax="535" yMax="738">
      <contour>
        <pt x="88" y="494" on="1"/>
        <pt x="88" y="560" on="1"/>
        <pt x="88" y="661" on="0"/>
        <pt x="187" y="738" on="0"/>
        <pt x="387" y="738" on="0"/>
        <pt x="503" y="719" on="1"/>
        <pt x="503" y="706" on="1"/>
        <pt x="281" y="714" on="1"/>
        <pt x="274" y="714" on="0"/>
        <pt x="268" y="714" on="1"/>
        <pt x="195" y="714" on="0"/>
        <pt x="112" y="647" on="0"/>
        <pt x="112" y="560" on="1"/>
        <pt x="112" y="494" on="1"/>
        <pt x="112" y="421" on="0"/>
        <pt x="183" y="371" on="0"/>
        <pt x="259" y="371" on="1"/>
        <pt x="373" y="371" on="1"/>
        <pt x="465" y="371" on="0"/>
        <pt x="535" y="294" on="0"/>
        <pt x="535" y="224" on="1"/>
        <pt x="535" y="156" on="1"/>
        <pt x="535" y="54" on="0"/>
        <pt x="474" y="20" on="1"/>
        <pt x="424" y="-8" on="0"/>
        <pt x="341" y="-8" on="1"/>
        <pt x="299" y="-8" on="0"/>
        <pt x="138" y="1" on="0"/>
        <pt x="106" y="7" on="1"/>
        <pt x="106" y="22" on="1"/>
        <pt x="172" y="16" on="0"/>
        <pt x="341" y="16" on="1"/>
        <pt x="420" y="16" on="0"/>
        <pt x="511" y="76" on="0"/>
        <pt x="511" y="156" on="1"/>
        <pt x="511" y="224" on="1"/>
        <pt x="511" y="289" on="0"/>
        <pt x="447" y="347" on="0"/>
        <pt x="373" y="347" on="1"/>
        <pt x="261" y="347" on="1"/>
        <pt x="151" y="347" on="0"/>
        <pt x="116" y="392" on="1"/>
        <pt x="99" y="414" on="0"/>
        <pt x="88" y="460" on="0"/>
      </contour>
    </TTGlyph>
    <TTGlyph name="Sacute" xMin="88" yMin="-8" xMax="535" yMax="931">
      <contour>
        <pt x="303" y="798" on="1"/>
        <pt x="424" y="931" on="1"/>
        <pt x="450" y="931" on="1"/>
        <pt x="317" y="798" on="1"/>
      </contour>
      <contour>
        <pt x="88" y="494" on="1"/>
        <pt x="88" y="560" on="1"/>
        <pt x="88" y="661" on="0"/>
        <pt x="187" y="738" on="0"/>
        <pt x="387" y="738" on="0"/>
        <pt x="503" y="719" on="1"/>
        <pt x="503" y="706" on="1"/>
        <pt x="281" y="714" on="1"/>
        <pt x="274" y="714" on="0"/>
        <pt x="268" y="714" on="1"/>
        <pt x="195" y="714" on="0"/>
        <pt x="112" y="647" on="0"/>
        <pt x="112" y="560" on="1"/>
        <pt x="112" y="494" on="1"/>
        <pt x="112" y="421" on="0"/>
        <pt x="183" y="371" on="0"/>
        <pt x="259" y="371" on="1"/>
        <pt x="373" y="371" on="1"/>
        <pt x="465" y="371" on="0"/>
        <pt x="535" y="294" on="0"/>
        <pt x="535" y="224" on="1"/>
        <pt x="535" y="156" on="1"/>
        <pt x="535" y="54" on="0"/>
        <pt x="474" y="20" on="1"/>
        <pt x="424" y="-8" on="0"/>
        <pt x="341" y="-8" on="1"/>
        <pt x="299" y="-8" on="0"/>
        <pt x="138" y="1" on="0"/>
        <pt x="106" y="7" on="1"/>
        <pt x="106" y="22" on="1"/>
        <pt x="172" y="16" on="0"/>
        <pt x="341" y="16" on="1"/>
        <pt x="420" y="16" on="0"/>
        <pt x="511" y="76" on="0"/>
        <pt x="511" y="156" on="1"/>
        <pt x="511" y="224" on="1"/>
        <pt x="511" y="289" on="0"/>
        <pt x="447" y="347" on="0"/>
        <pt x="373" y="347" on="1"/>
        <pt x="261" y="347" on="1"/>
        <pt x="151" y="347" on="0"/>
        <pt x="116" y="392" on="1"/>
        <pt x="99" y="414" on="0"/>
        <pt x="88" y="460" on="0"/>
      </contour>
    </TTGlyph>
    <TTGlyph name="Scaron" xMin="88" yMin="-8" xMax="535" yMax="928">
      <contour>
        <pt x="186" y="928" on="1"/>
        <pt x="202" y="928" on="1"/>
        <pt x="315" y="813" on="1"/>
        <pt x="440" y="928" on="1"/>
        <pt x="458" y="928" on="1"/>
        <pt x="326" y="798" on="1"/>
        <pt x="304" y="798" on="1"/>
      </contour>
      <contour>
        <pt x="88" y="494" on="1"/>
        <pt x="88" y="560" on="1"/>
        <pt x="88" y="661" on="0"/>
        <pt x="187" y="738" on="0"/>
        <pt x="387" y="738" on="0"/>
        <pt x="503" y="719" on="1"/>
        <pt x="503" y="706" on="1"/>
        <pt x="281" y="714" on="1"/>
        <pt x="274" y="714" on="0"/>
        <pt x="268" y="714" on="1"/>
        <pt x="195" y="714" on="0"/>
        <pt x="112" y="647" on="0"/>
        <pt x="112" y="560" on="1"/>
        <pt x="112" y="494" on="1"/>
        <pt x="112" y="421" on="0"/>
        <pt x="183" y="371" on="0"/>
        <pt x="259" y="371" on="1"/>
        <pt x="373" y="371" on="1"/>
        <pt x="465" y="371" on="0"/>
        <pt x="535" y="294" on="0"/>
        <pt x="535" y="224" on="1"/>
        <pt x="535" y="156" on="1"/>
        <pt x="535" y="54" on="0"/>
        <pt x="474" y="20" on="1"/>
        <pt x="424" y="-8" on="0"/>
        <pt x="341" y="-8" on="1"/>
        <pt x="299" y="-8" on="0"/>
        <pt x="138" y="1" on="0"/>
        <pt x="106" y="7" on="1"/>
        <pt x="106" y="22" on="1"/>
        <pt x="172" y="16" on="0"/>
        <pt x="341" y="16" on="1"/>
        <pt x="420" y="16" on="0"/>
        <pt x="511" y="76" on="0"/>
        <pt x="511" y="156" on="1"/>
        <pt x="511" y="224" on="1"/>
        <pt x="511" y="289" on="0"/>
        <pt x="447" y="347" on="0"/>
        <pt x="373" y="347" on="1"/>
        <pt x="261" y="347" on="1"/>
        <pt x="151" y="347" on="0"/>
        <pt x="116" y="392" on="1"/>
        <pt x="99" y="414" on="0"/>
        <pt x="88" y="460" on="0"/>
      </contour>
    </TTGlyph>
    <TTGlyph name="Scedilla" xMin="88" yMin="-181" xMax="535" yMax="738">
      <contour>
        <pt x="288" y="-157" on="0"/>
        <pt x="314" y="-133" on="0"/>
        <pt x="322" y="-88" on="0"/>
        <pt x="322" y="-52" on="0"/>
        <pt x="322" y="-45" on="1"/>
        <pt x="339" y="-45" on="1"/>
        <pt x="339" y="-122" on="0"/>
        <pt x="299" y="-181" on="0"/>
        <pt x="238" y="-181" on="1"/>
        <pt x="208" y="-181" on="1"/>
        <pt x="208" y="-174" on="1"/>
        <pt x="240" y="-169" on="1"/>
        <pt x="264" y="-165" on="0"/>
      </contour>
      <contour>
        <pt x="88" y="494" on="1"/>
        <pt x="88" y="560" on="1"/>
        <pt x="88" y="661" on="0"/>
        <pt x="187" y="738" on="0"/>
        <pt x="387" y="738" on="0"/>
        <pt x="503" y="719" on="1"/>
        <pt x="503" y="706" on="1"/>
        <pt x="281" y="714" on="1"/>
        <pt x="274" y="714" on="0"/>
        <pt x="268" y="714" on="1"/>
        <pt x="195" y="714" on="0"/>
        <pt x="112" y="647" on="0"/>
        <pt x="112" y="560" on="1"/>
        <pt x="112" y="494" on="1"/>
        <pt x="112" y="421" on="0"/>
        <pt x="183" y="371" on="0"/>
        <pt x="259" y="371" on="1"/>
        <pt x="373" y="371" on="1"/>
        <pt x="465" y="371" on="0"/>
        <pt x="535" y="294" on="0"/>
        <pt x="535" y="224" on="1"/>
        <pt x="535" y="156" on="1"/>
        <pt x="535" y="54" on="0"/>
        <pt x="474" y="20" on="1"/>
        <pt x="424" y="-8" on="0"/>
        <pt x="341" y="-8" on="1"/>
        <pt x="299" y="-8" on="0"/>
        <pt x="138" y="1" on="0"/>
        <pt x="106" y="7" on="1"/>
        <pt x="106" y="22" on="1"/>
        <pt x="172" y="16" on="0"/>
        <pt x="341" y="16" on="1"/>
        <pt x="420" y="16" on="0"/>
        <pt x="511" y="76" on="0"/>
        <pt x="511" y="156" on="1"/>
        <pt x="511" y="224" on="1"/>
        <pt x="511" y="289" on="0"/>
        <pt x="447" y="347" on="0"/>
        <pt x="373" y="347" on="1"/>
        <pt x="261" y="347" on="1"/>
        <pt x="151" y="347" on="0"/>
        <pt x="116" y="392" on="1"/>
        <pt x="99" y="414" on="0"/>
        <pt x="88" y="460" on="0"/>
      </contour>
    </TTGlyph>
    <TTGlyph name="Scircumflex" xMin="88" yMin="-8" xMax="535" yMax="928">
      <contour>
        <pt x="170" y="798" on="1"/>
        <pt x="302" y="928" on="1"/>
        <pt x="322" y="928" on="1"/>
        <pt x="442" y="798" on="1"/>
        <pt x="424" y="798" on="1"/>
        <pt x="312" y="913" on="1"/>
        <pt x="188" y="798" on="1"/>
      </contour>
      <contour>
        <pt x="88" y="494" on="1"/>
        <pt x="88" y="560" on="1"/>
        <pt x="88" y="661" on="0"/>
        <pt x="187" y="738" on="0"/>
        <pt x="387" y="738" on="0"/>
        <pt x="503" y="719" on="1"/>
        <pt x="503" y="706" on="1"/>
        <pt x="281" y="714" on="1"/>
        <pt x="274" y="714" on="0"/>
        <pt x="268" y="714" on="1"/>
        <pt x="195" y="714" on="0"/>
        <pt x="112" y="647" on="0"/>
        <pt x="112" y="560" on="1"/>
        <pt x="112" y="494" on="1"/>
        <pt x="112" y="421" on="0"/>
        <pt x="183" y="371" on="0"/>
        <pt x="259" y="371" on="1"/>
        <pt x="373" y="371" on="1"/>
        <pt x="465" y="371" on="0"/>
        <pt x="535" y="294" on="0"/>
        <pt x="535" y="224" on="1"/>
        <pt x="535" y="156" on="1"/>
        <pt x="535" y="54" on="0"/>
        <pt x="474" y="20" on="1"/>
        <pt x="424" y="-8" on="0"/>
        <pt x="341" y="-8" on="1"/>
        <pt x="299" y="-8" on="0"/>
        <pt x="138" y="1" on="0"/>
        <pt x="106" y="7" on="1"/>
        <pt x="106" y="22" on="1"/>
        <pt x="172" y="16" on="0"/>
        <pt x="341" y="16" on="1"/>
        <pt x="420" y="16" on="0"/>
        <pt x="511" y="76" on="0"/>
        <pt x="511" y="156" on="1"/>
        <pt x="511" y="224" on="1"/>
        <pt x="511" y="289" on="0"/>
        <pt x="447" y="347" on="0"/>
        <pt x="373" y="347" on="1"/>
        <pt x="261" y="347" on="1"/>
        <pt x="151" y="347" on="0"/>
        <pt x="116" y="392" on="1"/>
        <pt x="99" y="414" on="0"/>
        <pt x="88" y="460" on="0"/>
      </contour>
    </TTGlyph>
    <TTGlyph name="T" xMin="47" yMin="0" xMax="565" yMax="732">
      <contour>
        <pt x="47" y="708" on="1"/>
        <pt x="47" y="732" on="1"/>
        <pt x="565" y="732" on="1"/>
        <pt x="565" y="708" on="1"/>
        <pt x="315" y="708" on="1"/>
        <pt x="315" y="0" on="1"/>
        <pt x="291" y="0" on="1"/>
        <pt x="291" y="708" on="1"/>
      </contour>
    </TTGlyph>
    <TTGlyph name="Tbar" xMin="47" yMin="0" xMax="565" yMax="732">
      <contour>
        <pt x="47" y="708" on="1"/>
        <pt x="47" y="732" on="1"/>
        <pt x="565" y="732" on="1"/>
        <pt x="565" y="708" on="1"/>
        <pt x="315" y="708" on="1"/>
        <pt x="315" y="424" on="1"/>
        <pt x="465" y="424" on="1"/>
        <pt x="465" y="410" on="1"/>
        <pt x="315" y="410" on="1"/>
        <pt x="315" y="0" on="1"/>
        <pt x="291" y="0" on="1"/>
        <pt x="291" y="410" on="1"/>
        <pt x="161" y="410" on="1"/>
        <pt x="161" y="424" on="1"/>
        <pt x="291" y="424" on="1"/>
        <pt x="291" y="708" on="1"/>
      </contour>
    </TTGlyph>
    <TTGlyph name="Tcaron" xMin="47" yMin="0" xMax="565" yMax="927">
      <contour>
        <pt x="170" y="927" on="1"/>
        <pt x="186" y="927" on="1"/>
        <pt x="299" y="812" on="1"/>
        <pt x="424" y="927" on="1"/>
        <pt x="442" y="927" on="1"/>
        <pt x="310" y="797" on="1"/>
        <pt x="288" y="797" on="1"/>
      </contour>
      <contour>
        <pt x="47" y="708" on="1"/>
        <pt x="47" y="732" on="1"/>
        <pt x="565" y="732" on="1"/>
        <pt x="565" y="708" on="1"/>
        <pt x="315" y="708" on="1"/>
        <pt x="315" y="0" on="1"/>
        <pt x="291" y="0" on="1"/>
        <pt x="291" y="708" on="1"/>
      </contour>
    </TTGlyph>
    <TTGlyph name="Tcommaaccent" xMin="47" yMin="-181" xMax="565" yMax="732">
      <contour>
        <pt x="260" y="-157" on="0"/>
        <pt x="286" y="-133" on="0"/>
        <pt x="294" y="-88" on="0"/>
        <pt x="294" y="-52" on="0"/>
        <pt x="294" y="-45" on="1"/>
        <pt x="311" y="-45" on="1"/>
        <pt x="311" y="-122" on="0"/>
        <pt x="271" y="-181" on="0"/>
        <pt x="210" y="-181" on="1"/>
        <pt x="180" y="-181" on="1"/>
        <pt x="180" y="-174" on="1"/>
        <pt x="212" y="-169" on="1"/>
        <pt x="236" y="-165" on="0"/>
      </contour>
      <contour>
        <pt x="47" y="708" on="1"/>
        <pt x="47" y="732" on="1"/>
        <pt x="565" y="732" on="1"/>
        <pt x="565" y="708" on="1"/>
        <pt x="315" y="708" on="1"/>
        <pt x="315" y="0" on="1"/>
        <pt x="291" y="0" on="1"/>
        <pt x="291" y="708" on="1"/>
      </contour>
    </TTGlyph>
    <TTGlyph name="Thorn" xMin="81" yMin="0" xMax="498" yMax="729">
      <contour>
        <pt x="81" y="0" on="1"/>
        <pt x="81" y="729" on="1"/>
        <pt x="105" y="729" on="1"/>
        <pt x="105" y="588" on="1"/>
        <pt x="322" y="588" on="1"/>
        <pt x="498" y="588" on="0"/>
        <pt x="498" y="375" on="1"/>
        <pt x="498" y="215" on="0"/>
        <pt x="416" y="170" on="1"/>
        <pt x="390" y="156" on="0"/>
        <pt x="348" y="149" on="0"/>
        <pt x="322" y="149" on="1"/>
        <pt x="144" y="153" on="0"/>
        <pt x="105" y="159" on="1"/>
        <pt x="105" y="0" on="1"/>
      </contour>
      <contour>
        <pt x="105" y="173" on="1"/>
        <pt x="322" y="173" on="1"/>
        <pt x="397" y="173" on="0"/>
        <pt x="474" y="265" on="0"/>
        <pt x="474" y="377" on="1"/>
        <pt x="474" y="507" on="0"/>
        <pt x="404" y="544" on="1"/>
        <pt x="367" y="564" on="0"/>
        <pt x="322" y="564" on="1"/>
        <pt x="105" y="564" on="1"/>
      </contour>
    </TTGlyph>
    <TTGlyph name="U" xMin="108" yMin="-5" xMax="615" yMax="732">
      <contour>
        <pt x="108" y="320" on="1"/>
        <pt x="108" y="732" on="1"/>
        <pt x="132" y="732" on="1"/>
        <pt x="132" y="320" on="1"/>
        <pt x="132" y="224" on="0"/>
        <pt x="150" y="145" on="0"/>
        <pt x="162" y="101" on="0"/>
        <pt x="187" y="69" on="0"/>
        <pt x="206" y="46" on="0"/>
        <pt x="242" y="32" on="0"/>
        <pt x="266" y="23" on="0"/>
        <pt x="288" y="22" on="1"/>
        <pt x="325" y="19" on="0"/>
        <pt x="401" y="19" on="0"/>
        <pt x="449" y="24" on="0"/>
        <pt x="507" y="43" on="0"/>
        <pt x="543" y="83" on="0"/>
        <pt x="560" y="115" on="1"/>
        <pt x="591" y="176" on="0"/>
        <pt x="591" y="320" on="1"/>
        <pt x="591" y="732" on="1"/>
        <pt x="615" y="732" on="1"/>
        <pt x="615" y="320" on="1"/>
        <pt x="615" y="218" on="0"/>
        <pt x="592" y="132" on="0"/>
        <pt x="576" y="83" on="0"/>
        <pt x="547" y="49" on="0"/>
        <pt x="524" y="24" on="0"/>
        <pt x="485" y="9" on="0"/>
        <pt x="459" y="0" on="0"/>
        <pt x="436" y="-2" on="1"/>
        <pt x="403" y="-5" on="0"/>
        <pt x="266" y="-5" on="0"/>
        <pt x="227" y="10" on="1"/>
        <pt x="141" y="42" on="0"/>
        <pt x="118" y="181" on="1"/>
        <pt x="108" y="239" on="0"/>
      </contour>
    </TTGlyph>
    <TTGlyph name="Uacute" xMin="108" yMin="-5" xMax="615" yMax="930">
      <contour>
        <pt x="354" y="797" on="1"/>
        <pt x="476" y="930" on="1"/>
        <pt x="502" y="930" on="1"/>
        <pt x="368" y="797" on="1"/>
      </contour>
      <contour>
        <pt x="108" y="320" on="1"/>
        <pt x="108" y="732" on="1"/>
        <pt x="132" y="732" on="1"/>
        <pt x="132" y="320" on="1"/>
        <pt x="132" y="224" on="0"/>
        <pt x="150" y="145" on="0"/>
        <pt x="162" y="101" on="0"/>
        <pt x="187" y="69" on="0"/>
        <pt x="206" y="46" on="0"/>
        <pt x="242" y="32" on="0"/>
        <pt x="266" y="23" on="0"/>
        <pt x="288" y="22" on="1"/>
        <pt x="325" y="19" on="0"/>
        <pt x="401" y="19" on="0"/>
        <pt x="449" y="24" on="0"/>
        <pt x="507" y="43" on="0"/>
        <pt x="543" y="83" on="0"/>
        <pt x="560" y="115" on="1"/>
        <pt x="591" y="176" on="0"/>
        <pt x="591" y="320" on="1"/>
        <pt x="591" y="732" on="1"/>
        <pt x="615" y="732" on="1"/>
        <pt x="615" y="320" on="1"/>
        <pt x="615" y="218" on="0"/>
        <pt x="592" y="132" on="0"/>
        <pt x="576" y="83" on="0"/>
        <pt x="547" y="49" on="0"/>
        <pt x="524" y="24" on="0"/>
        <pt x="485" y="9" on="0"/>
        <pt x="459" y="0" on="0"/>
        <pt x="436" y="-2" on="1"/>
        <pt x="403" y="-5" on="0"/>
        <pt x="266" y="-5" on="0"/>
        <pt x="227" y="10" on="1"/>
        <pt x="141" y="42" on="0"/>
        <pt x="118" y="181" on="1"/>
        <pt x="108" y="239" on="0"/>
      </contour>
    </TTGlyph>
    <TTGlyph name="Ubreve" xMin="108" yMin="-5" xMax="615" yMax="911">
      <contour>
        <pt x="246" y="911" on="1"/>
        <pt x="260" y="911" on="1"/>
        <pt x="260" y="883" on="0"/>
        <pt x="288" y="837" on="0"/>
        <pt x="333" y="811" on="0"/>
        <pt x="359" y="811" on="1"/>
        <pt x="404" y="811" on="0"/>
        <pt x="462" y="868" on="0"/>
        <pt x="462" y="911" on="1"/>
        <pt x="476" y="911" on="1"/>
        <pt x="476" y="848" on="0"/>
        <pt x="425" y="815" on="1"/>
        <pt x="396" y="797" on="0"/>
        <pt x="316" y="797" on="0"/>
        <pt x="246" y="860" on="0"/>
      </contour>
      <contour>
        <pt x="108" y="320" on="1"/>
        <pt x="108" y="732" on="1"/>
        <pt x="132" y="732" on="1"/>
        <pt x="132" y="320" on="1"/>
        <pt x="132" y="224" on="0"/>
        <pt x="150" y="145" on="0"/>
        <pt x="162" y="101" on="0"/>
        <pt x="187" y="69" on="0"/>
        <pt x="206" y="46" on="0"/>
        <pt x="242" y="32" on="0"/>
        <pt x="266" y="23" on="0"/>
        <pt x="288" y="22" on="1"/>
        <pt x="325" y="19" on="0"/>
        <pt x="401" y="19" on="0"/>
        <pt x="449" y="24" on="0"/>
        <pt x="507" y="43" on="0"/>
        <pt x="543" y="83" on="0"/>
        <pt x="560" y="115" on="1"/>
        <pt x="591" y="176" on="0"/>
        <pt x="591" y="320" on="1"/>
        <pt x="591" y="732" on="1"/>
        <pt x="615" y="732" on="1"/>
        <pt x="615" y="320" on="1"/>
        <pt x="615" y="218" on="0"/>
        <pt x="592" y="132" on="0"/>
        <pt x="576" y="83" on="0"/>
        <pt x="547" y="49" on="0"/>
        <pt x="524" y="24" on="0"/>
        <pt x="485" y="9" on="0"/>
        <pt x="459" y="0" on="0"/>
        <pt x="436" y="-2" on="1"/>
        <pt x="403" y="-5" on="0"/>
        <pt x="266" y="-5" on="0"/>
        <pt x="227" y="10" on="1"/>
        <pt x="141" y="42" on="0"/>
        <pt x="118" y="181" on="1"/>
        <pt x="108" y="239" on="0"/>
      </contour>
    </TTGlyph>
    <TTGlyph name="Ucircumflex" xMin="108" yMin="-5" xMax="615" yMax="927">
      <contour>
        <pt x="226" y="797" on="1"/>
        <pt x="358" y="927" on="1"/>
        <pt x="378" y="927" on="1"/>
        <pt x="498" y="797" on="1"/>
        <pt x="480" y="797" on="1"/>
        <pt x="368" y="912" on="1"/>
        <pt x="244" y="797" on="1"/>
      </contour>
      <contour>
        <pt x="108" y="320" on="1"/>
        <pt x="108" y="732" on="1"/>
        <pt x="132" y="732" on="1"/>
        <pt x="132" y="320" on="1"/>
        <pt x="132" y="224" on="0"/>
        <pt x="150" y="145" on="0"/>
        <pt x="162" y="101" on="0"/>
        <pt x="187" y="69" on="0"/>
        <pt x="206" y="46" on="0"/>
        <pt x="242" y="32" on="0"/>
        <pt x="266" y="23" on="0"/>
        <pt x="288" y="22" on="1"/>
        <pt x="325" y="19" on="0"/>
        <pt x="401" y="19" on="0"/>
        <pt x="449" y="24" on="0"/>
        <pt x="507" y="43" on="0"/>
        <pt x="543" y="83" on="0"/>
        <pt x="560" y="115" on="1"/>
        <pt x="591" y="176" on="0"/>
        <pt x="591" y="320" on="1"/>
        <pt x="591" y="732" on="1"/>
        <pt x="615" y="732" on="1"/>
        <pt x="615" y="320" on="1"/>
        <pt x="615" y="218" on="0"/>
        <pt x="592" y="132" on="0"/>
        <pt x="576" y="83" on="0"/>
        <pt x="547" y="49" on="0"/>
        <pt x="524" y="24" on="0"/>
        <pt x="485" y="9" on="0"/>
        <pt x="459" y="0" on="0"/>
        <pt x="436" y="-2" on="1"/>
        <pt x="403" y="-5" on="0"/>
        <pt x="266" y="-5" on="0"/>
        <pt x="227" y="10" on="1"/>
        <pt x="141" y="42" on="0"/>
        <pt x="118" y="181" on="1"/>
        <pt x="108" y="239" on="0"/>
      </contour>
    </TTGlyph>
    <TTGlyph name="Udieresis" xMin="108" yMin="-5" xMax="615" yMax="832">
      <contour>
        <pt x="251" y="797" on="0"/>
        <pt x="217" y="797" on="0"/>
        <pt x="217" y="832" on="0"/>
        <pt x="251" y="832" on="0"/>
      </contour>
      <contour>
        <pt x="471" y="815" on="1"/>
        <pt x="471" y="832" on="0"/>
        <pt x="506" y="832" on="0"/>
        <pt x="506" y="797" on="0"/>
        <pt x="489" y="797" on="1"/>
        <pt x="482" y="797" on="0"/>
        <pt x="471" y="808" on="0"/>
      </contour>
      <contour>
        <pt x="108" y="320" on="1"/>
        <pt x="108" y="732" on="1"/>
        <pt x="132" y="732" on="1"/>
        <pt x="132" y="320" on="1"/>
        <pt x="132" y="224" on="0"/>
        <pt x="150" y="145" on="0"/>
        <pt x="162" y="101" on="0"/>
        <pt x="187" y="69" on="0"/>
        <pt x="206" y="46" on="0"/>
        <pt x="242" y="32" on="0"/>
        <pt x="266" y="23" on="0"/>
        <pt x="288" y="22" on="1"/>
        <pt x="325" y="19" on="0"/>
        <pt x="401" y="19" on="0"/>
        <pt x="449" y="24" on="0"/>
        <pt x="507" y="43" on="0"/>
        <pt x="543" y="83" on="0"/>
        <pt x="560" y="115" on="1"/>
        <pt x="591" y="176" on="0"/>
        <pt x="591" y="320" on="1"/>
        <pt x="591" y="732" on="1"/>
        <pt x="615" y="732" on="1"/>
        <pt x="615" y="320" on="1"/>
        <pt x="615" y="218" on="0"/>
        <pt x="592" y="132" on="0"/>
        <pt x="576" y="83" on="0"/>
        <pt x="547" y="49" on="0"/>
        <pt x="524" y="24" on="0"/>
        <pt x="485" y="9" on="0"/>
        <pt x="459" y="0" on="0"/>
        <pt x="436" y="-2" on="1"/>
        <pt x="403" y="-5" on="0"/>
        <pt x="266" y="-5" on="0"/>
        <pt x="227" y="10" on="1"/>
        <pt x="141" y="42" on="0"/>
        <pt x="118" y="181" on="1"/>
        <pt x="108" y="239" on="0"/>
      </contour>
    </TTGlyph>
    <TTGlyph name="Ugrave" xMin="108" yMin="-5" xMax="615" yMax="930">
      <contour>
        <pt x="222" y="930" on="1"/>
        <pt x="248" y="930" on="1"/>
        <pt x="368" y="797" on="1"/>
        <pt x="354" y="797" on="1"/>
      </contour>
      <contour>
        <pt x="108" y="320" on="1"/>
        <pt x="108" y="732" on="1"/>
        <pt x="132" y="732" on="1"/>
        <pt x="132" y="320" on="1"/>
        <pt x="132" y="224" on="0"/>
        <pt x="150" y="145" on="0"/>
        <pt x="162" y="101" on="0"/>
        <pt x="187" y="69" on="0"/>
        <pt x="206" y="46" on="0"/>
        <pt x="242" y="32" on="0"/>
        <pt x="266" y="23" on="0"/>
        <pt x="288" y="22" on="1"/>
        <pt x="325" y="19" on="0"/>
        <pt x="401" y="19" on="0"/>
        <pt x="449" y="24" on="0"/>
        <pt x="507" y="43" on="0"/>
        <pt x="543" y="83" on="0"/>
        <pt x="560" y="115" on="1"/>
        <pt x="591" y="176" on="0"/>
        <pt x="591" y="320" on="1"/>
        <pt x="591" y="732" on="1"/>
        <pt x="615" y="732" on="1"/>
        <pt x="615" y="320" on="1"/>
        <pt x="615" y="218" on="0"/>
        <pt x="592" y="132" on="0"/>
        <pt x="576" y="83" on="0"/>
        <pt x="547" y="49" on="0"/>
        <pt x="524" y="24" on="0"/>
        <pt x="485" y="9" on="0"/>
        <pt x="459" y="0" on="0"/>
        <pt x="436" y="-2" on="1"/>
        <pt x="403" y="-5" on="0"/>
        <pt x="266" y="-5" on="0"/>
        <pt x="227" y="10" on="1"/>
        <pt x="141" y="42" on="0"/>
        <pt x="118" y="181" on="1"/>
        <pt x="108" y="239" on="0"/>
      </contour>
    </TTGlyph>
    <TTGlyph name="Uhungarumlaut" xMin="108" yMin="-5" xMax="615" yMax="930">
      <contour>
        <pt x="285" y="797" on="1"/>
        <pt x="406" y="930" on="1"/>
        <pt x="432" y="930" on="1"/>
        <pt x="299" y="797" on="1"/>
      </contour>
      <contour>
        <pt x="424" y="797" on="1"/>
        <pt x="545" y="930" on="1"/>
        <pt x="571" y="930" on="1"/>
        <pt x="438" y="797" on="1"/>
      </contour>
      <contour>
        <pt x="108" y="320" on="1"/>
        <pt x="108" y="732" on="1"/>
        <pt x="132" y="732" on="1"/>
        <pt x="132" y="320" on="1"/>
        <pt x="132" y="224" on="0"/>
        <pt x="150" y="145" on="0"/>
        <pt x="162" y="101" on="0"/>
        <pt x="187" y="69" on="0"/>
        <pt x="206" y="46" on="0"/>
        <pt x="242" y="32" on="0"/>
        <pt x="266" y="23" on="0"/>
        <pt x="288" y="22" on="1"/>
        <pt x="325" y="19" on="0"/>
        <pt x="401" y="19" on="0"/>
        <pt x="449" y="24" on="0"/>
        <pt x="507" y="43" on="0"/>
        <pt x="543" y="83" on="0"/>
        <pt x="560" y="115" on="1"/>
        <pt x="591" y="176" on="0"/>
        <pt x="591" y="320" on="1"/>
        <pt x="591" y="732" on="1"/>
        <pt x="615" y="732" on="1"/>
        <pt x="615" y="320" on="1"/>
        <pt x="615" y="218" on="0"/>
        <pt x="592" y="132" on="0"/>
        <pt x="576" y="83" on="0"/>
        <pt x="547" y="49" on="0"/>
        <pt x="524" y="24" on="0"/>
        <pt x="485" y="9" on="0"/>
        <pt x="459" y="0" on="0"/>
        <pt x="436" y="-2" on="1"/>
        <pt x="403" y="-5" on="0"/>
        <pt x="266" y="-5" on="0"/>
        <pt x="227" y="10" on="1"/>
        <pt x="141" y="42" on="0"/>
        <pt x="118" y="181" on="1"/>
        <pt x="108" y="239" on="0"/>
      </contour>
    </TTGlyph>
    <TTGlyph name="Umacron" xMin="108" yMin="-5" xMax="615" yMax="812">
      <contour>
        <pt x="236" y="797" on="1"/>
        <pt x="236" y="812" on="1"/>
        <pt x="488" y="812" on="1"/>
        <pt x="488" y="797" on="1"/>
      </contour>
      <contour>
        <pt x="108" y="320" on="1"/>
        <pt x="108" y="732" on="1"/>
        <pt x="132" y="732" on="1"/>
        <pt x="132" y="320" on="1"/>
        <pt x="132" y="224" on="0"/>
        <pt x="150" y="145" on="0"/>
        <pt x="162" y="101" on="0"/>
        <pt x="187" y="69" on="0"/>
        <pt x="206" y="46" on="0"/>
        <pt x="242" y="32" on="0"/>
        <pt x="266" y="23" on="0"/>
        <pt x="288" y="22" on="1"/>
        <pt x="325" y="19" on="0"/>
        <pt x="401" y="19" on="0"/>
        <pt x="449" y="24" on="0"/>
        <pt x="507" y="43" on="0"/>
        <pt x="543" y="83" on="0"/>
        <pt x="560" y="115" on="1"/>
        <pt x="591" y="176" on="0"/>
        <pt x="591" y="320" on="1"/>
        <pt x="591" y="732" on="1"/>
        <pt x="615" y="732" on="1"/>
        <pt x="615" y="320" on="1"/>
        <pt x="615" y="218" on="0"/>
        <pt x="592" y="132" on="0"/>
        <pt x="576" y="83" on="0"/>
        <pt x="547" y="49" on="0"/>
        <pt x="524" y="24" on="0"/>
        <pt x="485" y="9" on="0"/>
        <pt x="459" y="0" on="0"/>
        <pt x="436" y="-2" on="1"/>
        <pt x="403" y="-5" on="0"/>
        <pt x="266" y="-5" on="0"/>
        <pt x="227" y="10" on="1"/>
        <pt x="141" y="42" on="0"/>
        <pt x="118" y="181" on="1"/>
        <pt x="108" y="239" on="0"/>
      </contour>
    </TTGlyph>
    <TTGlyph name="Uogonek" xMin="108" yMin="-187" xMax="615" yMax="732">
      <contour>
        <pt x="293" y="-130" on="0"/>
        <pt x="353" y="-171" on="0"/>
        <pt x="396" y="-171" on="1"/>
        <pt x="399" y="-171" on="0"/>
        <pt x="401" y="-171" on="1"/>
        <pt x="401" y="-185" on="1"/>
        <pt x="391" y="-186" on="0"/>
        <pt x="351" y="-186" on="0"/>
        <pt x="292" y="-154" on="0"/>
        <pt x="280" y="-126" on="1"/>
        <pt x="274" y="-114" on="0"/>
        <pt x="274" y="-83" on="0"/>
        <pt x="286" y="-62" on="1"/>
        <pt x="304" y="-27" on="0"/>
        <pt x="357" y="-4" on="1"/>
        <pt x="369" y="-4" on="1"/>
        <pt x="329" y="-20" on="0"/>
        <pt x="293" y="-75" on="0"/>
      </contour>
      <contour>
        <pt x="108" y="320" on="1"/>
        <pt x="108" y="732" on="1"/>
        <pt x="132" y="732" on="1"/>
        <pt x="132" y="320" on="1"/>
        <pt x="132" y="224" on="0"/>
        <pt x="150" y="145" on="0"/>
        <pt x="162" y="101" on="0"/>
        <pt x="187" y="69" on="0"/>
        <pt x="206" y="46" on="0"/>
        <pt x="242" y="32" on="0"/>
        <pt x="266" y="23" on="0"/>
        <pt x="288" y="22" on="1"/>
        <pt x="325" y="19" on="0"/>
        <pt x="401" y="19" on="0"/>
        <pt x="449" y="24" on="0"/>
        <pt x="507" y="43" on="0"/>
        <pt x="543" y="83" on="0"/>
        <pt x="560" y="115" on="1"/>
        <pt x="591" y="176" on="0"/>
        <pt x="591" y="320" on="1"/>
        <pt x="591" y="732" on="1"/>
        <pt x="615" y="732" on="1"/>
        <pt x="615" y="320" on="1"/>
        <pt x="615" y="218" on="0"/>
        <pt x="592" y="132" on="0"/>
        <pt x="576" y="83" on="0"/>
        <pt x="547" y="49" on="0"/>
        <pt x="524" y="24" on="0"/>
        <pt x="485" y="9" on="0"/>
        <pt x="459" y="0" on="0"/>
        <pt x="436" y="-2" on="1"/>
        <pt x="403" y="-5" on="0"/>
        <pt x="266" y="-5" on="0"/>
        <pt x="227" y="10" on="1"/>
        <pt x="141" y="42" on="0"/>
        <pt x="118" y="181" on="1"/>
        <pt x="108" y="239" on="0"/>
      </contour>
    </TTGlyph>
    <TTGlyph name="Uring" xMin="108" yMin="-5" xMax="615" yMax="1002">
      <contour>
        <pt x="260" y="871" on="0"/>
        <pt x="260" y="927" on="0"/>
        <pt x="288" y="974" on="0"/>
        <pt x="335" y="1002" on="0"/>
        <pt x="404" y="1002" on="0"/>
        <pt x="462" y="942" on="0"/>
        <pt x="462" y="856" on="0"/>
        <pt x="404" y="797" on="0"/>
        <pt x="335" y="797" on="0"/>
        <pt x="288" y="824" on="0"/>
      </contour>
      <contour>
        <pt x="274" y="935" on="0"/>
        <pt x="274" y="863" on="0"/>
        <pt x="326" y="812" on="0"/>
        <pt x="398" y="812" on="0"/>
        <pt x="448" y="863" on="0"/>
        <pt x="448" y="935" on="0"/>
        <pt x="398" y="987" on="0"/>
        <pt x="326" y="987" on="0"/>
      </contour>
      <contour>
        <pt x="108" y="320" on="1"/>
        <pt x="108" y="732" on="1"/>
        <pt x="132" y="732" on="1"/>
        <pt x="132" y="320" on="1"/>
        <pt x="132" y="224" on="0"/>
        <pt x="150" y="145" on="0"/>
        <pt x="162" y="101" on="0"/>
        <pt x="187" y="69" on="0"/>
        <pt x="206" y="46" on="0"/>
        <pt x="242" y="32" on="0"/>
        <pt x="266" y="23" on="0"/>
        <pt x="288" y="22" on="1"/>
        <pt x="325" y="19" on="0"/>
        <pt x="401" y="19" on="0"/>
        <pt x="449" y="24" on="0"/>
        <pt x="507" y="43" on="0"/>
        <pt x="543" y="83" on="0"/>
        <pt x="560" y="115" on="1"/>
        <pt x="591" y="176" on="0"/>
        <pt x="591" y="320" on="1"/>
        <pt x="591" y="732" on="1"/>
        <pt x="615" y="732" on="1"/>
        <pt x="615" y="320" on="1"/>
        <pt x="615" y="218" on="0"/>
        <pt x="592" y="132" on="0"/>
        <pt x="576" y="83" on="0"/>
        <pt x="547" y="49" on="0"/>
        <pt x="524" y="24" on="0"/>
        <pt x="485" y="9" on="0"/>
        <pt x="459" y="0" on="0"/>
        <pt x="436" y="-2" on="1"/>
        <pt x="403" y="-5" on="0"/>
        <pt x="266" y="-5" on="0"/>
        <pt x="227" y="10" on="1"/>
        <pt x="141" y="42" on="0"/>
        <pt x="118" y="181" on="1"/>
        <pt x="108" y="239" on="0"/>
      </contour>
    </TTGlyph>
    <TTGlyph name="Utilde" xMin="108" yMin="-5" xMax="615" yMax="886">
      <contour>
        <pt x="285" y="886" on="0"/>
        <pt x="319" y="886" on="0"/>
        <pt x="409" y="813" on="0"/>
        <pt x="442" y="813" on="0"/>
        <pt x="487" y="835" on="0"/>
        <pt x="504" y="849" on="0"/>
        <pt x="524" y="866" on="1"/>
        <pt x="530" y="859" on="1"/>
        <pt x="483" y="811" on="0"/>
        <pt x="454" y="802" on="1"/>
        <pt x="440" y="797" on="0"/>
        <pt x="402" y="797" on="0"/>
        <pt x="314" y="870" on="0"/>
        <pt x="298" y="870" on="1"/>
        <pt x="277" y="870" on="0"/>
        <pt x="251" y="857" on="0"/>
        <pt x="242" y="853" on="0"/>
        <pt x="226" y="842" on="0"/>
        <pt x="219" y="836" on="0"/>
        <pt x="200" y="823" on="0"/>
        <pt x="196" y="820" on="1"/>
        <pt x="192" y="828" on="1"/>
        <pt x="243" y="873" on="0"/>
      </contour>
      <contour>
        <pt x="108" y="320" on="1"/>
        <pt x="108" y="732" on="1"/>
        <pt x="132" y="732" on="1"/>
        <pt x="132" y="320" on="1"/>
        <pt x="132" y="224" on="0"/>
        <pt x="150" y="145" on="0"/>
        <pt x="162" y="101" on="0"/>
        <pt x="187" y="69" on="0"/>
        <pt x="206" y="46" on="0"/>
        <pt x="242" y="32" on="0"/>
        <pt x="266" y="23" on="0"/>
        <pt x="288" y="22" on="1"/>
        <pt x="325" y="19" on="0"/>
        <pt x="401" y="19" on="0"/>
        <pt x="449" y="24" on="0"/>
        <pt x="507" y="43" on="0"/>
        <pt x="543" y="83" on="0"/>
        <pt x="560" y="115" on="1"/>
        <pt x="591" y="176" on="0"/>
        <pt x="591" y="320" on="1"/>
        <pt x="591" y="732" on="1"/>
        <pt x="615" y="732" on="1"/>
        <pt x="615" y="320" on="1"/>
        <pt x="615" y="218" on="0"/>
        <pt x="592" y="132" on="0"/>
        <pt x="576" y="83" on="0"/>
        <pt x="547" y="49" on="0"/>
        <pt x="524" y="24" on="0"/>
        <pt x="485" y="9" on="0"/>
        <pt x="459" y="0" on="0"/>
        <pt x="436" y="-2" on="1"/>
        <pt x="403" y="-5" on="0"/>
        <pt x="266" y="-5" on="0"/>
        <pt x="227" y="10" on="1"/>
        <pt x="141" y="42" on="0"/>
        <pt x="118" y="181" on="1"/>
        <pt x="108" y="239" on="0"/>
      </contour>
    </TTGlyph>
    <TTGlyph name="V" xMin="61" yMin="0" xMax="631" yMax="732">
      <contour>
        <pt x="61" y="732" on="1"/>
        <pt x="87" y="732" on="1"/>
        <pt x="340" y="24" on="1"/>
        <pt x="605" y="732" on="1"/>
        <pt x="631" y="732" on="1"/>
        <pt x="357" y="0" on="1"/>
        <pt x="323" y="0" on="1"/>
      </contour>
    </TTGlyph>
    <TTGlyph name="W" xMin="61" yMin="0" xMax="943" yMax="732">
      <contour>
        <pt x="61" y="732" on="1"/>
        <pt x="87" y="732" on="1"/>
        <pt x="340" y="24" on="1"/>
        <pt x="585" y="732" on="1"/>
        <pt x="611" y="732" on="1"/>
        <pt x="508" y="431" on="1"/>
        <pt x="671" y="24" on="1"/>
        <pt x="919" y="732" on="1"/>
        <pt x="943" y="732" on="1"/>
        <pt x="689" y="0" on="1"/>
        <pt x="655" y="0" on="1"/>
        <pt x="495" y="396" on="1"/>
        <pt x="357" y="0" on="1"/>
        <pt x="323" y="0" on="1"/>
      </contour>
    </TTGlyph>
    <TTGlyph name="Wacute" xMin="61" yMin="0" xMax="943" yMax="930">
      <contour>
        <pt x="495" y="797" on="1"/>
        <pt x="616" y="930" on="1"/>
        <pt x="642" y="930" on="1"/>
        <pt x="509" y="797" on="1"/>
      </contour>
      <contour>
        <pt x="61" y="732" on="1"/>
        <pt x="87" y="732" on="1"/>
        <pt x="340" y="24" on="1"/>
        <pt x="585" y="732" on="1"/>
        <pt x="611" y="732" on="1"/>
        <pt x="508" y="431" on="1"/>
        <pt x="671" y="24" on="1"/>
        <pt x="919" y="732" on="1"/>
        <pt x="943" y="732" on="1"/>
        <pt x="689" y="0" on="1"/>
        <pt x="655" y="0" on="1"/>
        <pt x="495" y="396" on="1"/>
        <pt x="357" y="0" on="1"/>
        <pt x="323" y="0" on="1"/>
      </contour>
    </TTGlyph>
    <TTGlyph name="Wcircumflex" xMin="61" yMin="0" xMax="943" yMax="927">
      <contour>
        <pt x="366" y="797" on="1"/>
        <pt x="498" y="927" on="1"/>
        <pt x="518" y="927" on="1"/>
        <pt x="638" y="797" on="1"/>
        <pt x="620" y="797" on="1"/>
        <pt x="508" y="912" on="1"/>
        <pt x="384" y="797" on="1"/>
      </contour>
      <contour>
        <pt x="61" y="732" on="1"/>
        <pt x="87" y="732" on="1"/>
        <pt x="340" y="24" on="1"/>
        <pt x="585" y="732" on="1"/>
        <pt x="611" y="732" on="1"/>
        <pt x="508" y="431" on="1"/>
        <pt x="671" y="24" on="1"/>
        <pt x="919" y="732" on="1"/>
        <pt x="943" y="732" on="1"/>
        <pt x="689" y="0" on="1"/>
        <pt x="655" y="0" on="1"/>
        <pt x="495" y="396" on="1"/>
        <pt x="357" y="0" on="1"/>
        <pt x="323" y="0" on="1"/>
      </contour>
    </TTGlyph>
    <TTGlyph name="Wdieresis" xMin="61" yMin="0" xMax="943" yMax="832">
      <contour>
        <pt x="358" y="807" on="0"/>
        <pt x="358" y="822" on="0"/>
        <pt x="367" y="832" on="0"/>
        <pt x="382" y="832" on="0"/>
        <pt x="392" y="822" on="0"/>
        <pt x="392" y="811" on="0"/>
        <pt x="389" y="805" on="0"/>
        <pt x="387" y="802" on="1"/>
        <pt x="382" y="797" on="0"/>
        <pt x="367" y="797" on="0"/>
      </contour>
      <contour>
        <pt x="612" y="808" on="0"/>
        <pt x="612" y="822" on="0"/>
        <pt x="622" y="832" on="0"/>
        <pt x="637" y="832" on="0"/>
        <pt x="646" y="822" on="0"/>
        <pt x="646" y="810" on="0"/>
        <pt x="644" y="806" on="1"/>
        <pt x="640" y="797" on="0"/>
        <pt x="622" y="797" on="0"/>
      </contour>
      <contour>
        <pt x="61" y="732" on="1"/>
        <pt x="87" y="732" on="1"/>
        <pt x="340" y="24" on="1"/>
        <pt x="585" y="732" on="1"/>
        <pt x="611" y="732" on="1"/>
        <pt x="508" y="431" on="1"/>
        <pt x="671" y="24" on="1"/>
        <pt x="919" y="732" on="1"/>
        <pt x="943" y="732" on="1"/>
        <pt x="689" y="0" on="1"/>
        <pt x="655" y="0" on="1"/>
        <pt x="495" y="396" on="1"/>
        <pt x="357" y="0" on="1"/>
        <pt x="323" y="0" on="1"/>
      </contour>
    </TTGlyph>
    <TTGlyph name="Wgrave" xMin="61" yMin="0" xMax="943" yMax="930">
      <contour>
        <pt x="362" y="930" on="1"/>
        <pt x="388" y="930" on="1"/>
        <pt x="509" y="797" on="1"/>
        <pt x="495" y="797" on="1"/>
      </contour>
      <contour>
        <pt x="61" y="732" on="1"/>
        <pt x="87" y="732" on="1"/>
        <pt x="340" y="24" on="1"/>
        <pt x="585" y="732" on="1"/>
        <pt x="611" y="732" on="1"/>
        <pt x="508" y="431" on="1"/>
        <pt x="671" y="24" on="1"/>
        <pt x="919" y="732" on="1"/>
        <pt x="943" y="732" on="1"/>
        <pt x="689" y="0" on="1"/>
        <pt x="655" y="0" on="1"/>
        <pt x="495" y="396" on="1"/>
        <pt x="357" y="0" on="1"/>
        <pt x="323" y="0" on="1"/>
      </contour>
    </TTGlyph>
    <TTGlyph name="X" xMin="61" yMin="0" xMax="537" yMax="732">
      <contour>
        <pt x="61" y="732" on="1"/>
        <pt x="92" y="732" on="1"/>
        <pt x="298" y="388" on="1"/>
        <pt x="506" y="732" on="1"/>
        <pt x="537" y="732" on="1"/>
        <pt x="314" y="363" on="1"/>
        <pt x="532" y="0" on="1"/>
        <pt x="501" y="0" on="1"/>
        <pt x="298" y="337" on="1"/>
        <pt x="95" y="0" on="1"/>
        <pt x="64" y="0" on="1"/>
        <pt x="283" y="363" on="1"/>
      </contour>
    </TTGlyph>
    <TTGlyph name="X.salt" xMin="27" yMin="0" xMax="579" yMax="732">
      <contour>
        <pt x="264" y="369" on="1"/>
        <pt x="264" y="422" on="0"/>
        <pt x="219" y="476" on="1"/>
        <pt x="27" y="732" on="1"/>
        <pt x="56" y="732" on="1"/>
        <pt x="241" y="487" on="1"/>
        <pt x="288" y="424" on="0"/>
        <pt x="288" y="362" on="1"/>
        <pt x="288" y="317" on="0"/>
        <pt x="262" y="284" on="1"/>
        <pt x="57" y="0" on="1"/>
        <pt x="27" y="0" on="1"/>
        <pt x="240" y="295" on="1"/>
        <pt x="264" y="333" on="0"/>
      </contour>
      <contour>
        <pt x="318" y="350" on="1"/>
        <pt x="318" y="356" on="0"/>
        <pt x="318" y="393" on="0"/>
        <pt x="341" y="455" on="0"/>
        <pt x="365" y="487" on="1"/>
        <pt x="550" y="732" on="1"/>
        <pt x="579" y="732" on="1"/>
        <pt x="387" y="476" on="1"/>
        <pt x="342" y="422" on="0"/>
        <pt x="342" y="369" on="1"/>
        <pt x="342" y="333" on="0"/>
        <pt x="366" y="295" on="1"/>
        <pt x="579" y="0" on="1"/>
        <pt x="549" y="0" on="1"/>
        <pt x="344" y="284" on="1"/>
        <pt x="321" y="313" on="0"/>
      </contour>
    </TTGlyph>
    <TTGlyph name="Y" xMin="61" yMin="0" xMax="591" yMax="732">
      <contour>
        <pt x="328" y="0" on="1"/>
        <pt x="304" y="0" on="1"/>
        <pt x="304" y="260" on="1"/>
        <pt x="61" y="732" on="1"/>
        <pt x="88" y="732" on="1"/>
        <pt x="316" y="291" on="1"/>
        <pt x="564" y="732" on="1"/>
        <pt x="591" y="732" on="1"/>
        <pt x="328" y="260" on="1"/>
      </contour>
    </TTGlyph>
    <TTGlyph name="Yacute" xMin="61" yMin="0" xMax="591" yMax="930">
      <contour>
        <pt x="319" y="797" on="1"/>
        <pt x="440" y="930" on="1"/>
        <pt x="466" y="930" on="1"/>
        <pt x="333" y="797" on="1"/>
      </contour>
      <contour>
        <pt x="328" y="0" on="1"/>
        <pt x="304" y="0" on="1"/>
        <pt x="304" y="260" on="1"/>
        <pt x="61" y="732" on="1"/>
        <pt x="88" y="732" on="1"/>
        <pt x="316" y="291" on="1"/>
        <pt x="564" y="732" on="1"/>
        <pt x="591" y="732" on="1"/>
        <pt x="328" y="260" on="1"/>
      </contour>
    </TTGlyph>
    <TTGlyph name="Ycircumflex" xMin="61" yMin="0" xMax="591" yMax="927">
      <contour>
        <pt x="190" y="797" on="1"/>
        <pt x="322" y="927" on="1"/>
        <pt x="342" y="927" on="1"/>
        <pt x="462" y="797" on="1"/>
        <pt x="444" y="797" on="1"/>
        <pt x="332" y="912" on="1"/>
        <pt x="208" y="797" on="1"/>
      </contour>
      <contour>
        <pt x="328" y="0" on="1"/>
        <pt x="304" y="0" on="1"/>
        <pt x="304" y="260" on="1"/>
        <pt x="61" y="732" on="1"/>
        <pt x="88" y="732" on="1"/>
        <pt x="316" y="291" on="1"/>
        <pt x="564" y="732" on="1"/>
        <pt x="591" y="732" on="1"/>
        <pt x="328" y="260" on="1"/>
      </contour>
    </TTGlyph>
    <TTGlyph name="Ydieresis" xMin="61" yMin="0" xMax="591" yMax="832">
      <contour>
        <pt x="182" y="807" on="0"/>
        <pt x="182" y="822" on="0"/>
        <pt x="191" y="832" on="0"/>
        <pt x="206" y="832" on="0"/>
        <pt x="216" y="822" on="0"/>
        <pt x="216" y="810" on="0"/>
        <pt x="213" y="806" on="1"/>
        <pt x="209" y="797" on="0"/>
        <pt x="191" y="797" on="0"/>
      </contour>
      <contour>
        <pt x="436" y="808" on="0"/>
        <pt x="436" y="822" on="0"/>
        <pt x="446" y="832" on="0"/>
        <pt x="461" y="832" on="0"/>
        <pt x="470" y="822" on="0"/>
        <pt x="470" y="811" on="0"/>
        <pt x="468" y="805" on="0"/>
        <pt x="466" y="802" on="1"/>
        <pt x="461" y="797" on="0"/>
        <pt x="446" y="797" on="0"/>
      </contour>
      <contour>
        <pt x="328" y="0" on="1"/>
        <pt x="304" y="0" on="1"/>
        <pt x="304" y="260" on="1"/>
        <pt x="61" y="732" on="1"/>
        <pt x="88" y="732" on="1"/>
        <pt x="316" y="291" on="1"/>
        <pt x="564" y="732" on="1"/>
        <pt x="591" y="732" on="1"/>
        <pt x="328" y="260" on="1"/>
      </contour>
    </TTGlyph>
    <TTGlyph name="Ygrave" xMin="61" yMin="0" xMax="591" yMax="930">
      <contour>
        <pt x="186" y="930" on="1"/>
        <pt x="212" y="930" on="1"/>
        <pt x="333" y="797" on="1"/>
        <pt x="319" y="797" on="1"/>
      </contour>
      <contour>
        <pt x="328" y="0" on="1"/>
        <pt x="304" y="0" on="1"/>
        <pt x="304" y="260" on="1"/>
        <pt x="61" y="732" on="1"/>
        <pt x="88" y="732" on="1"/>
        <pt x="316" y="291" on="1"/>
        <pt x="564" y="732" on="1"/>
        <pt x="591" y="732" on="1"/>
        <pt x="328" y="260" on="1"/>
      </contour>
    </TTGlyph>
    <TTGlyph name="Z" xMin="47" yMin="0" xMax="510" yMax="732">
      <contour>
        <pt x="47" y="0" on="1"/>
        <pt x="47" y="24" on="1"/>
        <pt x="480" y="708" on="1"/>
        <pt x="47" y="708" on="1"/>
        <pt x="47" y="732" on="1"/>
        <pt x="510" y="732" on="1"/>
        <pt x="510" y="708" on="1"/>
        <pt x="77" y="24" on="1"/>
        <pt x="510" y="24" on="1"/>
        <pt x="510" y="0" on="1"/>
      </contour>
    </TTGlyph>
    <TTGlyph name="Zacute" xMin="47" yMin="0" xMax="510" yMax="930">
      <contour>
        <pt x="292" y="797" on="1"/>
        <pt x="412" y="930" on="1"/>
        <pt x="438" y="930" on="1"/>
        <pt x="306" y="797" on="1"/>
      </contour>
      <contour>
        <pt x="47" y="0" on="1"/>
        <pt x="47" y="24" on="1"/>
        <pt x="480" y="708" on="1"/>
        <pt x="47" y="708" on="1"/>
        <pt x="47" y="732" on="1"/>
        <pt x="510" y="732" on="1"/>
        <pt x="510" y="708" on="1"/>
        <pt x="77" y="24" on="1"/>
        <pt x="510" y="24" on="1"/>
        <pt x="510" y="0" on="1"/>
      </contour>
    </TTGlyph>
    <TTGlyph name="Zcaron" xMin="47" yMin="0" xMax="510" yMax="927">
      <contour>
        <pt x="142" y="927" on="1"/>
        <pt x="158" y="927" on="1"/>
        <pt x="272" y="812" on="1"/>
        <pt x="396" y="927" on="1"/>
        <pt x="414" y="927" on="1"/>
        <pt x="282" y="797" on="1"/>
        <pt x="260" y="797" on="1"/>
      </contour>
      <contour>
        <pt x="47" y="0" on="1"/>
        <pt x="47" y="24" on="1"/>
        <pt x="480" y="708" on="1"/>
        <pt x="47" y="708" on="1"/>
        <pt x="47" y="732" on="1"/>
        <pt x="510" y="732" on="1"/>
        <pt x="510" y="708" on="1"/>
        <pt x="77" y="24" on="1"/>
        <pt x="510" y="24" on="1"/>
        <pt x="510" y="0" on="1"/>
      </contour>
    </TTGlyph>
    <TTGlyph name="Zdotaccent" xMin="47" yMin="0" xMax="510" yMax="883">
      <contour>
        <pt x="261" y="809" on="1"/>
        <pt x="261" y="871" on="1"/>
        <pt x="261" y="883" on="0"/>
        <pt x="273" y="883" on="1"/>
        <pt x="284" y="883" on="1"/>
        <pt x="296" y="883" on="0"/>
        <pt x="296" y="871" on="1"/>
        <pt x="296" y="809" on="1"/>
        <pt x="296" y="797" on="0"/>
        <pt x="284" y="797" on="1"/>
        <pt x="273" y="797" on="1"/>
        <pt x="261" y="797" on="0"/>
      </contour>
      <contour>
        <pt x="47" y="0" on="1"/>
        <pt x="47" y="24" on="1"/>
        <pt x="480" y="708" on="1"/>
        <pt x="47" y="708" on="1"/>
        <pt x="47" y="732" on="1"/>
        <pt x="510" y="732" on="1"/>
        <pt x="510" y="708" on="1"/>
        <pt x="77" y="24" on="1"/>
        <pt x="510" y="24" on="1"/>
        <pt x="510" y="0" on="1"/>
      </contour>
    </TTGlyph>
    <TTGlyph name="a" xMin="54" yMin="-6" xMax="453" yMax="542">
      <contour>
        <pt x="71" y="510" on="1"/>
        <pt x="197" y="541" on="0"/>
        <pt x="303" y="541" on="1"/>
        <pt x="368" y="541" on="0"/>
        <pt x="453" y="465" on="0"/>
        <pt x="453" y="387" on="1"/>
        <pt x="453" y="0" on="1"/>
        <pt x="438" y="0" on="1"/>
        <pt x="429" y="64" on="1"/>
        <pt x="413" y="57" on="1"/>
        <pt x="269" y="-6" on="0"/>
        <pt x="187" y="-6" on="1"/>
        <pt x="130" y="-6" on="0"/>
        <pt x="54" y="64" on="0"/>
        <pt x="54" y="126" on="1"/>
        <pt x="54" y="187" on="1"/>
        <pt x="54" y="250" on="0"/>
        <pt x="125" y="320" on="0"/>
        <pt x="187" y="320" on="1"/>
        <pt x="308" y="320" on="0"/>
        <pt x="429" y="320" on="0"/>
        <pt x="429" y="320" on="1"/>
        <pt x="430" y="353" on="0"/>
        <pt x="430" y="386" on="0"/>
        <pt x="429" y="387" on="1"/>
        <pt x="429" y="519" on="0"/>
        <pt x="293" y="519" on="1"/>
        <pt x="221" y="519" on="0"/>
        <pt x="71" y="496" on="1"/>
      </contour>
      <contour>
        <pt x="78" y="131" on="1"/>
        <pt x="78" y="73" on="0"/>
        <pt x="110" y="46" on="1"/>
        <pt x="144" y="18" on="0"/>
        <pt x="227" y="18" on="0"/>
        <pt x="344" y="47" on="0"/>
        <pt x="386" y="62" on="1"/>
        <pt x="429" y="78" on="1"/>
        <pt x="429" y="306" on="1"/>
        <pt x="187" y="296" on="1"/>
        <pt x="78" y="292" on="0"/>
        <pt x="78" y="187" on="1"/>
      </contour>
    </TTGlyph>
    <TTGlyph name="a.salt" xMin="68" yMin="0" xMax="473" yMax="538">
      <contour>
        <pt x="68" y="131" on="1"/>
        <pt x="68" y="195" on="1"/>
        <pt x="68" y="317" on="0"/>
        <pt x="204" y="317" on="1"/>
        <pt x="448" y="317" on="1"/>
        <pt x="448" y="467" on="0"/>
        <pt x="378" y="498" on="1"/>
        <pt x="355" y="509" on="0"/>
        <pt x="322" y="513" on="0"/>
        <pt x="201" y="513" on="0"/>
        <pt x="78" y="503" on="1"/>
        <pt x="78" y="517" on="1"/>
        <pt x="192" y="537" on="0"/>
        <pt x="289" y="537" on="1"/>
        <pt x="400" y="537" on="0"/>
        <pt x="473" y="423" on="0"/>
        <pt x="473" y="272" on="1"/>
        <pt x="473" y="156" on="1"/>
        <pt x="473" y="0" on="0"/>
        <pt x="318" y="0" on="1"/>
        <pt x="204" y="0" on="1"/>
        <pt x="68" y="0" on="0"/>
      </contour>
      <contour>
        <pt x="92" y="131" on="1"/>
        <pt x="92" y="24" on="0"/>
        <pt x="204" y="24" on="1"/>
        <pt x="318" y="24" on="1"/>
        <pt x="390" y="24" on="0"/>
        <pt x="448" y="93" on="0"/>
        <pt x="448" y="156" on="1"/>
        <pt x="448" y="303" on="1"/>
        <pt x="204" y="293" on="1"/>
        <pt x="148" y="291" on="0"/>
        <pt x="92" y="249" on="0"/>
        <pt x="92" y="195" on="1"/>
      </contour>
    </TTGlyph>
    <TTGlyph name="a.smcp" xMin="47" yMin="0" xMax="538" yMax="570">
      <contour>
        <pt x="47" y="0" on="1"/>
        <pt x="290" y="570" on="1"/>
        <pt x="314" y="570" on="1"/>
        <pt x="538" y="0" on="1"/>
        <pt x="512" y="0" on="1"/>
        <pt x="440" y="182" on="1"/>
        <pt x="150" y="182" on="1"/>
        <pt x="73" y="0" on="1"/>
      </contour>
      <contour>
        <pt x="161" y="206" on="1"/>
        <pt x="432" y="206" on="1"/>
        <pt x="302" y="541" on="1"/>
      </contour>
    </TTGlyph>
    <TTGlyph name="a.superior" xMin="42" yMin="374" xMax="314" yMax="740">
      <contour>
        <pt x="54" y="726" on="1"/>
        <pt x="127" y="739" on="0"/>
        <pt x="203" y="739" on="1"/>
        <pt x="250" y="739" on="0"/>
        <pt x="314" y="688" on="0"/>
        <pt x="314" y="636" on="1"/>
        <pt x="314" y="378" on="1"/>
        <pt x="302" y="378" on="1"/>
        <pt x="297" y="437" on="1"/>
        <pt x="286" y="430" on="1"/>
        <pt x="195" y="374" on="0"/>
        <pt x="101" y="374" on="0"/>
        <pt x="42" y="421" on="0"/>
        <pt x="42" y="463" on="1"/>
        <pt x="42" y="509" on="1"/>
        <pt x="42" y="550" on="0"/>
        <pt x="96" y="599" on="0"/>
        <pt x="142" y="599" on="1"/>
        <pt x="296" y="599" on="0"/>
        <pt x="296" y="600" on="1"/>
        <pt x="297" y="630" on="0"/>
        <pt x="296" y="631" on="1"/>
        <pt x="296" y="721" on="0"/>
        <pt x="198" y="721" on="1"/>
        <pt x="111" y="721" on="0"/>
        <pt x="54" y="714" on="1"/>
      </contour>
      <contour>
        <pt x="60" y="462" on="1"/>
        <pt x="60" y="427" on="0"/>
        <pt x="110" y="392" on="0"/>
        <pt x="169" y="392" on="0"/>
        <pt x="246" y="420" on="0"/>
        <pt x="271" y="434" on="1"/>
        <pt x="296" y="449" on="1"/>
        <pt x="296" y="588" on="1"/>
        <pt x="141" y="581" on="1"/>
        <pt x="60" y="578" on="0"/>
        <pt x="60" y="509" on="1"/>
      </contour>
    </TTGlyph>
    <TTGlyph name="aacute" xMin="54" yMin="-6" xMax="453" yMax="734">
      <contour>
        <pt x="258" y="601" on="1"/>
        <pt x="379" y="734" on="1"/>
        <pt x="405" y="734" on="1"/>
        <pt x="272" y="601" on="1"/>
      </contour>
      <contour>
        <pt x="71" y="510" on="1"/>
        <pt x="197" y="541" on="0"/>
        <pt x="303" y="541" on="1"/>
        <pt x="368" y="541" on="0"/>
        <pt x="453" y="465" on="0"/>
        <pt x="453" y="387" on="1"/>
        <pt x="453" y="0" on="1"/>
        <pt x="438" y="0" on="1"/>
        <pt x="429" y="64" on="1"/>
        <pt x="413" y="57" on="1"/>
        <pt x="269" y="-6" on="0"/>
        <pt x="187" y="-6" on="1"/>
        <pt x="130" y="-6" on="0"/>
        <pt x="54" y="64" on="0"/>
        <pt x="54" y="126" on="1"/>
        <pt x="54" y="187" on="1"/>
        <pt x="54" y="250" on="0"/>
        <pt x="125" y="320" on="0"/>
        <pt x="187" y="320" on="1"/>
        <pt x="308" y="320" on="0"/>
        <pt x="429" y="320" on="0"/>
        <pt x="429" y="320" on="1"/>
        <pt x="430" y="353" on="0"/>
        <pt x="430" y="386" on="0"/>
        <pt x="429" y="387" on="1"/>
        <pt x="429" y="519" on="0"/>
        <pt x="293" y="519" on="1"/>
        <pt x="221" y="519" on="0"/>
        <pt x="71" y="496" on="1"/>
      </contour>
      <contour>
        <pt x="78" y="131" on="1"/>
        <pt x="78" y="73" on="0"/>
        <pt x="110" y="46" on="1"/>
        <pt x="144" y="18" on="0"/>
        <pt x="227" y="18" on="0"/>
        <pt x="344" y="47" on="0"/>
        <pt x="386" y="62" on="1"/>
        <pt x="429" y="78" on="1"/>
        <pt x="429" y="306" on="1"/>
        <pt x="187" y="296" on="1"/>
        <pt x="78" y="292" on="0"/>
        <pt x="78" y="187" on="1"/>
      </contour>
    </TTGlyph>
    <TTGlyph name="aacute.salt" xMin="68" yMin="0" xMax="473" yMax="731">
      <contour>
        <pt x="284" y="597" on="1"/>
        <pt x="405" y="730" on="1"/>
        <pt x="431" y="730" on="1"/>
        <pt x="298" y="597" on="1"/>
      </contour>
      <contour>
        <pt x="68" y="131" on="1"/>
        <pt x="68" y="195" on="1"/>
        <pt x="68" y="317" on="0"/>
        <pt x="204" y="317" on="1"/>
        <pt x="448" y="317" on="1"/>
        <pt x="448" y="467" on="0"/>
        <pt x="378" y="498" on="1"/>
        <pt x="355" y="509" on="0"/>
        <pt x="322" y="513" on="0"/>
        <pt x="201" y="513" on="0"/>
        <pt x="78" y="503" on="1"/>
        <pt x="78" y="517" on="1"/>
        <pt x="192" y="537" on="0"/>
        <pt x="289" y="537" on="1"/>
        <pt x="400" y="537" on="0"/>
        <pt x="473" y="423" on="0"/>
        <pt x="473" y="272" on="1"/>
        <pt x="473" y="156" on="1"/>
        <pt x="473" y="0" on="0"/>
        <pt x="318" y="0" on="1"/>
        <pt x="204" y="0" on="1"/>
        <pt x="68" y="0" on="0"/>
      </contour>
      <contour>
        <pt x="92" y="131" on="1"/>
        <pt x="92" y="24" on="0"/>
        <pt x="204" y="24" on="1"/>
        <pt x="318" y="24" on="1"/>
        <pt x="390" y="24" on="0"/>
        <pt x="448" y="93" on="0"/>
        <pt x="448" y="156" on="1"/>
        <pt x="448" y="303" on="1"/>
        <pt x="204" y="293" on="1"/>
        <pt x="148" y="291" on="0"/>
        <pt x="92" y="249" on="0"/>
        <pt x="92" y="195" on="1"/>
      </contour>
    </TTGlyph>
    <TTGlyph name="aacute.smcp" xMin="47" yMin="0" xMax="538" yMax="763">
      <contour>
        <pt x="295" y="630" on="1"/>
        <pt x="416" y="763" on="1"/>
        <pt x="442" y="763" on="1"/>
        <pt x="309" y="630" on="1"/>
      </contour>
      <contour>
        <pt x="47" y="0" on="1"/>
        <pt x="290" y="570" on="1"/>
        <pt x="314" y="570" on="1"/>
        <pt x="538" y="0" on="1"/>
        <pt x="512" y="0" on="1"/>
        <pt x="440" y="182" on="1"/>
        <pt x="150" y="182" on="1"/>
        <pt x="73" y="0" on="1"/>
      </contour>
      <contour>
        <pt x="161" y="206" on="1"/>
        <pt x="432" y="206" on="1"/>
        <pt x="302" y="541" on="1"/>
      </contour>
    </TTGlyph>
    <TTGlyph name="abreve" xMin="54" yMin="-6" xMax="453" yMax="716">
      <contour>
        <pt x="155" y="715" on="1"/>
        <pt x="169" y="715" on="1"/>
        <pt x="169" y="673" on="0"/>
        <pt x="228" y="615" on="0"/>
        <pt x="267" y="615" on="1"/>
        <pt x="313" y="615" on="0"/>
        <pt x="371" y="672" on="0"/>
        <pt x="371" y="715" on="1"/>
        <pt x="385" y="715" on="1"/>
        <pt x="385" y="662" on="0"/>
        <pt x="315" y="601" on="0"/>
        <pt x="225" y="601" on="0"/>
        <pt x="155" y="664" on="0"/>
      </contour>
      <contour>
        <pt x="71" y="510" on="1"/>
        <pt x="197" y="541" on="0"/>
        <pt x="303" y="541" on="1"/>
        <pt x="368" y="541" on="0"/>
        <pt x="453" y="465" on="0"/>
        <pt x="453" y="387" on="1"/>
        <pt x="453" y="0" on="1"/>
        <pt x="438" y="0" on="1"/>
        <pt x="429" y="64" on="1"/>
        <pt x="413" y="57" on="1"/>
        <pt x="269" y="-6" on="0"/>
        <pt x="187" y="-6" on="1"/>
        <pt x="130" y="-6" on="0"/>
        <pt x="54" y="64" on="0"/>
        <pt x="54" y="126" on="1"/>
        <pt x="54" y="187" on="1"/>
        <pt x="54" y="250" on="0"/>
        <pt x="125" y="320" on="0"/>
        <pt x="187" y="320" on="1"/>
        <pt x="308" y="320" on="0"/>
        <pt x="429" y="320" on="0"/>
        <pt x="429" y="320" on="1"/>
        <pt x="430" y="353" on="0"/>
        <pt x="430" y="386" on="0"/>
        <pt x="429" y="387" on="1"/>
        <pt x="429" y="519" on="0"/>
        <pt x="293" y="519" on="1"/>
        <pt x="221" y="519" on="0"/>
        <pt x="71" y="496" on="1"/>
      </contour>
      <contour>
        <pt x="78" y="131" on="1"/>
        <pt x="78" y="73" on="0"/>
        <pt x="110" y="46" on="1"/>
        <pt x="144" y="18" on="0"/>
        <pt x="227" y="18" on="0"/>
        <pt x="344" y="47" on="0"/>
        <pt x="386" y="62" on="1"/>
        <pt x="429" y="78" on="1"/>
        <pt x="429" y="306" on="1"/>
        <pt x="187" y="296" on="1"/>
        <pt x="78" y="292" on="0"/>
        <pt x="78" y="187" on="1"/>
      </contour>
    </TTGlyph>
    <TTGlyph name="abreve.salt" xMin="68" yMin="0" xMax="473" yMax="712">
      <contour>
        <pt x="166" y="711" on="1"/>
        <pt x="180" y="711" on="1"/>
        <pt x="180" y="669" on="0"/>
        <pt x="238" y="611" on="0"/>
        <pt x="278" y="611" on="1"/>
        <pt x="323" y="611" on="0"/>
        <pt x="382" y="668" on="0"/>
        <pt x="382" y="711" on="1"/>
        <pt x="396" y="711" on="1"/>
        <pt x="396" y="656" on="0"/>
        <pt x="358" y="625" on="1"/>
        <pt x="323" y="597" on="0"/>
        <pt x="280" y="597" on="1"/>
        <pt x="237" y="597" on="0"/>
        <pt x="202" y="627" on="1"/>
        <pt x="166" y="658" on="0"/>
      </contour>
      <contour>
        <pt x="68" y="131" on="1"/>
        <pt x="68" y="195" on="1"/>
        <pt x="68" y="317" on="0"/>
        <pt x="204" y="317" on="1"/>
        <pt x="448" y="317" on="1"/>
        <pt x="448" y="467" on="0"/>
        <pt x="378" y="498" on="1"/>
        <pt x="355" y="509" on="0"/>
        <pt x="322" y="513" on="0"/>
        <pt x="201" y="513" on="0"/>
        <pt x="78" y="503" on="1"/>
        <pt x="78" y="517" on="1"/>
        <pt x="192" y="537" on="0"/>
        <pt x="289" y="537" on="1"/>
        <pt x="400" y="537" on="0"/>
        <pt x="473" y="423" on="0"/>
        <pt x="473" y="272" on="1"/>
        <pt x="473" y="156" on="1"/>
        <pt x="473" y="0" on="0"/>
        <pt x="318" y="0" on="1"/>
        <pt x="204" y="0" on="1"/>
        <pt x="68" y="0" on="0"/>
      </contour>
      <contour>
        <pt x="92" y="131" on="1"/>
        <pt x="92" y="24" on="0"/>
        <pt x="204" y="24" on="1"/>
        <pt x="318" y="24" on="1"/>
        <pt x="390" y="24" on="0"/>
        <pt x="448" y="93" on="0"/>
        <pt x="448" y="156" on="1"/>
        <pt x="448" y="303" on="1"/>
        <pt x="204" y="293" on="1"/>
        <pt x="148" y="291" on="0"/>
        <pt x="92" y="249" on="0"/>
        <pt x="92" y="195" on="1"/>
      </contour>
    </TTGlyph>
    <TTGlyph name="abreve.smcp" xMin="47" yMin="0" xMax="538" yMax="744">
      <contour>
        <pt x="187" y="744" on="1"/>
        <pt x="201" y="744" on="1"/>
        <pt x="201" y="702" on="0"/>
        <pt x="259" y="644" on="0"/>
        <pt x="298" y="644" on="1"/>
        <pt x="344" y="644" on="0"/>
        <pt x="403" y="701" on="0"/>
        <pt x="403" y="744" on="1"/>
        <pt x="417" y="744" on="1"/>
        <pt x="417" y="691" on="0"/>
        <pt x="346" y="630" on="0"/>
        <pt x="257" y="630" on="0"/>
        <pt x="187" y="693" on="0"/>
      </contour>
      <contour>
        <pt x="47" y="0" on="1"/>
        <pt x="290" y="570" on="1"/>
        <pt x="314" y="570" on="1"/>
        <pt x="538" y="0" on="1"/>
        <pt x="512" y="0" on="1"/>
        <pt x="440" y="182" on="1"/>
        <pt x="150" y="182" on="1"/>
        <pt x="73" y="0" on="1"/>
      </contour>
      <contour>
        <pt x="161" y="206" on="1"/>
        <pt x="432" y="206" on="1"/>
        <pt x="302" y="541" on="1"/>
      </contour>
    </TTGlyph>
    <TTGlyph name="acircumflex" xMin="54" yMin="-6" xMax="453" yMax="731">
      <contour>
        <pt x="133" y="601" on="1"/>
        <pt x="265" y="731" on="1"/>
        <pt x="285" y="731" on="1"/>
        <pt x="405" y="601" on="1"/>
        <pt x="387" y="601" on="1"/>
        <pt x="275" y="716" on="1"/>
        <pt x="151" y="601" on="1"/>
      </contour>
      <contour>
        <pt x="71" y="510" on="1"/>
        <pt x="197" y="541" on="0"/>
        <pt x="303" y="541" on="1"/>
        <pt x="368" y="541" on="0"/>
        <pt x="453" y="465" on="0"/>
        <pt x="453" y="387" on="1"/>
        <pt x="453" y="0" on="1"/>
        <pt x="438" y="0" on="1"/>
        <pt x="429" y="64" on="1"/>
        <pt x="413" y="57" on="1"/>
        <pt x="269" y="-6" on="0"/>
        <pt x="187" y="-6" on="1"/>
        <pt x="130" y="-6" on="0"/>
        <pt x="54" y="64" on="0"/>
        <pt x="54" y="126" on="1"/>
        <pt x="54" y="187" on="1"/>
        <pt x="54" y="250" on="0"/>
        <pt x="125" y="320" on="0"/>
        <pt x="187" y="320" on="1"/>
        <pt x="308" y="320" on="0"/>
        <pt x="429" y="320" on="0"/>
        <pt x="429" y="320" on="1"/>
        <pt x="430" y="353" on="0"/>
        <pt x="430" y="386" on="0"/>
        <pt x="429" y="387" on="1"/>
        <pt x="429" y="519" on="0"/>
        <pt x="293" y="519" on="1"/>
        <pt x="221" y="519" on="0"/>
        <pt x="71" y="496" on="1"/>
      </contour>
      <contour>
        <pt x="78" y="131" on="1"/>
        <pt x="78" y="73" on="0"/>
        <pt x="110" y="46" on="1"/>
        <pt x="144" y="18" on="0"/>
        <pt x="227" y="18" on="0"/>
        <pt x="344" y="47" on="0"/>
        <pt x="386" y="62" on="1"/>
        <pt x="429" y="78" on="1"/>
        <pt x="429" y="306" on="1"/>
        <pt x="187" y="296" on="1"/>
        <pt x="78" y="292" on="0"/>
        <pt x="78" y="187" on="1"/>
      </contour>
    </TTGlyph>
    <TTGlyph name="acircumflex.salt" xMin="68" yMin="0" xMax="473" yMax="728">
      <contour>
        <pt x="155" y="597" on="1"/>
        <pt x="287" y="727" on="1"/>
        <pt x="307" y="727" on="1"/>
        <pt x="427" y="597" on="1"/>
        <pt x="409" y="597" on="1"/>
        <pt x="297" y="712" on="1"/>
        <pt x="173" y="597" on="1"/>
      </contour>
      <contour>
        <pt x="68" y="131" on="1"/>
        <pt x="68" y="195" on="1"/>
        <pt x="68" y="317" on="0"/>
        <pt x="204" y="317" on="1"/>
        <pt x="448" y="317" on="1"/>
        <pt x="448" y="467" on="0"/>
        <pt x="378" y="498" on="1"/>
        <pt x="355" y="509" on="0"/>
        <pt x="322" y="513" on="0"/>
        <pt x="201" y="513" on="0"/>
        <pt x="78" y="503" on="1"/>
        <pt x="78" y="517" on="1"/>
        <pt x="192" y="537" on="0"/>
        <pt x="289" y="537" on="1"/>
        <pt x="400" y="537" on="0"/>
        <pt x="473" y="423" on="0"/>
        <pt x="473" y="272" on="1"/>
        <pt x="473" y="156" on="1"/>
        <pt x="473" y="0" on="0"/>
        <pt x="318" y="0" on="1"/>
        <pt x="204" y="0" on="1"/>
        <pt x="68" y="0" on="0"/>
      </contour>
      <contour>
        <pt x="92" y="131" on="1"/>
        <pt x="92" y="24" on="0"/>
        <pt x="204" y="24" on="1"/>
        <pt x="318" y="24" on="1"/>
        <pt x="390" y="24" on="0"/>
        <pt x="448" y="93" on="0"/>
        <pt x="448" y="156" on="1"/>
        <pt x="448" y="303" on="1"/>
        <pt x="204" y="293" on="1"/>
        <pt x="148" y="291" on="0"/>
        <pt x="92" y="249" on="0"/>
        <pt x="92" y="195" on="1"/>
      </contour>
    </TTGlyph>
    <TTGlyph name="acircumflex.smcp" xMin="47" yMin="0" xMax="538" yMax="760">
      <contour>
        <pt x="166" y="630" on="1"/>
        <pt x="298" y="760" on="1"/>
        <pt x="318" y="760" on="1"/>
        <pt x="438" y="630" on="1"/>
        <pt x="420" y="630" on="1"/>
        <pt x="308" y="745" on="1"/>
        <pt x="184" y="630" on="1"/>
      </contour>
      <contour>
        <pt x="47" y="0" on="1"/>
        <pt x="290" y="570" on="1"/>
        <pt x="314" y="570" on="1"/>
        <pt x="538" y="0" on="1"/>
        <pt x="512" y="0" on="1"/>
        <pt x="440" y="182" on="1"/>
        <pt x="150" y="182" on="1"/>
        <pt x="73" y="0" on="1"/>
      </contour>
      <contour>
        <pt x="161" y="206" on="1"/>
        <pt x="432" y="206" on="1"/>
        <pt x="302" y="541" on="1"/>
      </contour>
    </TTGlyph>
    <TTGlyph name="acute" xMin="27" yMin="531" xMax="174" yMax="664">
      <contour>
        <pt x="27" y="531" on="1"/>
        <pt x="148" y="664" on="1"/>
        <pt x="174" y="664" on="1"/>
        <pt x="41" y="531" on="1"/>
      </contour>
    </TTGlyph>
    <TTGlyph name="acute.smcp" xMin="27" yMin="531" xMax="174" yMax="664">
      <contour>
        <pt x="27" y="531" on="1"/>
        <pt x="148" y="664" on="1"/>
        <pt x="174" y="664" on="1"/>
        <pt x="41" y="531" on="1"/>
      </contour>
    </TTGlyph>
    <TTGlyph name="adieresis" xMin="54" yMin="-6" xMax="453" yMax="669">
      <contour>
        <pt x="158" y="634" on="0"/>
        <pt x="124" y="634" on="0"/>
        <pt x="124" y="669" on="0"/>
        <pt x="158" y="669" on="0"/>
      </contour>
      <contour>
        <pt x="378" y="652" on="1"/>
        <pt x="378" y="669" on="0"/>
        <pt x="413" y="669" on="0"/>
        <pt x="413" y="634" on="0"/>
        <pt x="396" y="634" on="1"/>
        <pt x="388" y="634" on="0"/>
        <pt x="378" y="644" on="0"/>
      </contour>
      <contour>
        <pt x="71" y="510" on="1"/>
        <pt x="197" y="541" on="0"/>
        <pt x="303" y="541" on="1"/>
        <pt x="368" y="541" on="0"/>
        <pt x="453" y="465" on="0"/>
        <pt x="453" y="387" on="1"/>
        <pt x="453" y="0" on="1"/>
        <pt x="438" y="0" on="1"/>
        <pt x="429" y="64" on="1"/>
        <pt x="413" y="57" on="1"/>
        <pt x="269" y="-6" on="0"/>
        <pt x="187" y="-6" on="1"/>
        <pt x="130" y="-6" on="0"/>
        <pt x="54" y="64" on="0"/>
        <pt x="54" y="126" on="1"/>
        <pt x="54" y="187" on="1"/>
        <pt x="54" y="250" on="0"/>
        <pt x="125" y="320" on="0"/>
        <pt x="187" y="320" on="1"/>
        <pt x="308" y="320" on="0"/>
        <pt x="429" y="320" on="0"/>
        <pt x="429" y="320" on="1"/>
        <pt x="430" y="353" on="0"/>
        <pt x="430" y="386" on="0"/>
        <pt x="429" y="387" on="1"/>
        <pt x="429" y="519" on="0"/>
        <pt x="293" y="519" on="1"/>
        <pt x="221" y="519" on="0"/>
        <pt x="71" y="496" on="1"/>
      </contour>
      <contour>
        <pt x="78" y="131" on="1"/>
        <pt x="78" y="73" on="0"/>
        <pt x="110" y="46" on="1"/>
        <pt x="144" y="18" on="0"/>
        <pt x="227" y="18" on="0"/>
        <pt x="344" y="47" on="0"/>
        <pt x="386" y="62" on="1"/>
        <pt x="429" y="78" on="1"/>
        <pt x="429" y="306" on="1"/>
        <pt x="187" y="296" on="1"/>
        <pt x="78" y="292" on="0"/>
        <pt x="78" y="187" on="1"/>
      </contour>
    </TTGlyph>
    <TTGlyph name="adieresis.salt" xMin="68" yMin="0" xMax="473" yMax="633">
      <contour>
        <pt x="126" y="607" on="0"/>
        <pt x="126" y="623" on="0"/>
        <pt x="136" y="632" on="0"/>
        <pt x="151" y="632" on="0"/>
        <pt x="160" y="623" on="0"/>
        <pt x="160" y="610" on="0"/>
        <pt x="158" y="606" on="1"/>
        <pt x="153" y="597" on="0"/>
        <pt x="136" y="597" on="0"/>
      </contour>
      <contour>
        <pt x="380" y="608" on="0"/>
        <pt x="380" y="622" on="0"/>
        <pt x="391" y="632" on="0"/>
        <pt x="406" y="632" on="0"/>
        <pt x="415" y="623" on="0"/>
        <pt x="415" y="610" on="0"/>
        <pt x="413" y="606" on="1"/>
        <pt x="408" y="597" on="0"/>
        <pt x="391" y="597" on="0"/>
      </contour>
      <contour>
        <pt x="68" y="131" on="1"/>
        <pt x="68" y="195" on="1"/>
        <pt x="68" y="317" on="0"/>
        <pt x="204" y="317" on="1"/>
        <pt x="448" y="317" on="1"/>
        <pt x="448" y="467" on="0"/>
        <pt x="378" y="498" on="1"/>
        <pt x="355" y="509" on="0"/>
        <pt x="322" y="513" on="0"/>
        <pt x="201" y="513" on="0"/>
        <pt x="78" y="503" on="1"/>
        <pt x="78" y="517" on="1"/>
        <pt x="192" y="537" on="0"/>
        <pt x="289" y="537" on="1"/>
        <pt x="400" y="537" on="0"/>
        <pt x="473" y="423" on="0"/>
        <pt x="473" y="272" on="1"/>
        <pt x="473" y="156" on="1"/>
        <pt x="473" y="0" on="0"/>
        <pt x="318" y="0" on="1"/>
        <pt x="204" y="0" on="1"/>
        <pt x="68" y="0" on="0"/>
      </contour>
      <contour>
        <pt x="92" y="131" on="1"/>
        <pt x="92" y="24" on="0"/>
        <pt x="204" y="24" on="1"/>
        <pt x="318" y="24" on="1"/>
        <pt x="390" y="24" on="0"/>
        <pt x="448" y="93" on="0"/>
        <pt x="448" y="156" on="1"/>
        <pt x="448" y="303" on="1"/>
        <pt x="204" y="293" on="1"/>
        <pt x="148" y="291" on="0"/>
        <pt x="92" y="249" on="0"/>
        <pt x="92" y="195" on="1"/>
      </contour>
    </TTGlyph>
    <TTGlyph name="adieresis.smcp" xMin="47" yMin="0" xMax="538" yMax="665">
      <contour>
        <pt x="158" y="640" on="0"/>
        <pt x="158" y="656" on="0"/>
        <pt x="167" y="665" on="0"/>
        <pt x="182" y="665" on="0"/>
        <pt x="192" y="656" on="0"/>
        <pt x="192" y="640" on="0"/>
        <pt x="182" y="630" on="0"/>
        <pt x="167" y="630" on="0"/>
      </contour>
      <contour>
        <pt x="422" y="630" on="0"/>
        <pt x="412" y="640" on="0"/>
        <pt x="412" y="653" on="0"/>
        <pt x="414" y="657" on="1"/>
        <pt x="419" y="665" on="0"/>
        <pt x="437" y="665" on="0"/>
        <pt x="446" y="656" on="0"/>
        <pt x="446" y="640" on="0"/>
        <pt x="437" y="630" on="0"/>
      </contour>
      <contour>
        <pt x="47" y="0" on="1"/>
        <pt x="290" y="570" on="1"/>
        <pt x="314" y="570" on="1"/>
        <pt x="538" y="0" on="1"/>
        <pt x="512" y="0" on="1"/>
        <pt x="440" y="182" on="1"/>
        <pt x="150" y="182" on="1"/>
        <pt x="73" y="0" on="1"/>
      </contour>
      <contour>
        <pt x="161" y="206" on="1"/>
        <pt x="432" y="206" on="1"/>
        <pt x="302" y="541" on="1"/>
      </contour>
    </TTGlyph>
    <TTGlyph name="ae" xMin="54" yMin="-6" xMax="835" yMax="542">
      <contour>
        <pt x="71" y="510" on="1"/>
        <pt x="197" y="541" on="0"/>
        <pt x="304" y="541" on="1"/>
        <pt x="356" y="541" on="0"/>
        <pt x="435" y="489" on="0"/>
        <pt x="448" y="435" on="1"/>
        <pt x="462" y="492" on="0"/>
        <pt x="550" y="534" on="0"/>
        <pt x="632" y="534" on="1"/>
        <pt x="738" y="534" on="0"/>
        <pt x="764" y="520" on="1"/>
        <pt x="805" y="499" on="0"/>
        <pt x="816" y="470" on="1"/>
        <pt x="835" y="425" on="0"/>
        <pt x="835" y="303" on="0"/>
        <pt x="768" y="262" on="0"/>
        <pt x="698" y="262" on="1"/>
        <pt x="454" y="262" on="1"/>
        <pt x="453" y="234" on="0"/>
        <pt x="453" y="184" on="0"/>
        <pt x="456" y="122" on="0"/>
        <pt x="466" y="67" on="0"/>
        <pt x="500" y="33" on="0"/>
        <pt x="528" y="26" on="1"/>
        <pt x="609" y="6" on="0"/>
        <pt x="825" y="38" on="1"/>
        <pt x="825" y="22" on="1"/>
        <pt x="726" y="-6" on="0"/>
        <pt x="605" y="-6" on="1"/>
        <pt x="512" y="-6" on="0"/>
        <pt x="478" y="22" on="1"/>
        <pt x="462" y="36" on="0"/>
        <pt x="450" y="50" on="0"/>
        <pt x="444" y="63" on="1"/>
        <pt x="426" y="56" on="1"/>
        <pt x="272" y="-6" on="0"/>
        <pt x="187" y="-6" on="1"/>
        <pt x="130" y="-6" on="0"/>
        <pt x="54" y="64" on="0"/>
        <pt x="54" y="126" on="1"/>
        <pt x="54" y="155" on="1"/>
        <pt x="54" y="218" on="0"/>
        <pt x="125" y="288" on="0"/>
        <pt x="187" y="288" on="1"/>
        <pt x="308" y="288" on="0"/>
        <pt x="429" y="288" on="0"/>
        <pt x="429" y="288" on="1"/>
        <pt x="430" y="337" on="0"/>
        <pt x="430" y="386" on="0"/>
        <pt x="429" y="387" on="1"/>
        <pt x="429" y="519" on="0"/>
        <pt x="293" y="519" on="1"/>
        <pt x="221" y="519" on="0"/>
        <pt x="71" y="496" on="1"/>
      </contour>
      <contour>
        <pt x="78" y="131" on="1"/>
        <pt x="78" y="73" on="0"/>
        <pt x="110" y="46" on="1"/>
        <pt x="144" y="18" on="0"/>
        <pt x="226" y="18" on="0"/>
        <pt x="344" y="51" on="0"/>
        <pt x="386" y="68" on="1"/>
        <pt x="429" y="85" on="1"/>
        <pt x="429" y="270" on="1"/>
        <pt x="187" y="264" on="1"/>
        <pt x="78" y="261" on="0"/>
        <pt x="78" y="155" on="1"/>
      </contour>
      <contour>
        <pt x="698" y="285" on="1"/>
        <pt x="786" y="285" on="0"/>
        <pt x="803" y="318" on="1"/>
        <pt x="811" y="334" on="0"/>
        <pt x="811" y="396" on="0"/>
        <pt x="803" y="448" on="0"/>
        <pt x="780" y="482" on="0"/>
        <pt x="759" y="500" on="0"/>
        <pt x="734" y="504" on="1"/>
        <pt x="695" y="510" on="0"/>
        <pt x="633" y="510" on="1"/>
        <pt x="522" y="510" on="0"/>
        <pt x="456" y="426" on="0"/>
        <pt x="454" y="285" on="1"/>
      </contour>
    </TTGlyph>
    <TTGlyph name="ae.smcp" xMin="31" yMin="-7" xMax="773" yMax="566">
      <contour>
        <pt x="773" y="543" on="1"/>
        <pt x="518" y="543" on="1"/>
        <pt x="467" y="543" on="0"/>
        <pt x="436" y="518" on="0"/>
        <pt x="436" y="477" on="1"/>
        <pt x="436" y="293" on="1"/>
        <pt x="742" y="287" on="1"/>
        <pt x="742" y="273" on="1"/>
        <pt x="436" y="267" on="1"/>
        <pt x="436" y="80" on="1"/>
        <pt x="436" y="53" on="0"/>
        <pt x="463" y="22" on="0"/>
        <pt x="485" y="17" on="0"/>
        <pt x="496" y="17" on="1"/>
        <pt x="773" y="17" on="1"/>
        <pt x="773" y="4" on="1"/>
        <pt x="496" y="-7" on="1"/>
        <pt x="458" y="-7" on="0"/>
        <pt x="412" y="37" on="0"/>
        <pt x="412" y="78" on="1"/>
        <pt x="412" y="210" on="1"/>
        <pt x="201" y="210" on="1"/>
        <pt x="60" y="0" on="1"/>
        <pt x="31" y="0" on="1"/>
        <pt x="356" y="482" on="1"/>
        <pt x="392" y="535" on="0"/>
        <pt x="445" y="562" on="0"/>
        <pt x="516" y="566" on="1"/>
        <pt x="773" y="557" on="1"/>
      </contour>
      <contour>
        <pt x="412" y="234" on="1"/>
        <pt x="412" y="516" on="1"/>
        <pt x="217" y="234" on="1"/>
      </contour>
    </TTGlyph>
    <TTGlyph name="afii61289" xMin="40" yMin="-1" xMax="335" yMax="739">
      <contour>
        <pt x="99" y="681" on="0"/>
        <pt x="163" y="739" on="0"/>
        <pt x="268" y="739" on="0"/>
        <pt x="334" y="658" on="0"/>
        <pt x="334" y="604" on="1"/>
        <pt x="334" y="533" on="0"/>
        <pt x="215" y="379" on="0"/>
        <pt x="121" y="294" on="1"/>
        <pt x="121" y="188" on="1"/>
        <pt x="121" y="95" on="0"/>
        <pt x="167" y="30" on="0"/>
        <pt x="281" y="12" on="0"/>
        <pt x="288" y="12" on="1"/>
        <pt x="288" y="-1" on="1"/>
        <pt x="216" y="-1" on="1"/>
        <pt x="156" y="-1" on="0"/>
        <pt x="98" y="86" on="0"/>
        <pt x="98" y="188" on="1"/>
        <pt x="98" y="273" on="1"/>
        <pt x="82" y="253" on="0"/>
        <pt x="48" y="236" on="1"/>
        <pt x="40" y="248" on="1"/>
        <pt x="72" y="277" on="0"/>
        <pt x="98" y="304" on="1"/>
        <pt x="98" y="632" on="1"/>
      </contour>
      <contour>
        <pt x="299" y="548" on="0"/>
        <pt x="303" y="580" on="0"/>
        <pt x="307" y="608" on="0"/>
        <pt x="307" y="628" on="0"/>
        <pt x="302" y="640" on="1"/>
        <pt x="293" y="677" on="0"/>
        <pt x="237" y="714" on="0"/>
        <pt x="208" y="714" on="1"/>
        <pt x="173" y="714" on="0"/>
        <pt x="121" y="665" on="0"/>
        <pt x="121" y="626" on="1"/>
        <pt x="121" y="326" on="1"/>
        <pt x="136" y="341" on="0"/>
        <pt x="178" y="381" on="0"/>
        <pt x="210" y="415" on="0"/>
        <pt x="232" y="440" on="0"/>
        <pt x="262" y="478" on="0"/>
        <pt x="278" y="507" on="0"/>
      </contour>
    </TTGlyph>
</ttFont>
